<?xml version="1.0" encoding="UTF-8"?>
<svg version="1.1" xmlns="http://www.w3.org/2000/svg" width="1280" height="983">
<path d="M0 0 C14.26634927 47.58106432 15.83583883 99.031081 19.78143311 148.27532959 C20.0087357 151.1088998 20.23694063 153.94239626 20.46533203 156.77587891 C21.53770386 170.08763993 22.5932242 183.40065671 23.63639069 196.71473694 C23.87309532 199.7257712 24.1120152 202.73662234 24.35150146 205.74743652 C24.73151957 210.53155337 25.10406503 215.31620019 25.47125244 220.10131836 C25.60719357 221.85935759 25.74541165 223.61722268 25.88623047 225.37487793 C26.32882139 230.91348668 26.71006138 236.45123257 27 242 C27.06690914 243.23466759 27.06690914 243.23466759 27.13516998 244.49427795 C27.25360266 246.95881936 27.33113893 249.42119411 27.39501953 251.88769531 C27.43195356 252.63046093 27.4688876 253.37322655 27.50694084 254.13850021 C27.5596903 258.14982984 27.16901633 259.79260985 24.60031128 262.94451904 C18.91215537 267.44086387 12.89361221 265.78202907 6 265 C-0.65212107 264.10945272 -7.26388658 262.96337359 -13.875 261.8125 C-14.77940826 261.65627167 -15.68381653 261.50004333 -16.6156311 261.33908081 C-42.15092407 256.90584478 -66.16693535 250.52068689 -90.00390625 240.2109375 C-93.12847884 238.94807244 -96.28243975 237.85530765 -99.47290039 236.77319336 C-115.89308742 231.19768866 -115.89308742 231.19768866 -121 225 C-121.50457764 222.92588806 -121.50457764 222.92588806 -121.67480469 220.53491211 C-121.77118225 219.19817947 -121.77118225 219.19817947 -121.86950684 217.83444214 C-122.09044837 213.03537091 -122.18239015 208.2453356 -122.203125 203.44140625 C-122.21013931 202.35180603 -122.21715363 201.26220581 -122.22438049 200.1395874 C-122.24187504 196.61384942 -122.24823957 193.08827989 -122.25 189.5625 C-122.25067474 188.35371185 -122.25134949 187.14492371 -122.25204468 185.89950562 C-122.23422904 165.76833426 -121.4457539 145.97803567 -119 126 C-118.83199022 124.58561685 -118.66402212 123.17122875 -118.49609375 121.75683594 C-116.42248037 104.56627319 -113.50181467 87.58057612 -110 70.625 C-109.83859528 69.83048431 -109.67719055 69.03596863 -109.51089478 68.21737671 C-103.64674707 39.60818903 -103.64674707 39.60818903 -94.95581055 33.58276367 C-88.18011009 30.27298464 -81.18490102 28.06616559 -73.96826172 25.94866943 C-52.74241052 19.68487988 -32.20061968 11.65365222 -11.61174011 3.57667542 C-10.78273697 3.25150436 -9.95373383 2.92633331 -9.09960938 2.59130859 C-8.01552795 2.16475479 -8.01552795 2.16475479 -6.9095459 1.72958374 C-2.38269126 0 -2.38269126 0 0 0 Z " fill="#2F266D" transform="translate(969,124)"/>
<path d="M0 0 C0.67490227 -0.00058914 1.34980453 -0.00117828 2.04515839 -0.00178528 C23.70777729 -0.01510965 45.11302528 0.52206384 66.625 3.25 C68.40124756 3.4668042 68.40124756 3.4668042 70.21337891 3.68798828 C96.13514008 6.93045266 121.66188697 12.57040959 146.625 20.25 C147.89561279 20.63671875 147.89561279 20.63671875 149.19189453 21.03125 C151.45379497 21.73640102 153.69660282 22.48103388 155.9375 23.25 C157.15050781 23.6625 158.36351562 24.075 159.61328125 24.5 C163.40148089 26.70118474 165.29078996 29.14365215 166.625 33.25 C167.21565813 39.16273952 166.35805978 44.88820265 165.19140625 50.671875 C165.03835526 51.4693364 164.88530426 52.26679779 164.72761536 53.08842468 C164.39528394 54.8185337 164.0595112 56.54798456 163.72064209 58.27682495 C162.78781046 63.04152813 161.8830538 67.81151885 160.98046875 72.58203125 C160.78857971 73.59511856 160.59669067 74.60820587 160.39898682 75.6519928 C158.30053159 86.82470648 156.43832661 98.03566291 154.57250977 109.24911499 C146.15663153 159.79328263 146.15663153 159.79328263 141.625 172.25 C135.25474105 173.4414656 129.08679337 173.39607107 122.625 173.375 C121.5009375 173.37886719 120.376875 173.38273438 119.21875 173.38671875 C112.02841818 173.37876484 104.88237163 173.13523003 97.703125 172.76953125 C88.48541024 172.30876742 79.27494934 172.11211025 70.046875 172.00390625 C69.37009201 171.99559029 68.69330902 171.98727432 67.99601746 171.97870636 C61.69323318 171.90133849 55.39040549 171.83019194 49.08740234 171.77319336 C45.59300653 171.74117908 42.0988174 171.69991359 38.60459137 171.65299797 C36.66946846 171.62963186 34.73423188 171.61635854 32.79901123 171.60340881 C13.54828096 171.33408634 13.54828096 171.33408634 8.03491211 166.02416992 C1.76192509 158.13052548 -2.27339194 148.51396545 -6.3397522 139.36074829 C-7.2854941 137.23263085 -8.23968891 135.10847484 -9.19604492 132.98510742 C-10.21585937 130.7207768 -11.23527144 128.45627697 -12.25242615 126.19075012 C-16.02191653 117.79531657 -19.84674704 109.42553552 -23.6875 101.0625 C-24.03749054 100.30015045 -24.38748108 99.5378009 -24.74807739 98.75234985 C-30.31717989 86.63149329 -35.97579328 74.55425866 -41.6875 62.5 C-42.06526581 61.70195953 -42.44303162 60.90391907 -42.83224487 60.08169556 C-46.51920523 52.29650065 -50.22327207 44.52178821 -54.03515625 36.796875 C-66.375 11.71608359 -66.375 11.71608359 -66.375 3.25 C-63.3962786 2.93272151 -60.41711503 2.62118899 -57.4375 2.3125 C-56.62603516 2.22548828 -55.81457031 2.13847656 -54.97851562 2.04882812 C-36.66762867 0.16900323 -18.39206487 0.00736241 0 0 Z " fill="#2F266D" transform="translate(422.375,97.75)"/>
<path d="M0 0 C-1.20019881 9.05348522 -3.48166725 17.648804 -6.0819397 26.37518311 C-21.45468537 78.14575349 -26.27302283 129.26751393 -28 183 C-40.18374106 184.41018544 -49.92682917 180.80734173 -61.19354248 176.65005493 C-66.61142425 174.65231639 -72.05616023 172.72965598 -77.49609375 170.79296875 C-78.61566467 170.39196457 -79.7352356 169.99096039 -80.88873291 169.57780457 C-92.4803373 165.43717948 -104.16468997 161.60166997 -115.875 157.8125 C-117.91630791 157.14964369 -119.95756775 156.48663933 -121.9987793 155.82348633 C-129.93833913 153.24669848 -137.88221174 150.68329968 -145.82617188 148.12011719 C-182.82269952 136.18064656 -182.82269952 136.18064656 -201.125 129.6875 C-201.79041809 129.45203461 -202.45583618 129.21656921 -203.14141846 128.97396851 C-213.81252668 125.18747332 -213.81252668 125.18747332 -215 124 C-215.97213274 108.05236751 -213.83738435 92.45511646 -211.6875 76.6875 C-211.37446344 74.32372468 -211.06260982 71.95979239 -210.75195312 69.59570312 C-210.14164205 64.96328747 -209.52246268 60.33219456 -208.89624023 55.7019043 C-208.29965962 51.27607876 -207.72378354 46.84839475 -207.16821289 42.41723633 C-207.03667313 41.37610184 -206.90513336 40.33496735 -206.76960754 39.26228333 C-206.52567991 37.32346277 -206.28531168 35.38418935 -206.04936218 33.44438171 C-203.60524792 14.12996412 -203.60524792 14.12996412 -197 9 C-191.41943756 6.9889727 -186.4630401 6.73862737 -180.56860352 6.82055664 C-179.64672241 6.82508347 -178.72484131 6.82961029 -177.77502441 6.83427429 C-175.77589142 6.84520594 -173.77677922 6.86069178 -171.77771187 6.88023567 C-168.56947135 6.91072101 -165.36141738 6.92731033 -162.15306091 6.94029236 C-153.03020065 6.9796968 -143.90755949 7.04333525 -134.78491211 7.11645508 C-98.89362741 7.39325725 -63.70391944 6.18576457 -28.1362915 1.26039124 C-18.7013714 -0.04119177 -9.50647788 -0.4694557 0 0 Z " fill="#2F266D" transform="translate(859,161)"/>
<path d="M0 0 C1.98420872 -0.01628908 3.96837834 -0.03845619 5.95245361 -0.06665039 C8.74877864 -0.10231698 11.54383695 -0.11044184 14.34036255 -0.11047363 C15.17862076 -0.12474396 16.01687897 -0.13901428 16.88053894 -0.15371704 C18.05295387 -0.14463821 18.05295387 -0.14463821 19.24905396 -0.13537598 C20.26462875 -0.13965103 20.26462875 -0.13965103 21.30072021 -0.14401245 C24.42828981 0.6055994 26.08355087 2.11738194 28.36380005 4.35046387 C32.70762 13.61794178 34.11541528 24.81645301 36.20755005 34.81921387 C36.57253335 36.5415445 36.93808453 38.26375488 37.30415344 39.9858551 C38.08734289 43.67538743 38.86696297 47.36564811 39.64367676 51.05654907 C40.8817423 56.93949186 42.12741077 62.82080728 43.37478638 68.70178223 C43.58689034 69.70183383 43.79899431 70.70188543 44.01752567 71.73224163 C44.45130675 73.7774127 44.88511336 75.82257836 45.31894493 77.86773872 C45.98230979 80.99621558 46.64489313 84.12485719 47.30735779 87.25352478 C50.43398883 102.01273677 53.59730854 116.76378481 56.7817688 131.51062012 C57.2292618 133.5840933 57.6767411 135.65756945 58.12420654 137.73104858 C59.84612193 145.70833212 61.56842278 153.68552976 63.29641724 161.66149902 C65.82135339 173.31887777 68.32613105 184.98027752 70.79256439 196.65018463 C71.18219048 198.4919801 71.57273755 200.33358093 71.96408844 202.17501068 C73.16487093 207.82593254 74.35122565 213.47952149 75.51642799 219.13789177 C75.88280016 220.90723662 76.25373138 222.67564425 76.62946129 224.44302559 C77.14469218 226.87187864 77.64277193 229.30363822 78.13650513 231.73693848 C78.29221544 232.45318075 78.44792576 233.16942303 78.60835457 233.90736961 C79.17781722 236.7934048 79.49904675 238.91705548 78.61360168 241.75453186 C75.51032385 245.71725704 68.87323071 245.60506992 64.2270813 246.20202637 C31.12536905 249.78771029 -2.63946272 250.08339929 -35.63619995 245.35046387 C-36.72191284 245.19529297 -37.80762573 245.04012207 -38.92623901 244.88024902 C-42.00233284 244.42233582 -45.06958554 243.93032327 -48.13619995 243.41296387 C-49.02098022 243.26762207 -49.9057605 243.12228027 -50.81735229 242.97253418 C-56.96552931 241.82513322 -60.83014079 239.87591711 -65.51119995 235.66296387 C-68.32700035 229.87492971 -66.48524024 221.97326349 -65.61276245 215.78405762 C-65.45340714 214.59007103 -65.45340714 214.59007103 -65.29083252 213.3719635 C-64.8437075 210.02317872 -64.38327412 206.67626513 -63.92330933 203.32922363 C-60.75656807 180.14117749 -59.21861262 157.19739218 -59.26119995 133.78796387 C-59.26240845 132.54656647 -59.26361694 131.30516907 -59.26486206 130.02615356 C-59.34866132 98.08713717 -62.73579496 67.63970579 -68.9057312 36.32580566 C-70.8667015 26.29963958 -72.29793148 16.57455524 -72.63619995 6.35046387 C-48.68696411 0.85041639 -24.47068065 0.18958171 0 0 Z " fill="#2F266D" transform="translate(393.6361999511719,285.6495361328125)"/>
<path d="M0 0 C4.20563235 3.80703402 7.09614899 7.72207705 9.83154297 12.67700195 C10.47240845 13.79884888 10.47240845 13.79884888 11.1262207 14.94335938 C13.50955658 19.1500509 15.778993 23.40905421 17.99853516 27.70385742 C32.07484807 54.92030741 49.25251254 80.63457449 67.95654297 104.86450195 C68.6598877 105.78416748 68.6598877 105.78416748 69.37744141 106.72241211 C74.87395644 113.90505615 80.53759536 120.78832761 86.69482422 127.41918945 C88.64703177 129.52986635 90.52960575 131.67677752 92.39404297 133.86450195 C95.29541415 137.22071992 98.41695264 140.32224963 101.58154297 143.42700195 C111.8203521 153.55175852 111.8203521 153.55175852 112.95654297 161.86450195 C88.83423362 162.46395761 64.71457074 162.93942672 40.58544922 163.14575195 C39.47939709 163.15529907 38.37334496 163.16484619 37.23377609 163.17468262 C28.18185072 163.25179332 19.12987457 163.32200772 10.07788086 163.39056396 C2.16369954 163.45065146 -5.75044368 163.51403834 -13.66455078 163.58325195 C-14.74484936 163.59263794 -15.82514793 163.60202393 -16.93818283 163.61169434 C-31.10584647 163.73980343 -45.25948382 163.97802247 -59.41734314 164.53430176 C-65.13789508 164.7586236 -70.8555329 164.92631707 -76.58032227 164.99145508 C-77.70808578 165.00535278 -78.8358493 165.01925049 -79.99778748 165.03356934 C-84.44584042 164.78665461 -87.59600468 163.68488618 -91.04345703 160.86450195 C-96.18033422 154.96664296 -97.64640432 149.04000191 -99.34814453 141.50512695 C-99.77568779 139.69639351 -99.77568779 139.69639351 -100.21186829 137.85112 C-100.97347763 134.61071855 -101.72045008 131.36767763 -102.45952988 128.12211227 C-103.07371544 125.43531272 -103.69925466 122.75120576 -104.32445049 120.0669508 C-108.97557238 100.08110358 -113.35577611 80.05207552 -117.04345703 59.86450195 C-117.31488525 58.40149658 -117.31488525 58.40149658 -117.59179688 56.90893555 C-122.53835726 30.01781209 -122.53835726 30.01781209 -119.04345703 20.86450195 C-111.49011298 11.5385078 -94.21858282 10.55773631 -82.98876953 8.8215332 C-81.39167499 8.56542686 -79.79474405 8.30829844 -78.19796753 8.05021667 C-74.87630353 7.51591398 -71.55350907 6.98967582 -68.22949219 6.47021484 C-64.02041625 5.81238799 -59.81372447 5.14064228 -55.6077137 4.463521 C-51.52716443 3.80720682 -47.44551882 3.15783516 -43.36376953 2.5090332 C-42.61239841 2.3890629 -41.8610273 2.2690926 -41.08688736 2.14548683 C-33.03937984 0.86548098 -24.98194833 -0.33249639 -16.8984375 -1.36328125 C-16.21302446 -1.45691798 -15.52761143 -1.55055471 -14.8214283 -1.64702892 C-9.75753772 -2.26350364 -4.57279306 -2.54098692 0 0 Z " fill="#2F266D" transform="translate(694.04345703125,511.135498046875)"/>
<path d="M0 0 C7.63437487 0.15076862 14.61882303 1.21641682 21.96484375 3.1953125 C22.79792053 3.41786209 23.63099731 3.64041168 24.48931885 3.8697052 C31.7963453 5.865523 38.90061557 8.28149326 46.01358032 10.87438965 C60.98783024 16.3186798 76.0840684 21.38358645 91.22265625 26.34765625 C92.07947117 26.62872915 92.93628609 26.90980206 93.81906509 27.19939232 C101.70319045 29.78477852 109.58899878 32.36497751 117.47937012 34.9312439 C150.38171011 45.63272398 150.38171011 45.63272398 166.60546875 51.609375 C168.2514782 52.21353241 168.2514782 52.21353241 169.93074036 52.82989502 C181.95332294 57.33763056 181.95332294 57.33763056 185.125 62.375 C190.12564836 73.43180093 191.23180021 86.53522149 193.25 98.43359375 C193.55218513 100.20080833 193.85459879 101.96798385 194.15722656 103.73512268 C194.78826288 107.42513345 195.41660118 111.11559043 196.04296875 114.80639648 C196.83462493 119.46991041 197.6329628 124.1322508 198.43318176 128.79430199 C204.75498464 165.65635366 204.75498464 165.65635366 207 184 C196.34859216 185.11053945 185.87581836 185.02372958 175.1875 184.75 C174.257099 184.72766296 173.326698 184.70532593 172.36810303 184.68231201 C164.24449044 184.48501345 156.1222524 184.24632099 148 184 C146.84970432 183.96539925 146.84970432 183.96539925 145.67617035 183.93009949 C134.1474274 183.58293941 122.61976285 183.21019436 111.09268188 182.81164551 C107.45317422 182.68612477 103.81354447 182.56658072 100.17367554 182.45202637 C95.82310497 182.31451556 91.47321305 182.1632647 87.12346077 182.00198746 C85.50269506 181.94404412 83.88175752 181.89069762 82.26067924 181.84228134 C64.21667378 181.29621992 64.21667378 181.29621992 57.3515625 175.9296875 C54.13864398 171.92688204 51.77715686 167.65002084 49.375 163.125 C48.85429932 162.15320801 48.33359863 161.18141602 47.79711914 160.18017578 C25.9151068 118.95895416 10.36214712 75.2298046 3.125 29.0625 C2.92173096 27.76626709 2.71846191 26.47003418 2.5090332 25.13452148 C1.26247836 16.76063142 0.48057302 8.45075438 0 0 Z " fill="#00984A" transform="translate(640,308)"/>
<path d="M0 0 C2.29639761 0.13303269 4.53144319 0.34770647 6.8125 0.625 C7.91911987 0.75551758 7.91911987 0.75551758 9.0480957 0.88867188 C15.10381885 1.65332336 21.08801089 2.71524451 27.08789062 3.83081055 C61.96376428 10.31444929 96.60203971 10.33704115 131.85351562 6.97973633 C132.61796997 6.90898895 133.38242432 6.83824158 134.17004395 6.76535034 C136.22614318 6.57255191 138.28110021 6.36767826 140.3359375 6.16186523 C145.01419505 5.95519647 149.10926657 5.9922497 153.30493164 8.22851562 C155.45296976 10.47339026 156.15848737 12.38975627 157.12109375 15.34375 C157.49202148 16.46475098 157.86294922 17.58575195 158.24511719 18.74072266 C158.83534668 20.60156494 158.83534668 20.60156494 159.4375 22.5 C159.86945457 23.83013073 160.30209223 25.16003979 160.73535156 26.48974609 C164.98157797 39.61418497 168.92055738 52.83634457 172.8737793 66.05126953 C177.59094334 81.79564175 182.55271226 97.45700313 187.59472656 113.10009766 C188.02634094 114.44385468 188.02634094 114.44385468 188.4666748 115.8147583 C189.0033479 117.48494715 189.54233345 119.15439549 190.08410645 120.82293701 C192.20288864 127.42004617 193.11750978 133.06692321 193 140 C128.21293564 140.78890206 62.05979022 137.23524939 -0.6875 119.9375 C-1.50637695 119.71650635 -2.32525391 119.4955127 -3.16894531 119.26782227 C-10.37284457 117.18307568 -17.79644391 114.52498154 -22 108 C-25.2964208 98.11073761 -21.27637172 84.35022826 -19.3125 74.375 C-19.17148865 73.64517914 -19.03047729 72.91535828 -18.88519287 72.16342163 C-15.80391793 56.3816962 -11.74499333 40.84972428 -7.625 25.3125 C-7.30673248 24.11155701 -6.98846497 22.91061401 -6.66055298 21.67327881 C-5.75123476 18.25574978 -4.83484943 14.84023654 -3.9140625 11.42578125 C-3.63516678 10.38582504 -3.35627106 9.34586884 -3.06892395 8.2743988 C-2.81108627 7.32831253 -2.5532486 6.38222626 -2.28759766 5.4074707 C-2.06222321 4.57673538 -1.83684875 3.74600006 -1.60464478 2.89009094 C-1 1 -1 1 0 0 Z " fill="#2F266D" transform="translate(322,542)"/>
<path d="M0 0 C15.5045297 -0.05307533 30.99859489 0.05959196 46.5 0.375 C47.54384857 0.39578613 48.58769714 0.41657227 49.66317749 0.43798828 C64.39186861 0.73965404 79.10091494 1.22614237 93.8125 2 C94.60930176 2.04179382 95.40610352 2.08358765 96.22705078 2.12664795 C105.16475786 2.60352154 114.08437048 3.2032179 123 4 C123.84330122 16.0164714 124.14931305 27.96391103 124.1328125 40.0078125 C124.13348935 41.7892966 124.13446251 43.57078061 124.13571167 45.3522644 C124.13717306 49.06167492 124.13508643 52.7710611 124.13037109 56.48046875 C124.12469912 61.1631915 124.12803301 65.84585707 124.13382149 70.5285778 C124.15275476 88.6701328 124.07744231 106.75783523 123.1026001 124.87823486 C122.86497107 129.79239177 122.85130975 134.70631096 122.875 139.625 C122.87693359 140.70031982 122.87886719 141.77563965 122.88085938 142.88354492 C122.92745882 151.85976316 123.27526066 160.81470264 123.6418457 169.7824707 C124.34242688 188.8420656 124.08244011 207.93096954 124 227 C118.18534764 229.16155977 112.19541601 230.31539862 106.13671875 231.56640625 C104.99016312 231.80536118 103.84360748 232.0443161 102.66230774 232.29051208 C100.24114689 232.79402488 97.8196029 233.29569838 95.39770508 233.7956543 C91.70987598 234.55787521 88.02383858 235.32834945 84.33789062 236.09960938 C81.97927053 236.58904245 79.62054975 237.07799062 77.26171875 237.56640625 C76.16768234 237.79558243 75.07364594 238.02475861 73.94645691 238.26087952 C58.64307741 241.40220743 58.64307741 241.40220743 53.125 240.5625 C47.3073112 236.28478765 46.53155059 225.08649904 45.09375 218.4375 C44.81686844 217.17942032 44.53998688 215.92134064 44.25471497 214.62513733 C43.49032818 211.15034203 42.73357443 207.67392307 41.97818375 204.19716263 C41.3322462 201.22920344 40.6816182 198.26228045 40.03099155 195.29534626 C36.04886423 177.13412872 32.12354122 158.9606189 28.20703125 140.78515625 C28.00567881 139.85078924 27.80432636 138.91642223 27.59687233 137.95374107 C25.76018201 129.43001229 23.9238101 120.90621535 22.09085083 112.38168335 C16.7156193 87.3861095 11.25715681 62.41534316 5.47583008 37.51000977 C2.58208354 24.99870645 -0.17737077 12.90397435 0 0 Z " fill="#2F266D" transform="translate(439,286)"/>
<path d="M0 0 C31.53598947 -0.66134516 62.72174056 0.98435251 94.15673828 3.47167969 C98.80443898 3.83786065 103.45288724 4.16840733 108.10498047 4.47363281 C109.84079628 4.59268478 109.84079628 4.59268478 111.61167908 4.71414185 C113.78149494 4.86234997 115.95186534 5.0027671 118.12281799 5.13327026 C138.18046802 6.54378499 138.18046802 6.54378499 144 13 C148.96886963 20.72360089 151.74253384 29.57670519 154.5625 38.25 C168.06172912 78.3392465 185.9995804 116.51079963 208.4140625 152.40234375 C211.4897856 157.44016608 213.96621449 162.13853654 215 168 C205.10647635 168.09332315 195.2130601 168.16407742 185.31918335 168.20724869 C180.72337116 168.2279851 176.12786354 168.25604238 171.53222656 168.30175781 C167.08419876 168.34572009 162.63646098 168.36924147 158.18823242 168.37950897 C156.50442957 168.38681116 154.82063975 168.40106576 153.13696289 168.42292023 C133.25687622 168.6703361 115.19430402 164.8655272 100.37158203 150.63696289 C93.31081397 143.37231247 88.07708947 134.44414712 82.5625 126 C81.33160434 124.13831293 80.09918906 122.27762967 78.86523438 120.41796875 C77.02906228 117.64920498 75.19439666 114.87953638 73.36587524 112.10571289 C67.35718871 102.99217205 61.19461469 93.98779481 55 85 C19.15827591 32.96079126 19.15827591 32.96079126 5.6875 11.4375 C5.08454102 10.47650391 4.48158203 9.51550781 3.86035156 8.52539062 C0 2.26676323 0 2.26676323 0 0 Z " fill="#2F266D" transform="translate(711,508)"/>
<path d="M0 0 C6.0074419 0.54827487 11.54306167 1.44208143 17.3125 3.1875 C18.13298828 3.43306641 18.95347656 3.67863281 19.79882812 3.93164062 C29.03958161 6.82388497 38.0003881 10.44411936 47 14 C61.4764049 19.75857563 61.4764049 19.75857563 76.25 24.6875 C76.930625 24.89439453 77.61125 25.10128906 78.3125 25.31445312 C91.66098532 29.10428471 105.2777497 30.58875182 119.0625 31.625 C121.37970127 31.80624716 123.6966843 31.9899495 126.01353455 32.17562866 C127.43578977 32.28889667 128.85827493 32.39933155 130.28102112 32.5062561 C134.55775647 32.8379713 138.76237793 33.35397288 143 34 C144.11836416 37.64107271 144.19567492 41.12663554 144.29711914 44.92163086 C144.31676664 45.61542312 144.33641415 46.30921537 144.35665703 47.02403164 C144.42077684 49.33753683 144.47817733 51.6511524 144.53515625 53.96484375 C144.57845123 55.61040791 144.62195867 57.25596648 144.66566467 58.90151978 C144.78140714 63.32931512 144.88996735 67.75725834 144.99619293 72.18529129 C145.06233175 74.93051627 145.13022092 77.67569355 145.19842529 80.42086792 C146.01672029 113.61978695 146.25239456 146.79180042 146 180 C140.66190858 178.4608299 135.42384085 176.92869488 130.34765625 174.64453125 C128.84041992 173.97115723 128.84041992 173.97115723 127.30273438 173.28417969 C126.23345703 172.79852539 125.16417969 172.31287109 124.0625 171.8125 C122.90427734 171.29204102 121.74605469 170.77158203 120.55273438 170.23535156 C116.69701729 168.5007705 112.84803375 166.75154699 109 165 C108.32700867 164.69390808 107.65401733 164.38781616 106.96063232 164.07244873 C98.26639721 160.11730228 89.58075557 156.14353632 80.89886475 152.16137695 C75.335299 149.61014264 69.76801583 147.06713662 64.19921875 144.52734375 C62.59048552 143.7933146 60.98176144 143.05926537 59.37304688 142.32519531 C57.05191023 141.26604635 54.73065487 140.20716314 52.40893555 139.14929199 C50.27607591 138.17734257 48.1438352 137.20404716 46.01171875 136.23046875 C45.38827072 135.9467894 44.76482269 135.66311005 44.1224823 135.37083435 C42.41127477 134.58862953 40.70550105 133.79457018 39 133 C37.92975586 132.50467773 36.85951172 132.00935547 35.75683594 131.49902344 C30.40143318 128.58703504 27.85188534 124.48870873 25.89404297 118.76904297 C24.80046294 114.67740603 23.85149793 110.57203474 22.9375 106.4375 C22.56993152 104.84225362 22.2004007 103.24745836 21.82910156 101.65307617 C21.00422226 98.10169477 20.18984428 94.54808665 19.38037109 90.99316406 C17.87072735 84.39788988 16.28960154 77.82027597 14.70703125 71.2421875 C13.83972877 67.62466854 12.97318982 64.00696762 12.10696411 60.38919067 C11.54543952 58.04556889 10.98287588 55.70219576 10.41915894 53.35910034 C7.40636993 40.80876865 4.56414282 28.24684984 2.109375 15.57421875 C1.89492737 14.47116898 1.68047974 13.3681192 1.45953369 12.23164368 C0.66788051 8.04542572 0 4.275382 0 0 Z " fill="#2F266D" transform="translate(845,374)"/>
<path d="M0 0 C1.78536234 0.47769915 3.58672955 0.89461641 5.38916016 1.30322266 C12.1936549 3.15236915 12.1936549 3.15236915 14.29223633 6.77148438 C16.66451948 13.61702063 17.65729566 19.8795864 17.99462891 27.09619141 C19.92572221 56.80121197 26.37343184 85.41094213 35.99462891 113.53369141 C36.32301758 114.50209961 36.65140625 115.47050781 36.98974609 116.46826172 C43.53197012 135.62275049 51.34395794 154.20561224 59.76025391 172.60791016 C60.18177734 173.53112061 60.60330078 174.45433105 61.03759766 175.40551758 C61.81858416 177.10602723 62.6071609 178.80308012 63.40478516 180.49584961 C63.74896484 181.2405249 64.09314453 181.9852002 64.44775391 182.75244141 C64.74842773 183.39117187 65.04910156 184.02990234 65.35888672 184.68798828 C65.99462891 186.53369141 65.99462891 186.53369141 65.99462891 190.53369141 C42.23541745 195.48792378 18.44928434 200.11955444 -5.50537109 204.03369141 C-6.54208954 204.20481445 -7.57880798 204.3759375 -8.64694214 204.55224609 C-19.41450116 206.32242582 -30.09110171 208.02484345 -41.00537109 208.53369141 C-42.26280353 204.651016 -42.16718011 200.75291122 -42.17333984 196.71728516 C-42.17666824 195.94675308 -42.17999664 195.17622101 -42.1834259 194.38233948 C-42.18848771 192.74407546 -42.19083446 191.10580113 -42.19067383 189.4675293 C-42.19281782 187.03171145 -42.21086011 184.59637964 -42.22998047 182.16064453 C-42.25787247 174.25514567 -41.99334367 166.5309557 -41.02880859 158.68212891 C-39.42923997 145.41689192 -39.57555519 132.06459639 -39.44287109 118.72119141 C-38.92739716 73.30033243 -38.92739716 73.30033243 -36.98193359 57.76025391 C-35.54202683 46.18593032 -35.54424098 34.55710917 -35.38037109 22.90869141 C-35.34207976 20.63003248 -35.30302211 18.3513863 -35.26318359 16.07275391 C-35.16843445 10.55984836 -35.08305682 5.04686247 -35.00537109 -0.46630859 C-33.56224328 -0.95986366 -32.11802093 -1.45021917 -30.67333984 -1.93920898 C-29.86920654 -2.21261612 -29.06507324 -2.48602325 -28.23657227 -2.76771545 C-19.01893282 -5.65377511 -8.99794775 -2.46152661 0 0 Z " fill="#F4AE0B" transform="translate(615.00537109375,298.46630859375)"/>
<path d="M0 0 C1.68984009 -0.0769812 1.68984009 -0.0769812 3.41381836 -0.15551758 C8.84120947 -0.21508799 12.55676431 -0.18107878 16.58984375 3.703125 C18.19067383 5.63842773 18.19067383 5.63842773 19.5625 7.5625 C20.64917969 9.07263672 20.64917969 9.07263672 21.7578125 10.61328125 C28.48007273 21.97580613 34.29213208 33.77172082 40.10986328 45.61767578 C41.6020771 48.64273177 43.12427859 51.65087791 44.65698242 54.65551758 C54.46125739 73.94950599 63.18610114 93.76922856 71.62890625 113.6875 C74.9890964 121.60336503 78.47451265 129.46319711 81.99853516 137.30737305 C84.52443163 142.9846489 86.70000744 148.63305648 88.5625 154.5625 C81.36547507 156.7656709 74.55190594 157.68552977 66.99414062 157.70776367 C66.2728447 157.71112228 65.55154877 157.7144809 64.80839539 157.71794128 C62.44516232 157.7273714 60.08200066 157.72939009 57.71875 157.73046875 C56.06400525 157.73368587 54.40926077 157.73705028 52.7545166 157.74055481 C49.29483379 157.74652549 45.83517588 157.74839673 42.37548828 157.74780273 C37.95395667 157.747701 33.53258524 157.76137375 29.11109161 157.77857494 C25.69662753 157.78971855 22.28220196 157.79172125 18.86772156 157.79119301 C17.23792466 157.79236877 15.60812663 157.79676776 13.97834778 157.80452538 C11.69573862 157.81437714 9.41347468 157.81142743 7.13085938 157.80541992 C5.83515015 157.80684494 4.53944092 157.80826996 3.20446777 157.80973816 C-0.62244796 157.54994465 -3.8270894 156.84655444 -7.4375 155.5625 C-13.91503273 147.81210944 -16.47067903 135.1712273 -19.5854187 125.71298218 C-21.29800984 120.5195791 -23.04350561 115.33733089 -24.79296875 110.15625 C-25.16206863 109.06314011 -25.53116852 107.97003021 -25.91145325 106.84379578 C-31.12935313 91.47707751 -36.74990201 76.25420045 -42.34619141 61.0222168 C-46.49266739 49.72692769 -50.58023448 38.41479304 -54.53515625 27.05078125 C-54.9275499 25.92850632 -55.31994354 24.80623138 -55.72422791 23.64994812 C-56.25917625 22.10292961 -56.25917625 22.10292961 -56.80493164 20.5246582 C-57.12111954 19.61255081 -57.43730743 18.70044342 -57.76307678 17.76069641 C-58.4375 15.5625 -58.4375 15.5625 -58.4375 13.5625 C-39.36846543 4.76838105 -21.01536476 0.54168551 0 0 Z " fill="#F4AE0B" transform="translate(322.4375,109.4375)"/>
<path d="M0 0 C8.88824841 2.24607551 17.02702657 5.98419729 25.3125 9.8125 C26.78116937 10.48593433 28.2499208 11.15918973 29.71875 11.83227539 C41.99481636 17.47388507 54.17541055 23.30420872 66.31375122 29.23631287 C70.42948933 31.24446049 74.55774504 33.22498762 78.69290161 35.19282532 C81.74190183 36.64428825 84.7878001 38.10219619 87.83349609 39.56057739 C89.30625036 40.26386595 90.78035239 40.96433987 92.25585938 41.66183472 C94.31108966 42.6340087 96.36102845 43.61660501 98.41015625 44.6015625 C99.58715088 45.16182129 100.76414551 45.72208008 101.97680664 46.29931641 C105.04411258 48.02481533 106.84112435 49.23499995 109 52 C109.39002787 54.62628501 109.53797419 56.83257174 109.50170898 59.45556641 C109.50981346 60.57351593 109.50981346 60.57351593 109.51808167 61.71405029 C109.53058246 64.17695923 109.51406048 66.63870138 109.49609375 69.1015625 C109.49624881 70.82066916 109.49773888 72.53977617 109.50050354 74.25888062 C109.50188847 77.86528956 109.48932178 81.47130132 109.46655273 85.07763672 C109.4382958 89.67733828 109.44086919 94.27637358 109.45364285 98.87612343 C109.46063757 102.42973407 109.4527656 105.98319377 109.44038582 109.53678513 C109.43589898 111.231077 109.43551007 112.92538526 109.43945122 114.6196785 C109.46619662 136.25276041 109.46619662 136.25276041 103.6875 142.5 C92.3539971 148.82567604 72.1191022 148.86419142 59.3125 146.3125 C51.6209063 143.2648874 49.04711027 136.58884251 45.88720703 129.4765625 C42.29996036 121.09170461 39.13235153 112.53983585 35.9375 104 C34.57393142 100.37412521 33.20721704 96.74944145 31.83984375 93.125 C31.50834824 92.24485229 31.17685272 91.36470459 30.83531189 90.45788574 C28.47601351 84.21041349 26.01864998 78.01001612 23.52124023 71.81640625 C15.94549225 52.91773929 8.50401462 33.79351537 2.5625 14.3125 C2.14883179 12.96285156 2.14883179 12.96285156 1.72680664 11.5859375 C0.54960608 7.55936293 -0.11819476 4.2251179 0 0 Z " fill="#F4AE0B" transform="translate(881,527)"/>
<path d="M0 0 C0.44016631 2.09687268 0.8799733 4.19382108 1.31860352 6.29101562 C1.74649531 8.33679416 2.17543687 10.38235331 2.60522461 12.42773438 C3.90929057 18.66354864 5.18401649 24.90332653 6.4128418 31.15434265 C10.52810113 52.08105274 15.01867141 72.86849993 20.1875 93.5625 C20.43339874 94.55362793 20.67929749 95.54475586 20.93264771 96.56591797 C23.6716873 107.56468947 26.62581071 118.43948236 30.16239929 129.21131897 C32 134.81883604 32 134.81883604 32 137 C26.55724278 137.95524689 21.11340698 138.90389883 15.66796875 139.84375 C11.29264531 140.59897976 6.92090057 141.3715103 2.55078125 142.15625 C0.47141794 142.52119686 -1.60800726 142.88579132 -3.6875 143.25 C-4.64076172 143.42499023 -5.59402344 143.59998047 -6.57617188 143.78027344 C-13.3033953 144.9419934 -20.20020405 146.06030063 -27 145 C-33.32390228 140.4586742 -35.01041185 131.57833602 -37.4375 124.4375 C-37.95626834 122.93664753 -38.47515176 121.43583482 -38.99414062 119.93505859 C-48.57061605 92.03964579 -57.10571872 63.80610802 -64.9375 35.375 C-65.20506104 34.41209045 -65.47262207 33.44918091 -65.74829102 32.45709229 C-66.49693659 29.75259559 -67.23323378 27.04508561 -67.96484375 24.3359375 C-68.29958961 23.12988861 -68.29958961 23.12988861 -68.64109802 21.8994751 C-70.11534042 16.34602125 -70.11534042 16.34602125 -69 13 C-66.18705026 11.69214527 -63.47706061 10.59358787 -60.5625 9.5625 C-59.71083252 9.25610596 -58.85916504 8.94971191 -57.98168945 8.6340332 C-49.46347342 5.66205066 -40.86386527 3.62373648 -32 2 C-30.21529297 1.66162109 -30.21529297 1.66162109 -28.39453125 1.31640625 C-18.92500983 -0.26366349 -9.56576237 -0.19521964 0 0 Z " fill="#F4AE0B" transform="translate(559,536)"/>
<path d="M0 0 C1.00095703 -0.00128906 2.00191406 -0.00257813 3.03320312 -0.00390625 C4.07798828 -0.00003906 5.12277344 0.00382813 6.19921875 0.0078125 C7.74899414 0.00201172 7.74899414 0.00201172 9.33007812 -0.00390625 C14.28957472 0.00245616 19.01486022 0.07626487 23.88671875 1.1328125 C23.31018672 11.0299457 20.82081067 20.38988994 18.44921875 29.9765625 C18.00411356 31.79581073 17.55954214 33.61518963 17.11547852 35.43469238 C16.18823009 39.22800117 15.2565556 43.02018375 14.32128906 46.81152344 C13.12116019 51.67688311 11.92917174 56.54419004 10.74006653 61.41225433 C9.8242688 65.15986468 8.90577804 68.90681034 7.98629761 72.65351868 C7.54564969 74.44920718 7.10548284 76.24501379 6.665802 78.04093933 C6.05315341 80.54028994 5.43725627 83.03881603 4.8203125 85.53710938 C4.54753983 86.65289871 4.54753983 86.65289871 4.26925659 87.79122925 C3.00138381 92.90348238 3.00138381 92.90348238 1.88671875 95.1328125 C7.56123933 94.88524444 13.2220757 94.54772992 18.88671875 94.1328125 C19.758125 94.07996094 20.62953125 94.02710938 21.52734375 93.97265625 C32.50858127 92.48474048 44.06848471 81.27114375 50.88671875 73.1328125 C57.66982864 64.02445805 64.97862318 51.94523318 63.88671875 40.1328125 C63.08286059 37.8532727 62.13227843 35.89722889 60.89453125 33.82421875 C59.88671875 32.1328125 59.88671875 32.1328125 58.88671875 29.1328125 C57.15183767 28.03949249 57.15183767 28.03949249 54.88671875 27.1328125 C53.9121875 26.67003906 52.93765625 26.20726562 51.93359375 25.73046875 C45.98448139 22.9603252 40.07608018 20.31729301 33.88671875 18.1328125 C33.80574551 15.86256282 33.74754171 13.59149175 33.69921875 11.3203125 C33.64701172 9.42345703 33.64701172 9.42345703 33.59375 7.48828125 C33.88671875 4.1328125 33.88671875 4.1328125 34.8828125 2.2109375 C38.14706062 0.45473383 41.52188916 0.64760066 45.13671875 0.6953125 C46.34400635 0.70776001 46.34400635 0.70776001 47.57568359 0.72045898 C62.30305741 1.12866495 80.21938139 6.18989337 91.13671875 16.5703125 C98.68757316 25.01458862 100.54704988 33.57704874 100.2890625 44.6953125 C99.54181184 56.8215154 93.06098385 67.67384229 85.88671875 77.1328125 C85.16548828 78.11121094 85.16548828 78.11121094 84.4296875 79.109375 C71.61590831 95.28354009 46.76299382 109.97835271 25.99804688 112.48095703 C18.16984964 113.14982198 10.36467806 113.28901926 2.51171875 113.2578125 C0.71589355 113.25491211 0.71589355 113.25491211 -1.11621094 113.25195312 C-12.46605623 113.19792054 -23.78095052 112.72452571 -35.11328125 112.1328125 C-31.86622592 94.31309504 -28.00399954 76.71880723 -23.67578125 59.1328125 C-22.84581421 55.73875733 -22.01770179 52.34425768 -21.19076538 48.94946289 C-20.64526313 46.71126031 -20.09810462 44.47346069 -19.54922485 42.23608398 C-18.13487424 36.44617727 -16.76908865 30.6494506 -15.47216797 24.83203125 C-15.0733567 23.05324585 -15.0733567 23.05324585 -14.66648865 21.23852539 C-14.16196714 18.97511927 -13.66486197 16.71004285 -13.17640686 14.44311523 C-12.94924484 13.42548096 -12.72208282 12.40784668 -12.48803711 11.359375 C-12.29414902 10.46814941 -12.10026093 9.57692383 -11.90049744 8.65869141 C-11.00403194 5.78227281 -9.8673504 3.58153387 -8.11328125 1.1328125 C-5.12237815 0.1358448 -3.12319605 0.00387253 0 0 Z " fill="#2F266D" transform="translate(395.11328125,768.8671875)"/>
<path d="M0 0 C2.28603699 0.00537661 4.57187899 0.00001739 6.85791016 -0.00634766 C8.33577517 -0.00568703 9.81364006 -0.00440618 11.29150391 -0.00244141 C12.61037598 -0.00131348 13.92924805 -0.00018555 15.28808594 0.00097656 C19.31870751 0.13572044 23.16251117 0.60729318 27.15869141 1.13037109 C27.18191816 13.97877016 27.19965903 26.82716419 27.21050358 39.67558002 C27.21570985 45.64237017 27.22276634 51.60914589 27.23413086 57.57592773 C27.24504014 63.34012683 27.25098522 69.10431211 27.25356865 74.86852074 C27.25540845 77.06159876 27.25900101 79.25467608 27.26442146 81.44774818 C27.27173874 84.5324832 27.27267787 87.61716193 27.2722168 90.7019043 C27.27581207 91.59743011 27.27940735 92.49295593 27.28311157 93.4156189 C27.27292326 99.76383083 26.73917615 105.74503891 26.15869141 112.13037109 C14.27869141 112.13037109 2.39869141 112.13037109 -9.84130859 112.13037109 C-9.84130859 83.42037109 -9.84130859 54.71037109 -9.84130859 25.13037109 C-19.36638578 25.02361504 -19.36638578 25.02361504 -22.90771484 29.16552734 C-23.77479563 30.48560815 -24.60558989 31.83004707 -25.40380859 33.19287109 C-25.85506104 33.90515869 -26.30631348 34.61744629 -26.77124023 35.35131836 C-28.16966294 37.58854914 -29.51081816 39.85218769 -30.84130859 42.13037109 C-31.48277832 43.20883301 -31.48277832 43.20883301 -32.13720703 44.30908203 C-36.51877337 51.70913628 -40.56997884 59.1653943 -43.84130859 67.13037109 C-41.92318359 67.11296875 -41.92318359 67.11296875 -39.96630859 67.09521484 C-38.25797673 67.0858284 -36.54964328 67.07672913 -34.84130859 67.06787109 C-34.00212891 67.05949219 -33.16294922 67.05111328 -32.29833984 67.04248047 C-27.04811521 67.02213076 -22.03675197 67.36668902 -16.84130859 68.13037109 C-16.729927 73.58806921 -16.92472878 78.74546469 -17.84130859 84.13037109 C-21.79244407 85.43388497 -25.77955602 85.25649391 -29.88818359 85.22802734 C-30.65938538 85.2266124 -31.43058716 85.22519745 -32.22515869 85.22373962 C-34.68058198 85.21815643 -37.13591301 85.20560705 -39.59130859 85.19287109 C-41.25927602 85.18785392 -42.92724489 85.18329139 -44.59521484 85.17919922 C-48.67728146 85.1681925 -52.7592794 85.15093946 -56.84130859 85.13037109 C-57.12748047 85.84604248 -57.41365234 86.56171387 -57.70849609 87.29907227 C-58.08232422 88.23340088 -58.45615234 89.16772949 -58.84130859 90.13037109 C-59.17388672 90.9841333 -59.50646484 91.83789551 -59.84912109 92.7175293 C-62.76304145 99.79537561 -65.87745792 107.121866 -71.84130859 112.13037109 C-80.19615141 114.82835635 -89.31499559 113.49557405 -97.84130859 112.13037109 C-92.75736767 98.85438196 -84.70042723 87.99927147 -76.51220703 76.48535156 C-67.39610273 63.63702572 -58.43644668 50.68151444 -49.56689453 37.66210938 C-47.7047568 34.93002558 -45.83961212 32.20000996 -43.97412109 29.47021484 C-43.3220166 28.51445557 -42.66991211 27.55869629 -41.99804688 26.57397461 C-40.69812977 24.67212466 -39.39448957 22.77281344 -38.08691406 20.8762207 C-35.43188147 17.0121815 -32.80930561 13.16965707 -30.46630859 9.10693359 C-29.50724609 7.47884766 -29.50724609 7.47884766 -28.52880859 5.81787109 C-27.79210937 4.46242188 -27.79210937 4.46242188 -27.04052734 3.07958984 C-20.82633737 -2.42819132 -7.99043252 -0.02237252 0 0 Z " fill="#2F266D" transform="translate(185.84130859375,768.86962890625)"/>
<path d="M0 0 C0.79474731 -0.00095673 1.58949463 -0.00191345 2.4083252 -0.00289917 C4.07902099 -0.00357591 5.7497195 -0.00175712 7.42041016 0.00244141 C9.96132374 0.00779685 12.50206059 0.00247918 15.04296875 -0.00390625 C16.67447955 -0.00324538 18.30599025 -0.00196403 19.9375 0 C20.68874146 -0.00202423 21.43998291 -0.00404846 22.21398926 -0.00613403 C26.73105638 0.01370658 31.01107004 0.39402321 35.46875 1.1328125 C36.31576382 17.95350547 36.63095153 34.72972056 36.59375 51.5703125 C36.59242065 53.31843231 36.59242065 53.31843231 36.59106445 55.10186768 C36.57413601 74.13562686 36.19334262 93.11225632 35.46875 112.1328125 C23.91875 112.1328125 12.36875 112.1328125 0.46875 112.1328125 C-0.15113756 107.17371199 -0.65486909 102.93061474 -0.62890625 98.04663086 C-0.62560303 96.91442612 -0.6222998 95.78222137 -0.61889648 94.6157074 C-0.61059814 93.41350052 -0.6022998 92.21129364 -0.59375 90.97265625 C-0.58807007 89.0786483 -0.58807007 89.0786483 -0.58227539 87.14637756 C-0.56806611 82.44642217 -0.54497178 77.74654367 -0.52087402 73.04663086 C1.10701936 48.63682799 1.10701936 48.63682799 -3.53125 25.1328125 C-7.87721291 25.30792456 -9.92421525 25.52389547 -13.05078125 28.66015625 C-13.83956462 29.7800401 -14.6026368 30.91832715 -15.34375 32.0703125 C-15.96660889 32.99009888 -15.96660889 32.99009888 -16.60205078 33.9284668 C-23.56342714 44.43326999 -29.57234747 55.55467578 -34.53125 67.1328125 C-33.67744751 67.12495728 -33.67744751 67.12495728 -32.80639648 67.11694336 C-30.19385917 67.09598363 -27.58133963 67.08309246 -24.96875 67.0703125 C-23.62586914 67.05774414 -23.62586914 67.05774414 -22.25585938 67.04492188 C-21.37607422 67.04169922 -20.49628906 67.03847656 -19.58984375 67.03515625 C-18.38799438 67.02730103 -18.38799438 67.02730103 -17.16186523 67.01928711 C-13.93327817 67.15861825 -10.73036298 67.67579636 -7.53125 68.1328125 C-7.86125 73.4128125 -8.19125 78.6928125 -8.53125 84.1328125 C-13.00625642 85.02781378 -16.60895005 85.05213865 -21.0703125 84.74609375 C-36.2888752 83.37416713 -36.2888752 83.37416713 -50.10253906 88.04199219 C-53.88431391 92.79683263 -55.68504649 98.08452349 -57.59912109 103.78027344 C-59.10841911 107.5894918 -60.83064993 110.23477176 -64.53125 112.1328125 C-68.52549565 112.82181987 -72.3688944 112.7017249 -76.40625 112.5078125 C-78.01113281 112.46720703 -78.01113281 112.46720703 -79.6484375 112.42578125 C-82.27813153 112.35534302 -84.9036322 112.25690683 -87.53125 112.1328125 C-85.77491023 99.02636303 -75.70983126 88.0544457 -68.25927734 77.57519531 C-65.85723792 74.18016813 -63.50282576 70.75380322 -61.15625 67.3203125 C-57.43925418 61.89240638 -53.69123358 56.48705513 -49.92700195 51.09179688 C-42.6690959 40.68853513 -35.48955282 30.23658127 -28.37841797 19.73266602 C-27.06453145 17.7931573 -25.74444599 15.85783003 -24.41748047 13.92724609 C-23.1495818 12.04886553 -21.91958982 10.14438952 -20.72705078 8.21728516 C-20.14810059 7.30897949 -19.56915039 6.40067383 -18.97265625 5.46484375 C-18.47580322 4.65378174 -17.9789502 3.84271973 -17.46704102 3.00708008 C-13.18407037 -1.13976892 -5.68481216 -0.01531781 0 0 Z " fill="#2F266D" transform="translate(304.53125,768.8671875)"/>
<path d="M0 0 C0.33 0 0.66 0 1 0 C1 29.04 1 58.08 1 88 C33.67 88 66.34 88 100 88 C98.52360997 82.93991361 98.52360997 82.93991361 95 81 C92.46496514 80.78749243 90.03597597 80.68877825 87.49926758 80.68115234 C86.73805099 80.67110672 85.97683441 80.6610611 85.19255066 80.65071106 C82.67655187 80.61982116 80.16065976 80.60282796 77.64453125 80.5859375 C75.9000303 80.5672305 74.15553843 80.54765744 72.41105652 80.5272522 C67.81948196 80.47587543 63.22787805 80.43627943 58.63616943 80.39910889 C53.95073146 80.35910396 49.26541618 80.30799562 44.58007812 80.2578125 C35.38680487 80.16098759 26.19346242 80.07660384 17 80 C21.97024598 64.7260618 34.58444597 55.58709437 46.9921875 46.2890625 C47.98476562 45.53367187 48.97734375 44.77828125 50 44 C51.03382812 43.21753906 52.06765625 42.43507813 53.1328125 41.62890625 C56.28147236 38.74191975 57.98284595 36.06524701 60 32.3125 C60.6817185 31.07390311 61.3640148 29.83562407 62.046875 28.59765625 C62.37623047 27.99066895 62.70558594 27.38368164 63.04492188 26.75830078 C64.41472076 24.23649823 65.81683205 21.73632925 67.25 19.25 C67.68828125 18.47140625 68.1265625 17.6928125 68.578125 16.890625 C70.18217626 14.75776564 71.54789824 13.98503233 74 13 C77.47979372 25.59520706 75.23496222 39.0386409 69.2109375 50.36328125 C64.6494863 58.3505137 64.6494863 58.3505137 63 60 C64.32221558 60.02187378 64.32221558 60.02187378 65.67114258 60.04418945 C68.9946276 60.10586057 72.31736718 60.18011833 75.64038086 60.26245117 C77.06866149 60.29536086 78.49706159 60.32349411 79.92553711 60.34643555 C92.88273222 60.56004066 104.57176583 61.72726892 114.8125 70.375 C118.47841578 74.77409893 119.49388777 79.14096604 119.30859375 84.86328125 C118.18145509 92.66764641 113.50092993 98.6375827 108 104 C107.47976257 104.56275635 106.95952515 105.1255127 106.42352295 105.70532227 C101.80534192 110.31161899 98.51559468 111.81079335 92.01037598 111.96463013 C90.53570862 111.94733353 90.53570862 111.94733353 89.03125 111.9296875 C87.98400757 111.94466278 86.93676514 111.95963806 85.85778809 111.97506714 C82.57123868 112.01482626 79.28673703 112.0082193 76 112 C73.97131704 112.02034795 71.94266436 112.04402911 69.9140625 112.07128906 C64.80807681 112.13086652 59.7034559 112.14076761 54.59716797 112.13037109 C51.55561106 112.12509644 48.51420825 112.13031756 45.47265625 112.13671875 C25.30770346 112.14268189 5.15569216 111.55676931 -15 111 C-15.09281592 99.40369208 -15.16382398 87.80747303 -15.20724869 76.21086884 C-15.2280939 70.82566679 -15.25635573 65.44071951 -15.30175781 60.05566406 C-15.34532461 54.8555502 -15.36916016 49.65568089 -15.37950897 44.45539856 C-15.38688088 42.47471774 -15.40127651 40.4940498 -15.42292023 38.51347351 C-15.45209818 35.73199893 -15.45594999 32.95152569 -15.45410156 30.16992188 C-15.46848267 29.35711761 -15.48286377 28.54431335 -15.49768066 27.70687866 C-15.44647037 20.55178799 -12.91534382 14.79868898 -8.23828125 9.375 C-7.75939453 8.81425781 -7.28050781 8.25351562 -6.78710938 7.67578125 C-6.30048828 7.12277344 -5.81386719 6.56976562 -5.3125 6 C-4.81427734 5.41605469 -4.31605469 4.83210937 -3.80273438 4.23046875 C-2.56391379 2.79498329 -1.28548687 1.39385023 0 0 Z " fill="#2F266D" transform="translate(992,760)"/>
<path d="M0 0 C16.13945028 2.28116253 30.43993776 8.92880558 40.54296875 21.99560547 C43.96441748 27.50754021 44.23461155 31.11542747 42.765625 37.4296875 C41.98638777 40.2643279 41.12172179 43.06769414 40.25 45.875 C39.80993483 47.39187968 39.37403573 48.90997368 38.94213867 50.42919922 C38.06543732 53.50341973 37.17381882 56.5725999 36.26904297 59.63867188 C34.47256864 65.76381623 32.8650948 71.93394396 31.3125 78.125 C31.03349854 79.23560791 30.75449707 80.34621582 30.46704102 81.49047852 C28.24822654 90.5443065 26.40598158 99.65308862 24.6875 108.8125 C24.32362183 110.75116943 24.32362183 110.75116943 23.95239258 112.72900391 C22.53324464 120.51751253 21.38698218 128.29797207 20.44067383 136.1550293 C20 139 20 139 19 140 C4.10205988 139.93070726 -10.70751868 138.57065952 -22.62597656 128.8605957 C-25 126 -25 126 -25.36621094 122.61157227 C-25.24020508 121.33854248 -25.11419922 120.0655127 -24.984375 118.75390625 C-24.91885437 118.05302383 -24.85333374 117.35214142 -24.78582764 116.63002014 C-24.56238277 114.41354501 -24.29121419 112.20853758 -24 110 C-23.91065186 109.32120789 -23.82130371 108.64241577 -23.72924805 107.9430542 C-23.03520658 102.91673762 -22.16232814 97.92819458 -21.25 92.9375 C-21.03457047 91.73732742 -21.03457047 91.73732742 -20.81478882 90.51290894 C-15.30587349 60.06357098 -7.58023748 29.98940308 0 0 Z " fill="#00984A" transform="translate(607,139)"/>
<path d="M0 0 C2.11775502 1.05887751 4.2335973 2.122081 6.33203125 3.21875 C16.77654339 8.6137106 26.24459569 10.1925123 37.921875 9.8515625 C39.37369665 9.81635414 40.82551959 9.78119876 42.27734375 9.74609375 C44.52559119 9.69036838 46.7712027 9.62408251 49.01806641 9.52685547 C61.48023741 9.01063889 61.48023741 9.01063889 65.05664062 11.33886719 C66.47265026 13.19336297 67.25111576 14.7954958 68 17 C68.42023438 18.13566406 68.84046875 19.27132812 69.2734375 20.44140625 C70.06110162 24.29926653 70.4162726 28.00646722 70.625 31.9375 C70.66367187 32.62134766 70.70234375 33.30519531 70.7421875 34.00976562 C70.83522412 35.67279513 70.91863787 37.33635847 71 39 C74.63 38.34 78.26 37.68 82 37 C82.17015625 36.0821875 82.3403125 35.164375 82.515625 34.21875 C85.70129377 18.08706557 85.70129377 18.08706557 90.78466797 13.32983398 C93.50000379 11.69985446 95.35398196 11.54976933 98.5078125 11.41015625 C99.57773437 11.34763672 100.64765625 11.28511719 101.75 11.22070312 C103.97643294 11.11633908 106.20299631 11.01471648 108.4296875 10.91601562 C118.41555763 10.324747 126.32954537 8.25688383 133.625 1.171875 C135 0 135 0 137 0 C136.34 9.57 135.68 19.14 135 29 C123.75 31.25 123.75 31.25 118.5546875 31.4140625 C117.45898438 31.45273437 116.36328125 31.49140625 115.234375 31.53125 C114.12578125 31.5621875 113.0171875 31.593125 111.875 31.625 C110.72773437 31.66367187 109.58046875 31.70234375 108.3984375 31.7421875 C105.59910883 31.83549846 102.79977064 31.92128645 100 32 C99.67 33.98 99.34 35.96 99 38 C118.305 38.495 118.305 38.495 138 39 C136.68 41.64 135.36 44.28 134 47 C133.62242554 48.11046692 133.24485107 49.22093384 132.85583496 50.36505127 C131.20257391 54.15850723 129.5952372 56.91633979 126 59 C117.517472 61.15637313 108.42913931 60.43461165 99.74578285 60.21672726 C96.2360285 60.14138965 92.72613637 60.13463822 89.21569824 60.12042236 C82.57786618 60.08321511 75.9424234 59.98487783 69.3056407 59.86422849 C61.74608299 59.72980607 54.1864073 59.66404944 46.62595081 59.60388327 C31.08258634 59.47865951 15.54160198 59.26778001 0 59 C-0.02710123 56.4374282 -0.04688771 53.87514635 -0.0625 51.3125 C-0.07087891 50.59126953 -0.07925781 49.87003906 -0.08789062 49.12695312 C-0.10587165 45.18910758 0.21986413 41.90067934 1 38 C25.255 38.495 25.255 38.495 50 39 C49.67 35.7 49.34 32.4 49 29 C44.00796339 27.71659443 39.00715373 27.77495783 33.88671875 27.68359375 C32.91716751 27.66281265 31.94761627 27.64203156 30.94868469 27.62062073 C27.86169293 27.55541059 24.77461848 27.4963732 21.6875 27.4375 C19.59048636 27.39428763 17.49348097 27.35067248 15.39648438 27.30664062 C10.2644063 27.19900306 5.1322625 27.09971738 0 27 C0 18.09 0 9.18 0 0 Z " fill="#30266D" transform="translate(707,813)"/>
<path d="M0 0 C1.01725914 0.00212242 1.01725914 0.00212242 2.05506897 0.00428772 C4.19431203 0.0098288 6.3334455 0.02236972 8.47265625 0.03515625 C9.93424327 0.04017889 11.39583194 0.04474045 12.85742188 0.04882812 C16.41670151 0.0597788 19.97591816 0.0770018 23.53515625 0.09765625 C20.95688389 18.9511786 14.72237319 36.7882034 8.60717773 54.74926758 C3.97932786 68.34413541 0.67210704 81.8779463 -1.46484375 96.09765625 C-0.51867187 96.09185547 0.4275 96.08605469 1.40234375 96.08007812 C11.78937978 96.03684315 22.1541042 96.26444282 32.53515625 96.59765625 C34.10025349 96.64605797 35.66535766 96.69423599 37.23046875 96.7421875 C40.99878238 96.85811367 44.7669908 96.97701335 48.53515625 97.09765625 C47.84937158 102.59059175 46.59224512 106.99965341 44.53515625 112.09765625 C16.45763854 113.01694802 -11.38870956 113.15543445 -39.46484375 112.09765625 C-39.00047026 102.61553129 -36.95425223 93.60811243 -34.77734375 84.41015625 C-34.39050325 82.75214429 -34.0037884 81.094103 -33.6171875 79.43603516 C-29.30694487 61.06608479 -24.68846222 42.76964792 -20.07543945 24.47387695 C-19.77769119 23.29220444 -19.47994293 22.11053192 -19.173172 20.89305115 C-18.61093981 18.66369996 -18.04751768 16.43464841 -17.48271179 14.20594788 C-17.23124893 13.20969894 -16.97978607 12.21345001 -16.72070312 11.18701172 C-16.50136108 10.32091278 -16.28201904 9.45481384 -16.05603027 8.56246948 C-15.46163591 6.08428193 -14.94818813 3.59965981 -14.46484375 1.09765625 C-9.59135552 0.30417 -4.93544191 -0.02047901 0 0 Z " fill="#2F266D" transform="translate(539.46484375,768.90234375)"/>
<path d="M0 0 C0.99924726 17.00115228 1.46701316 34.01825014 1.65195465 51.04622841 C1.69860127 55.24286826 1.76701492 59.4367819 1.88476562 63.63208008 C2.00002446 67.76094135 2.06001534 71.88734117 2.0825882 76.01771355 C2.10017961 77.56835462 2.13659444 79.11891864 2.19359589 80.66861153 C2.45847313 88.2041239 2.28391163 94.30180198 -2.81780624 100.27063656 C-10.27790369 108.12398792 -15.49044964 110.80494674 -26.34619141 111.08691406 C-30.16898076 111.13467987 -33.98944591 111.13636123 -37.8125 111.125 C-39.74706055 111.13080078 -39.74706055 111.13080078 -41.72070312 111.13671875 C-67.48938579 111.11065028 -67.48938579 111.11065028 -74.9375 104.203125 C-81.97648227 96.63621906 -83.31872272 90.76220625 -83.59375 80.59765625 C-82.69213799 75.13459924 -80.57566435 70.91923083 -76.06591797 67.55883789 C-73.81636996 66.25354776 -71.53897787 65.11084694 -69.1875 64 C-67.93803589 63.37508667 -67.93803589 63.37508667 -66.66333008 62.73754883 C-64.11903398 61.4696312 -61.56196852 60.23175389 -59 59 C-56.74584089 57.90428021 -54.49373297 56.80481284 -52.24536133 55.69726562 C-50.91934577 55.04660714 -49.58871888 54.40522287 -48.25268555 53.77539062 C-43.89773993 51.66600912 -40.62004142 49.14386258 -37 46 C-36.67 46 -36.34 46 -36 46 C-35.67 60.19 -35.34 74.38 -35 89 C-28.4 89 -21.8 89 -15 89 C-15.02618408 86.93186035 -15.05236816 84.8637207 -15.0793457 82.73291016 C-15.16252734 75.86791248 -15.21755554 69.00289142 -15.25906086 62.13752174 C-15.28505552 57.97861501 -15.32026517 53.8202285 -15.37719727 49.66162109 C-15.43188295 45.6415337 -15.46149656 41.62194382 -15.47438622 37.60151291 C-15.48356111 36.07460075 -15.50147655 34.54771307 -15.52865028 33.02101517 C-15.7291759 21.27831194 -13.99157736 12.70270826 -5.8125 3.875 C-4.80123047 2.75738281 -4.80123047 2.75738281 -3.76953125 1.6171875 C-2 0 -2 0 0 0 Z M-61 78 C-63.86214633 80.32549389 -64.91655233 81.40394523 -65.4375 85.125 C-65.293125 86.07375 -65.14875 87.0225 -65 88 C-61.91111478 90.05925681 -61.29064073 90.2390374 -57.8125 90.125 C-56.554375 90.08375 -55.29625 90.0425 -54 90 C-52.18698242 85.56906802 -52.18698242 85.56906802 -53 81 C-54.8653245 79.98245132 -54.8653245 79.98245132 -57.0625 79.3125 C-57.79597656 79.06113281 -58.52945313 78.80976562 -59.28515625 78.55078125 C-59.85105469 78.36902344 -60.41695312 78.18726563 -61 78 Z " fill="#2F266D" transform="translate(954,762)"/>
<path d="M0 0 C0.08175526 13.66696359 0.05653257 27.33297519 0 41 C-0.00523719 42.4046834 -0.01046554 43.80936683 -0.01568604 45.21405029 C-0.04924992 53.78126886 -0.10236792 62.3480616 -0.18551159 70.91495132 C-0.22376499 74.8807568 -0.25541353 78.84635066 -0.27072144 82.81231689 C-0.28579222 86.60883356 -0.32009551 90.40472363 -0.36824608 94.20096016 C-0.38297311 95.61364929 -0.39103911 97.02642619 -0.39190102 98.43919182 C-0.40340187 107.91839758 -0.96578721 114.31159055 -7.3125 121.6875 C-16.41702085 129.52162259 -24.58581014 132.68919477 -36.8203125 132.34375 C-44.38074987 131.52640542 -50.35573562 128.69863796 -55.46875 123.04296875 C-63.25275571 112.65767542 -64.33360916 101.48783067 -64.125 88.875 C-64.11597656 87.823125 -64.10695313 86.77125 -64.09765625 85.6875 C-64.07435853 83.12475122 -64.04165112 80.56250488 -64 78 C-61 79 -61 79 -59.3515625 82.02734375 C-58.76660483 83.3265213 -58.19163705 84.63022794 -57.625 85.9375 C-57.00313384 87.31013592 -56.3807366 88.68253136 -55.7578125 90.0546875 C-54.72306885 92.36875057 -53.69857131 94.68668666 -52.6796875 97.0078125 C-49.59037321 103.69791695 -45.97530594 107.81358173 -39.5 111.375 C-34.89636035 112.52590991 -31.27023942 112.47322645 -26.8125 110.8125 C-23.63905629 108.76739183 -22.04220542 107.18093075 -20 104 C-19.61470717 101.17604662 -19.45500728 98.74307382 -19.48583984 95.92431641 C-19.47871475 95.12528397 -19.47158966 94.32625153 -19.46424866 93.50300598 C-19.44499422 90.86893865 -19.45324329 88.23567671 -19.4609375 85.6015625 C-19.45102776 83.76458568 -19.43908546 81.9276188 -19.42520142 80.09066772 C-19.39283907 75.2567523 -19.38244806 70.42306338 -19.37835693 65.58905029 C-19.36960277 57.85943858 -19.33398159 50.1300131 -19.2861824 42.40055466 C-19.27363652 39.70679467 -19.27435219 37.0132717 -19.27645874 34.31948853 C-19.26987437 32.65781475 -19.26286732 30.99614257 -19.25537109 29.33447266 C-19.25949509 28.59138351 -19.26361908 27.84829437 -19.26786804 27.08268738 C-19.22023438 20.88144389 -18.54107707 15.86886172 -14.5390625 11.015625 C-13.58041135 10.08054724 -12.60873061 9.15865643 -11.625 8.25 C-10.90183594 7.54810547 -10.90183594 7.54810547 -10.1640625 6.83203125 C-3.04171831 0 -3.04171831 0 0 0 Z " fill="#2F266D" transform="translate(690,764)"/>
<path d="M0 0 C-0.08470709 7.29388182 -0.17970553 14.58755504 -0.28752708 21.88113403 C-0.33728663 25.26853409 -0.38361671 28.655906 -0.421875 32.04345703 C-0.46770088 35.94581693 -0.52566751 39.84783968 -0.5859375 43.75 C-0.60326431 45.55827271 -0.60326431 45.55827271 -0.62094116 47.40307617 C-0.87739086 62.12404277 -0.87739086 62.12404277 -4.62890625 67.20703125 C-9.45858283 71.21712635 -13.88816222 73.51448387 -20 75 C-18.89936047 71.42292153 -17.58928555 68.06769689 -16 64.6875 C-13.96882443 60.23104017 -12.86366686 55.80698794 -12 51 C-12.96679688 50.90203125 -13.93359375 50.8040625 -14.9296875 50.703125 C-35.42432338 48.34928563 -35.42432338 48.34928563 -42 41 C-45.29309407 34.79420226 -47.24470499 28.97881998 -45.4921875 21.96875 C-43.95687167 17.23927134 -42.0328302 14.06845776 -38 11 C-31.05606145 8.05983829 -23.6764416 6.86998226 -16.28515625 5.62695312 C-11.0122337 4.6590357 -4.77052897 0 0 0 Z M-27.125 23.875 C-30.51005009 27.71139011 -30 28.19103977 -30 34 C-26.04 34 -22.08 34 -18 34 C-17.30173067 27.97070994 -17.30173067 27.97070994 -19.8125 22.9375 C-23.10957064 21.52446973 -24.40002407 21.47060948 -27.125 23.875 Z " fill="#2F266D" transform="translate(1172,820)"/>
<path d="M0 0 C4.95 0 9.9 0 15 0 C16.91612073 4.79030182 17.18498444 6.38304378 16.6875 11.25 C16.58824219 12.30703125 16.48898437 13.3640625 16.38671875 14.453125 C16 17 16 17 15 18 C9.70773666 18.4790891 4.90125618 18.20556528 0 16 C-1.23004981 13.53990037 -1.13314027 11.86827194 -1.125 9.125 C-1.12757813 8.26132812 -1.13015625 7.39765625 -1.1328125 6.5078125 C-1 4 -1 4 0 0 Z " fill="#2F266D" transform="translate(904,780)"/>
<path d="M0 0 C1.53210215 12.79512336 1.53210215 12.79512336 -1 18 C-2.64037395 19.64037395 -4.49476841 19.24911331 -6.75 19.3125 C-10.25645383 19.26233614 -11.87708817 19.06271012 -15.0625 17.4375 C-17.61240881 14.22955021 -17.92856451 12.07182283 -18 8 C-17.26629902 4.998496 -16.86627676 3.52918211 -14.203125 1.90234375 C-11.87326499 0.94809258 -9.93860748 0.60352759 -7.4375 0.375 C-6.29087891 0.26285156 -6.29087891 0.26285156 -5.12109375 0.1484375 C-3.41751205 0.02921815 -1.70774819 0 0 0 Z " fill="#2F266E" transform="translate(896,779)"/>
</svg>
