<?xml version="1.0" encoding="UTF-8"?>
<svg version="1.1" xmlns="http://www.w3.org/2000/svg" width="1200" height="1200">
<path d="M0 0 C2.17081119 1.20949269 2.17081119 1.20949269 5.07446289 2.08813477 C5.07446289 2.74813477 5.07446289 3.40813477 5.07446289 4.08813477 C5.75637695 4.16290039 6.43829102 4.23766602 7.14086914 4.31469727 C10.92830321 5.31324846 13.81411399 7.28763368 17.01196289 9.46313477 C21.25901433 12.31597539 25.43370324 14.8917447 30.07446289 17.08813477 C30.07446289 17.74813477 30.07446289 18.40813477 30.07446289 19.08813477 C30.64068359 19.3569043 31.2069043 19.62567383 31.7902832 19.90258789 C36.0256614 22.10085601 39.88495898 24.90554791 43.82446289 27.58813477 C44.71262695 28.18239258 45.60079102 28.77665039 46.51586914 29.38891602 C47.35504883 29.9599707 48.19422852 30.53102539 49.05883789 31.11938477 C49.829375 31.64081055 50.59991211 32.16223633 51.39379883 32.69946289 C51.94841797 33.15772461 52.50303711 33.61598633 53.07446289 34.08813477 C53.07446289 34.74813477 53.07446289 35.40813477 53.07446289 36.08813477 C53.85563477 36.42844727 53.85563477 36.42844727 54.65258789 36.77563477 C57.95130824 38.56332837 60.8590371 40.80703801 63.82446289 43.08813477 C64.42645508 43.53930664 65.02844727 43.99047852 65.64868164 44.45532227 C67.16352645 45.61635979 68.6241611 46.84741416 70.07446289 48.08813477 C70.07446289 48.74813477 70.07446289 49.40813477 70.07446289 50.08813477 C70.89237305 50.43038086 70.89237305 50.43038086 71.72680664 50.77954102 C74.75179651 52.46568346 77.13054615 54.6692722 79.63696289 57.02563477 C80.18707031 57.53924561 80.73717773 58.05285645 81.30395508 58.58203125 C104.23604337 80.17860376 104.23604337 80.17860376 113.05102539 91.50219727 C114.97998262 93.9673897 116.99330818 96.34082546 119.04150391 98.70727539 C132.74240175 114.57722469 144.29509308 132.14068218 155.07446289 150.08813477 C155.46633789 150.73508301 155.85821289 151.38203125 156.26196289 152.04858398 C162.38085568 162.16626881 167.96229181 172.42766954 173.07446289 183.08813477 C173.56172852 184.08200195 174.04899414 185.07586914 174.55102539 186.09985352 C207.83444663 255.73472085 221.12138607 337.5572065 210.07446289 414.08813477 C209.90285645 415.3032373 209.73125 416.51833984 209.55444336 417.77026367 C207.02824847 435.22335812 203.32347677 452.18855089 198.80761719 469.22314453 C198.14034035 471.83070153 197.54713508 474.43991591 196.98852539 477.07250977 C196.30970102 480.21336556 195.42951548 483.07197042 194.13696289 486.02563477 C192.73575127 489.24218127 191.65117798 492.45455734 190.67211914 495.81860352 C189.19676753 500.82110491 187.40991666 505.63271811 185.44946289 510.46313477 C184.93222656 511.74462402 184.93222656 511.74462402 184.40454102 513.05200195 C168.87039037 551.16226561 148.79126081 587.3317043 122.57055664 619.19750977 C121.02290526 621.0209747 121.02290526 621.0209747 120.07446289 623.08813477 C119.41446289 623.08813477 118.75446289 623.08813477 118.07446289 623.08813477 C117.82696289 623.63985352 117.57946289 624.19157227 117.32446289 624.76000977 C115.83211815 627.53950184 114.03773766 629.86960546 112.07446289 632.33813477 C111.02258789 633.67618164 111.02258789 633.67618164 109.94946289 635.04125977 C109.33071289 635.71672852 108.71196289 636.39219727 108.07446289 637.08813477 C107.41446289 637.08813477 106.75446289 637.08813477 106.07446289 637.08813477 C105.70514648 637.95051758 105.70514648 637.95051758 105.32836914 638.83032227 C103.87653236 641.44453303 102.1715874 643.15149685 100.01196289 645.21313477 C97.15874356 647.86718477 97.15874356 647.86718477 95.07446289 651.08813477 C94.41446289 651.08813477 93.75446289 651.08813477 93.07446289 651.08813477 C92.74446289 652.07813477 92.41446289 653.06813477 92.07446289 654.08813477 C90.47290039 655.70141602 90.47290039 655.70141602 88.44946289 657.40063477 C87.36858398 658.3190918 87.36858398 658.3190918 86.26586914 659.25610352 C85.54270508 659.86067383 84.81954102 660.46524414 84.07446289 661.08813477 C80.81285977 663.84282206 77.59499717 666.56760048 74.57446289 669.58813477 C71.57329159 672.58930607 68.50323301 675.5748549 65.07446289 678.08813477 C64.41446289 678.08813477 63.75446289 678.08813477 63.07446289 678.08813477 C63.07446289 678.74813477 63.07446289 679.40813477 63.07446289 680.08813477 C61.42446289 680.74813477 59.77446289 681.40813477 58.07446289 682.08813477 C58.07446289 682.74813477 58.07446289 683.40813477 58.07446289 684.08813477 C54.30832809 687.36436585 50.12943525 690.17909059 46.07446289 693.08813477 C45.34549805 693.61552246 44.6165332 694.14291016 43.86547852 694.6862793 C31.64458304 703.50482438 19.1172274 711.54473458 6.07446289 719.08813477 C5.37369629 719.49902344 4.67292969 719.90991211 3.95092773 720.33325195 C-6.05991265 726.20092501 -16.35705989 731.24628789 -26.88012695 736.1262207 C-30.17096592 737.67383416 -33.40431703 739.32943686 -36.62475586 741.01782227 C-45.37905852 745.09028225 -54.81494886 747.91948729 -63.92553711 751.08813477 C-64.64563965 751.33998535 -65.36574219 751.59183594 -66.10766602 751.85131836 C-85.01385886 758.43391968 -104.20447542 763.62880843 -123.92553711 767.08813477 C-125.05169434 767.29325684 -126.17785156 767.49837891 -127.33813477 767.7097168 C-161.1006931 773.7637235 -196.16664176 775.91570803 -230.36303711 772.90063477 C-231.11033081 772.83600037 -231.85762451 772.77136597 -232.62756348 772.70477295 C-248.86144162 771.27932791 -264.89064724 768.98667288 -280.92553711 766.08813477 C-282.48570557 765.80631348 -282.48570557 765.80631348 -284.07739258 765.51879883 C-312.33245914 760.25002956 -341.31115951 751.20631491 -366.92553711 738.08813477 C-368.3525019 737.49942094 -369.78890534 736.93245205 -371.23803711 736.40063477 C-379.67312817 733.1195836 -387.77434796 729.00934125 -395.92553711 725.08813477 C-395.92553711 724.42813477 -395.92553711 723.76813477 -395.92553711 723.08813477 C-396.78147461 722.83161133 -397.63741211 722.57508789 -398.51928711 722.31079102 C-413.91563982 716.7843479 -428.39466883 705.38378893 -441.41381836 695.67797852 C-445.27976299 692.80249121 -449.25372473 690.09589291 -453.26538086 687.42797852 C-454.0871582 686.76475586 -454.0871582 686.76475586 -454.92553711 686.08813477 C-454.92553711 685.42813477 -454.92553711 684.76813477 -454.92553711 684.08813477 C-455.71637695 683.74202148 -455.71637695 683.74202148 -456.52319336 683.38891602 C-459.71237389 681.66209143 -462.50654595 679.4922719 -465.36303711 677.27563477 C-466.20318359 676.63658203 -466.20318359 676.63658203 -467.06030273 675.98461914 C-470.61584677 673.24224504 -473.78252629 670.30662098 -476.92553711 667.08813477 C-477.91553711 666.26313477 -478.90553711 665.43813477 -479.92553711 664.58813477 C-482.76781342 662.21957118 -485.34628259 659.73709886 -487.92553711 657.08813477 C-488.82272461 656.25282227 -488.82272461 656.25282227 -489.73803711 655.40063477 C-490.92553711 654.08813477 -490.92553711 654.08813477 -490.92553711 652.08813477 C-491.58553711 652.08813477 -492.24553711 652.08813477 -492.92553711 652.08813477 C-492.92553711 651.42813477 -492.92553711 650.76813477 -492.92553711 650.08813477 C-493.51077148 649.83805664 -494.09600586 649.58797852 -494.69897461 649.33032227 C-497.22086417 647.92337335 -498.67639773 646.40100673 -500.55053711 644.21313477 C-501.14092773 643.53508789 -501.73131836 642.85704102 -502.33959961 642.15844727 C-503.83871798 640.20147008 -504.91122779 638.3276494 -505.92553711 636.08813477 C-506.58553711 636.08813477 -507.24553711 636.08813477 -507.92553711 636.08813477 C-507.92553711 635.42813477 -507.92553711 634.76813477 -507.92553711 634.08813477 C-508.58553711 634.08813477 -509.24553711 634.08813477 -509.92553711 634.08813477 C-511.70288086 632.17407227 -511.70288086 632.17407227 -513.86303711 629.46313477 C-515.06379883 627.96073242 -515.06379883 627.96073242 -516.28881836 626.42797852 C-516.71630371 625.88641113 -517.14378906 625.34484375 -517.58422852 624.78686523 C-518.95572075 623.04990801 -520.33660974 621.3207284 -521.71850586 619.59204102 C-527.03515403 612.91433826 -532.11804149 606.1444589 -536.92553711 599.08813477 C-537.81127331 597.81401366 -538.6980808 596.54063692 -539.58569336 595.26782227 C-544.63195231 588.01312926 -549.48377691 580.73270721 -553.92553711 573.08813477 C-554.62356445 571.96665039 -554.62356445 571.96665039 -555.33569336 570.82250977 C-559.67240211 563.83751754 -563.27592165 556.54423015 -566.89331055 549.17163086 C-567.88912329 547.16163418 -568.90637163 545.1643906 -569.93334961 543.17016602 C-598.76884286 487.00419301 -612.40577597 423.81067224 -612.30053711 360.90063477 C-612.30065796 359.77793182 -612.30077881 358.65522888 -612.30090332 357.49850464 C-612.26074727 331.10780827 -610.08351313 305.14172741 -604.41235352 279.32055664 C-603.92733693 277.09638831 -603.476218 274.86745167 -603.03100586 272.63500977 C-600.49046029 260.20374876 -596.77530278 248.16772518 -592.92553711 236.08813477 C-592.64307129 235.18627441 -592.36060547 234.28441406 -592.06958008 233.35522461 C-588.10295363 220.71812305 -583.34004042 208.6116513 -577.96850586 196.50854492 C-576.90379749 194.0376838 -575.91969084 191.54497595 -574.94506836 189.03735352 C-573.03187435 184.20997939 -570.75866845 179.65805774 -568.30053711 175.08813477 C-567.86668701 174.27489746 -567.43283691 173.46166016 -566.98583984 172.6237793 C-565.63913452 170.10821247 -564.28311339 167.59784836 -562.92553711 165.08813477 C-562.30171143 163.92556152 -562.30171143 163.92556152 -561.6652832 162.73950195 C-553.09648854 146.80120316 -543.47672449 131.88895665 -532.6081543 117.41845703 C-529.83806375 113.72776517 -527.26941634 110.06900901 -524.92553711 106.08813477 C-523.25887044 104.4214681 -521.59220378 102.75480143 -519.92553711 101.08813477 C-516.41380144 96.8808053 -512.9665893 92.64971305 -509.92553711 88.08813477 C-509.26553711 88.08813477 -508.60553711 88.08813477 -507.92553711 88.08813477 C-507.51368164 87.20254883 -507.51368164 87.20254883 -507.09350586 86.29907227 C-504.13703056 80.70253374 -499.46101699 76.59223961 -494.64038086 72.61547852 C-492.90145565 71.06668636 -491.46534042 69.44822064 -489.98803711 67.65063477 C-487.34340817 64.46600306 -484.4659256 61.83546405 -481.31225586 59.16235352 C-479.4817784 57.57154577 -477.70706494 55.95918112 -475.94506836 54.29516602 C-469.86987355 48.55917189 -463.73159659 43.2348298 -456.96459961 38.30688477 C-453.69373141 35.91889873 -450.49706113 33.44890392 -447.30053711 30.96313477 C-425.46743521 14.08813477 -425.46743521 14.08813477 -420.92553711 14.08813477 C-420.92553711 13.42813477 -420.92553711 12.76813477 -420.92553711 12.08813477 C-419.95616211 11.54286133 -418.98678711 10.99758789 -417.98803711 10.43579102 C-417.34906494 10.07622314 -416.71009277 9.71665527 -416.05175781 9.34619141 C-414.61069051 8.53589096 -413.16910481 7.72651187 -411.72705078 6.91796875 C-408.15201714 4.91191539 -404.58389031 2.89674025 -401.03881836 0.83813477 C-318.36764596 -46.93880697 -218.81588239 -61.92723378 0 0 Z " fill="#04592A" transform="translate(810.925537109375,246.911865234375)"/>
<path d="M0 0 C71.36274201 2.16250733 139.48031767 16.67478376 201.92553711 51.91186523 C204.0963483 53.12135792 204.0963483 53.12135792 207 54 C207 54.66 207 55.32 207 56 C207.68191406 56.07476562 208.36382813 56.14953125 209.06640625 56.2265625 C212.85384032 57.22511369 215.7396511 59.19949892 218.9375 61.375 C223.18455144 64.22784062 227.35924035 66.80360994 232 69 C232 69.66 232 70.32 232 71 C232.84933105 71.4031543 232.84933105 71.4031543 233.71582031 71.81445312 C237.95119851 74.01272124 241.81049609 76.81741314 245.75 79.5 C246.63816406 80.09425781 247.52632812 80.68851562 248.44140625 81.30078125 C249.28058594 81.87183594 250.11976563 82.44289063 250.984375 83.03125 C251.75491211 83.55267578 252.52544922 84.07410156 253.31933594 84.61132812 C254.15126465 85.2987207 254.15126465 85.2987207 255 86 C255 86.66 255 87.32 255 88 C255.52078125 88.226875 256.0415625 88.45375 256.578125 88.6875 C259.87684535 90.47519361 262.78457421 92.71890324 265.75 95 C266.35199219 95.45117188 266.95398438 95.90234375 267.57421875 96.3671875 C269.08906356 97.52822502 270.54969821 98.75927939 272 100 C272 100.66 272 101.32 272 102 C272.81791016 102.34224609 272.81791016 102.34224609 273.65234375 102.69140625 C276.67733362 104.37754869 279.05608326 106.58113743 281.5625 108.9375 C282.38766113 109.70791626 282.38766113 109.70791626 283.22949219 110.49389648 C306.16158048 132.090469 306.16158048 132.090469 314.9765625 143.4140625 C316.90551973 145.87925494 318.91884529 148.25269069 320.96704102 150.61914062 C334.66793886 166.48908992 346.22063019 184.05254741 357 202 C357.391875 202.64694824 357.78375 203.29389648 358.1875 203.96044922 C364.30639279 214.07813405 369.88782892 224.33953477 375 235 C375.48726562 235.99386719 375.97453125 236.98773438 376.4765625 238.01171875 C409.75998373 307.64658608 423.04692318 389.46907173 412 466 C411.82839355 467.21510254 411.65678711 468.43020508 411.47998047 469.68212891 C408.95378558 487.13522335 405.24901388 504.10041612 400.7331543 521.13500977 C400.06587746 523.74256677 399.47267219 526.35178115 398.9140625 528.984375 C398.23523813 532.12523079 397.35505259 534.98383565 396.0625 537.9375 C394.66128838 541.1540465 393.57671509 544.36642258 392.59765625 547.73046875 C391.12230464 552.73297014 389.33545377 557.54458335 387.375 562.375 C387.03017578 563.22932617 386.68535156 564.08365234 386.33007812 564.96386719 C370.79592748 603.07413084 350.71679792 639.24356953 324.49609375 671.109375 C322.94844237 672.93283993 322.94844237 672.93283993 322 675 C321.34 675 320.68 675 320 675 C319.7525 675.55171875 319.505 676.1034375 319.25 676.671875 C317.75765526 679.45136707 315.96327477 681.7814707 314 684.25 C313.29875 685.14203125 312.5975 686.0340625 311.875 686.953125 C311.25625 687.62859375 310.6375 688.3040625 310 689 C309.34 689 308.68 689 308 689 C307.63068359 689.86238281 307.63068359 689.86238281 307.25390625 690.7421875 C305.80206947 693.35639827 304.09712451 695.06336208 301.9375 697.125 C299.08428067 699.77905 299.08428067 699.77905 297 703 C296.34 703 295.68 703 295 703 C294.67 703.99 294.34 704.98 294 706 C292.3984375 707.61328125 292.3984375 707.61328125 290.375 709.3125 C289.29412109 710.23095703 289.29412109 710.23095703 288.19140625 711.16796875 C287.46824219 711.77253906 286.74507812 712.37710938 286 713 C282.73839688 715.7546873 279.52053428 718.47946572 276.5 721.5 C273.4988287 724.5011713 270.42877012 727.48672014 267 730 C266.34 730 265.68 730 265 730 C265 730.66 265 731.32 265 732 C263.35 732.66 261.7 733.32 260 734 C260 734.66 260 735.32 260 736 C256.2338652 739.27623109 252.05497236 742.09095583 248 745 C247.27103516 745.5273877 246.54207031 746.05477539 245.79101562 746.59814453 C233.57012015 755.41668961 221.04276451 763.45659981 208 771 C207.2992334 771.41088867 206.5984668 771.82177734 205.87646484 772.24511719 C195.86562446 778.11279024 185.56847722 783.15815313 175.04541016 788.03808594 C171.75457119 789.58569939 168.52122008 791.24130209 165.30078125 792.9296875 C156.54647859 797.00214748 147.11058825 799.83135252 138 803 C136.91984619 803.37777588 136.91984619 803.37777588 135.81787109 803.76318359 C116.91167825 810.34578492 97.72106169 815.54067366 78 819 C76.87384277 819.20512207 75.74768555 819.41024414 74.58740234 819.62158203 C40.25204315 825.77829837 4.81481797 827.75747714 -29.9375 824.5625 C-31.48758046 824.42586677 -33.0377107 824.28979698 -34.58789062 824.15429688 C-36.08858575 824.02132996 -37.58923852 823.88788387 -39.08984375 823.75390625 C-39.76707993 823.6934462 -40.4443161 823.63298615 -41.14207458 823.57069397 C-45.77658879 823.14410739 -50.38500375 822.59619876 -55 822 C-55 821.67 -55 821.34 -55 821 C-46.60303944 820.68112808 -38.4066289 821.3223886 -30.06201172 822.20068359 C-20.02681842 823.21224304 -10.13798696 823.51723872 0 824 C0 756.35 0 688.7 0 619 C8.91 618.34 17.82 617.68 27 617 C34.09007969 615.83834852 41.02305272 614.62651878 48 613 C48.74443359 612.83161621 49.48886719 612.66323242 50.25585938 612.48974609 C76.26412187 606.46160881 101.74113358 594.10046501 123 578 C123.60199219 577.54463867 124.20398438 577.08927734 124.82421875 576.62011719 C141.94500003 563.53643697 156.48881092 548.52757577 169 531 C169.60787354 530.15260254 169.60787354 530.15260254 170.22802734 529.28808594 C172.18650378 526.54842422 174.11457315 523.79043173 176 521 C175.30648437 521.69867187 174.61296875 522.39734375 173.8984375 523.1171875 C139.96800334 557 139.96800334 557 128 557 C128 557.66 128 558.32 128 559 C124.85595863 560.27529753 121.70944782 561.54439329 118.5625 562.8125 C117.24475586 563.34713867 117.24475586 563.34713867 115.90039062 563.89257812 C110.32382199 566.13555223 104.72001946 568.15651865 99 570 C97.96875 570.350625 96.9375 570.70125 95.875 571.0625 C81.68293371 575.6903477 67.76293307 577.51238195 52.89819336 577.39111328 C50.56629794 577.3750262 48.23614068 577.39108086 45.90429688 577.41015625 C38.07315202 577.42268559 30.45030708 576.98466716 22.71484375 575.7265625 C22.04538223 575.61871429 21.37592072 575.51086609 20.68617249 575.39974976 C13.58967252 574.12264061 7.02048594 572.00585313 0 570 C0 463.41 0 356.82 0 247 C17.76089301 242.73738568 32.36729749 239.76450361 50 239.75 C51.10615158 239.74898788 51.10615158 239.74898788 52.23464966 239.74795532 C63.13237104 239.76379869 73.40286117 240.24606579 84 243 C84.71575195 243.17692383 85.43150391 243.35384766 86.16894531 243.53613281 C109.0185405 249.21177229 131.54042513 258.07128341 150 273 C151.21429687 273.93199219 151.21429687 273.93199219 152.453125 274.8828125 C161.85156141 282.18285588 171.44111136 289.96029765 178 300 C170.8247759 285.64955179 160.11180821 273.43577849 149 262 C148.53207031 261.51160645 148.06414062 261.02321289 147.58203125 260.52001953 C133.98399476 246.34587575 118.14153498 234.58054182 101 225 C100.41734375 224.66790527 99.8346875 224.33581055 99.234375 223.99365234 C68.39577601 206.51587637 35.03280018 200.33552001 0 198 C0 132.66 0 67.32 0 0 Z " fill="#E9E9E9" transform="translate(609,195)"/>
<path d="M0 0 C0.78469666 0.00182281 1.56939331 0.00364563 2.37786865 0.00552368 C21.63882614 0.0805004 40.10755011 1.82046691 58.54003906 7.65527344 C60.64247765 8.31800935 62.7526521 8.94735809 64.8671875 9.5703125 C77.05113333 13.19835733 88.35045246 18.08915244 99.75 23.6875 C100.66861816 24.13367676 101.58723633 24.57985352 102.53369141 25.03955078 C109.00029768 28.26531978 114.79958203 32.0479533 120.625 36.3125 C121.57890625 36.97636719 122.5328125 37.64023437 123.515625 38.32421875 C140.62083848 50.4734515 157.28704956 65.27894124 169.625 82.3125 C170.1101709 82.97491699 170.5953418 83.63733398 171.09521484 84.31982422 C172.76177368 86.60145225 174.41473792 88.89226491 176.0625 91.1875 C176.59584961 91.92605225 177.12919922 92.66460449 177.67871094 93.42553711 C178.17532227 94.12815674 178.67193359 94.83077637 179.18359375 95.5546875 C179.85346313 96.49610596 179.85346313 96.49610596 180.53686523 97.45654297 C181.67844822 99.40366297 182.19102737 101.10756528 182.625 103.3125 C179.85593004 100.62487327 177.26664386 97.91609104 174.8125 94.9375 C171.42782678 90.95301127 167.61668778 87.67284941 163.625 84.3125 C162.78453125 83.56097656 161.9440625 82.80945313 161.078125 82.03515625 C141.27565002 64.72166639 116.43151446 53.07000034 90.9375 47.125 C89.86177734 46.86525391 88.78605469 46.60550781 87.67773438 46.33789062 C77.23847928 43.86392141 67.39219368 43.12600084 56.69140625 43.12719727 C54.52583698 43.12502591 52.36079105 43.10686444 50.1953125 43.08789062 C38.19632536 43.03822665 26.60112159 44.22158334 15 47.4375 C11.10567168 48.49958954 7.71092949 49.3125 3.625 49.3125 C3.625 155.9025 3.625 262.4925 3.625 372.3125 C5.935 372.6425 8.245 372.9725 10.625 373.3125 C12.96089016 373.9701519 15.29413521 374.63725322 17.625 375.3125 C29.68821065 378.01567944 41.60848851 378.84853565 53.9375 378.75 C54.74038452 378.74729095 55.54326904 378.74458191 56.3704834 378.74179077 C69.16629917 378.6765643 81.23147195 377.67857563 93.625 374.3125 C94.37040039 374.12526367 95.11580078 373.93802734 95.88378906 373.74511719 C105.24893181 371.39061539 113.74435606 368.13289274 122.35546875 363.765625 C125.51766667 362.3602037 128.20296672 361.70715027 131.625 361.3125 C131.625 360.6525 131.625 359.9925 131.625 359.3125 C132.25664063 358.99539063 132.88828125 358.67828125 133.5390625 358.3515625 C145.65085863 352.0338821 156.13164344 344.15083925 166.00390625 334.7578125 C168.625 332.3125 168.625 332.3125 171.2578125 330.2265625 C173.43608539 328.46525274 175.15791242 326.7145594 176.9375 324.5625 C177.44925781 323.94890625 177.96101563 323.3353125 178.48828125 322.703125 C178.86339844 322.24421875 179.23851562 321.7853125 179.625 321.3125 C179.955 321.9725 180.285 322.6325 180.625 323.3125 C156.07998135 358.15078073 127.64784373 385.32376468 88.625 403.3125 C87.9026416 403.64878418 87.1802832 403.98506836 86.43603516 404.33154297 C55.82931185 418.40838762 24.95132976 421.70707876 -8.375 421.3125 C-9.17599121 421.31056641 -9.97698242 421.30863281 -10.80224609 421.30664062 C-31.28883484 421.21066223 -52.45246843 415.98496155 -71.375 408.3125 C-72.44492187 407.89484375 -73.51484375 407.4771875 -74.6171875 407.046875 C-76.87970881 406.15690817 -79.13167688 405.24951457 -81.375 404.3125 C-81.375 403.6525 -81.375 402.9925 -81.375 402.3125 C-82.18710937 402.24160156 -82.99921875 402.17070313 -83.8359375 402.09765625 C-88.41563106 401.08163152 -91.95737335 399.07406133 -96 396.75 C-97.19858643 396.06901245 -97.19858643 396.06901245 -98.42138672 395.37426758 C-110.40085307 388.5007439 -121.07342562 380.53461464 -131.66894531 371.7175293 C-133.13843355 370.5073254 -134.63519076 369.33037113 -136.13671875 368.16015625 C-138.26912641 366.39989653 -139.9812433 364.618194 -141.75 362.5 C-144.00762732 359.85228588 -146.30719118 357.35149916 -148.8125 354.9375 C-153.08335638 350.71409758 -156.74103074 346.08744327 -160.375 341.3125 C-161.13683594 340.31734375 -161.89867187 339.3221875 -162.68359375 338.296875 C-176.71465522 319.54335751 -188.33923361 298.13946502 -194.71582031 275.55810547 C-195.22132445 273.83602139 -195.75780324 272.12300407 -196.30761719 270.41455078 C-206.56219426 238.3992006 -208.39893649 200.17867224 -200.8125 167.375 C-200.54856445 166.22112793 -200.28462891 165.06725586 -200.01269531 163.87841797 C-186.68519447 107.55624533 -152.66609754 59.83930408 -103.375 29.3125 C-100.50004925 27.56655211 -97.60413212 25.86281349 -94.6875 24.1875 C-94.01605957 23.79675293 -93.34461914 23.40600586 -92.65283203 23.00341797 C-89.2067001 21.07073648 -87.41819003 20.3125 -83.375 20.3125 C-83.375 19.6525 -83.375 18.9925 -83.375 18.3125 C-56.64382852 7.18037155 -29.02916858 -0.14033597 0 0 Z " fill="#CB0127" transform="translate(605.375,392.6875)"/>
<path d="M0 0 C0 105.93 0 211.86 0 321 C-10.14241838 318.74612925 -10.14241838 318.74612925 -14.48828125 316.6796875 C-15.43598389 316.23093262 -16.38368652 315.78217773 -17.36010742 315.31982422 C-18.33439697 314.84303223 -19.30868652 314.36624023 -20.3125 313.875 C-21.32997314 313.3814502 -22.34744629 312.88790039 -23.39575195 312.37939453 C-30.71953634 308.76646047 -37.44287994 304.88645471 -44 300 C-45.10185343 299.21472511 -46.20476749 298.43093685 -47.30859375 297.6484375 C-56.44488596 291.06159196 -56.44488596 291.06159196 -58 287 C-58.66 287 -59.32 287 -60 287 C-60 286.34 -60 285.68 -60 285 C-60.60199219 284.88785156 -61.20398438 284.77570313 -61.82421875 284.66015625 C-65.41459561 283.57079595 -67.54262461 280.70274616 -70 278 C-70.85223145 277.06982056 -70.85223145 277.06982056 -71.72167969 276.12084961 C-82.05165609 264.58475546 -90.39084752 251.44545088 -98 238 C-98.49113281 237.13246094 -98.98226563 236.26492188 -99.48828125 235.37109375 C-102.96283644 228.8415117 -105.23659597 221.9194053 -107.41796875 214.87744141 C-107.95423308 213.14762902 -108.50758176 211.42313756 -109.0625 209.69921875 C-110.14867249 206.15642958 -111.10769745 202.59527551 -112 199 C-112.277229 197.91477051 -112.277229 197.91477051 -112.56005859 196.80761719 C-119.04058878 170.43553583 -117.74657117 142.1454657 -111 116 C-110.81888672 115.28714844 -110.63777344 114.57429687 -110.45117188 113.83984375 C-109.48512564 110.14992597 -108.33207774 106.57285967 -107 103 C-106.66742188 102.08734375 -106.33484375 101.1746875 -105.9921875 100.234375 C-97.02837851 77.29203871 -83.70422903 57.68247721 -66.359375 40.36328125 C-64.97944833 38.98106993 -63.61458377 37.58290573 -62.2890625 36.1484375 C-49.1443928 22.1397989 -20.14738416 0 0 0 Z " fill="#015F2C" transform="translate(609,443)"/>
<path d="M0 0 C3.86478831 0.55211262 5.32459671 2.27477542 8 5 C9.81646872 6.12573606 11.67370548 7.18785229 13.5625 8.1875 C14.98755859 8.95126953 14.98755859 8.95126953 16.44140625 9.73046875 C19.02051179 11.08372245 19.02051179 11.08372245 22 12 C22 12.66 22 13.32 22 14 C23.65 14.33 25.3 14.66 27 15 C27 15.66 27 16.32 27 17 C27.84820312 17.26554687 28.69640625 17.53109375 29.5703125 17.8046875 C33.12740946 19.04440466 36.46593399 20.52482616 39.875 22.125 C41.02742188 22.66382813 42.17984375 23.20265625 43.3671875 23.7578125 C44.23601562 24.16773438 45.10484375 24.57765625 46 25 C46 25.66 46 26.32 46 27 C46.639375 27.2475 47.27875 27.495 47.9375 27.75 C50 29 50 29 50.765625 30.73828125 C51.08728486 33.84229888 50.11815835 35.61559325 48.8125 38.4375 C46.40251043 43.89836278 44.59842345 49.36802883 42.90625 55.0859375 C41.83394307 58.53395893 40.47770294 61.70875254 39 65 C38.31163487 66.99263591 37.63718601 68.99041337 37 71 C36.34 71 35.68 71 35 71 C33.28395391 78.65620565 31.63728368 86.32659713 30 94 C29.34 94 28.68 94 28 94 C27.86464844 95.15242188 27.72929687 96.30484375 27.58984375 97.4921875 C27.0584674 101.73385952 26.35160867 105.92451383 25.5625 110.125 C25.44068359 110.80175781 25.31886719 111.47851562 25.19335938 112.17578125 C24.64099611 115.13507461 24.01377919 117.96023611 23.02734375 120.80688477 C21.0457543 126.96591717 20.33048644 133.42029387 19.4375 139.8125 C19.32572418 140.60537415 19.21394836 141.39824829 19.0987854 142.21514893 C15.63563408 167.6270268 16.05792878 193.40121059 16 219 C13.65408445 219.32768525 11.3077189 219.65127996 8.9609375 219.97265625 C7.65431152 220.15320557 6.34768555 220.33375488 5.00146484 220.51977539 C1.21591989 221.00657899 -2.56228153 221.25119671 -6.375 221.4375 C-18.46097577 222.09305095 -30.51024383 223.66131966 -42.4921875 225.3515625 C-44.3232532 225.60569617 -46.16125697 225.80918704 -48 226 C-51.61661971 222.38338029 -50.17676629 211.48250584 -50.203125 206.5859375 C-50.21018463 205.70635376 -50.21724426 204.82677002 -50.22451782 203.92053223 C-50.4282062 170.958471 -47.45855636 139.32324669 -41 107 C-40.81244141 106.05721191 -40.62488281 105.11442383 -40.43164062 104.14306641 C-35.20976356 78.86898134 -25.90196019 53.33273468 -15 30 C-14.61714844 29.16710449 -14.23429687 28.33420898 -13.83984375 27.47607422 C-9.54561163 18.13824522 -5.11271111 8.92218213 0 0 Z " fill="#62826C" transform="translate(256,414)"/>
<path d="M0 0 C0.66 0 1.32 0 2 0 C2.33 24.42 2.66 48.84 3 74 C18.97261752 79.08859706 18.97261752 79.08859706 35 84 C36.86858976 84.69672845 38.73691754 85.3943837 40.59765625 86.11181641 C46.50693769 88.29656904 52.51980844 90.20650888 58.5 92.1875 C59.90890078 92.65545865 61.31775535 93.12355645 62.7265625 93.59179688 C66.15051015 94.72947008 69.57508011 95.86525656 73 97 C72 99 72 99 68.2722168 100.25292969 C66.60379113 100.7320143 64.93346017 101.20449197 63.26171875 101.671875 C55.9071263 103.80106364 48.63018854 106.07378805 41.39453125 108.578125 C40.52287323 108.87908081 39.65121521 109.18003662 38.75314331 109.4901123 C35.19942636 110.72066289 31.64824387 111.95841775 28.09741211 113.19726562 C25.44786298 114.12001081 22.79629584 115.03676978 20.14453125 115.953125 C19.35689896 116.23021301 18.56926666 116.50730103 17.75776672 116.79278564 C17.00214951 117.05355896 16.24653229 117.31433228 15.46801758 117.58300781 C14.81996658 117.80917786 14.17191559 118.0353479 13.50422668 118.26837158 C9.7210184 119.37366397 5.8475068 120.14499849 2 121 C2 145.42 2 169.84 2 195 C-3.62358277 189.37641723 -3.62358277 189.37641723 -5.875 186.20703125 C-6.37862061 185.50352539 -6.88224121 184.80001953 -7.40112305 184.07519531 C-7.92875244 183.32850586 -8.45638184 182.58181641 -9 181.8125 C-10.15220307 180.19911827 -11.30455098 178.58583998 -12.45703125 176.97265625 C-13.04307129 176.14910645 -13.62911133 175.32555664 -14.23291016 174.47705078 C-17.03161008 170.55392155 -19.86109645 166.65318882 -22.6875 162.75 C-26.70032514 157.19666064 -30.70287954 151.63611563 -34.6875 146.0625 C-35.09766357 145.48918945 -35.50782715 144.91587891 -35.93041992 144.32519531 C-37.65760475 141.90529324 -39.35060122 139.47409818 -41 137 C-44.95353532 137.58373618 -48.59882333 138.4157962 -52.37890625 139.70703125 C-53.87345337 140.21266602 -53.87345337 140.21266602 -55.39819336 140.72851562 C-56.44241455 141.08623047 -57.48663574 141.44394531 -58.5625 141.8125 C-60.74182623 142.5492466 -62.92151018 143.28493595 -65.1015625 144.01953125 C-66.13571289 144.36838379 -67.16986328 144.71723633 -68.23535156 145.07666016 C-72.30429082 146.43560826 -76.40157707 147.6868753 -80.50756836 148.92797852 C-83.75963177 149.92621762 -86.99626988 150.96114272 -90.23046875 152.015625 C-91.36105713 152.38171875 -92.49164551 152.7478125 -93.65649414 153.125 C-95.94197551 153.86628938 -98.2263506 154.61099958 -100.50952148 155.359375 C-101.56083252 155.6996875 -102.61214355 156.04 -103.6953125 156.390625 C-104.64422363 156.70032227 -105.59313477 157.01001953 -106.57080078 157.32910156 C-109 158 -109 158 -112 158 C-110.19734096 153.99185308 -107.68201102 150.47227813 -105.1875 146.875 C-104.70539062 146.17705322 -104.22328125 145.47910645 -103.7265625 144.76000977 C-95.56849044 133.00148423 -87.11539636 121.44776824 -78.6015625 109.94506836 C-77.39116139 108.3039537 -76.19524212 106.65218777 -75 105 C-74.21753906 103.97390625 -73.43507813 102.9478125 -72.62890625 101.890625 C-70.83199062 99.20889186 -70.83199062 99.20889186 -70.890625 96.63671875 C-72.59049481 92.59653523 -75.12627121 89.30377631 -77.75 85.8125 C-78.94293493 84.19417742 -80.13563686 82.57568308 -81.328125 80.95703125 C-81.93978516 80.13283691 -82.55144531 79.30864258 -83.18164062 78.45947266 C-85.98793017 74.66374751 -88.74309413 70.83166048 -91.5 67 C-94.8772909 62.31437058 -98.26332772 57.63561359 -101.671875 52.97265625 C-102.5700293 51.73999023 -102.5700293 51.73999023 -103.48632812 50.48242188 C-104.63815061 48.90201428 -105.79297057 47.32378573 -106.95117188 45.74804688 C-107.46744141 45.03841797 -107.98371094 44.32878906 -108.515625 43.59765625 C-108.97227539 42.97383057 -109.42892578 42.35000488 -109.89941406 41.70727539 C-111 40 -111 40 -112 37 C-108.67169833 37.62534861 -105.45926143 38.40117401 -102.21875 39.3828125 C-100.84783203 39.79781006 -100.84783203 39.79781006 -99.44921875 40.22119141 C-97.98935547 40.66857666 -97.98935547 40.66857666 -96.5 41.125 C-95.48550781 41.4348584 -94.47101562 41.7447168 -93.42578125 42.06396484 C-81.74378574 45.65744824 -70.15495482 49.52952059 -58.6015625 53.515625 C-57.58642578 53.86246338 -57.58642578 53.86246338 -56.55078125 54.21630859 C-54.77426927 54.82394416 -53.00029266 55.43897887 -51.2265625 56.0546875 C-47.82369294 57.05165413 -44.51718703 57.58149927 -41 58 C-40.35675781 57.05382812 -39.71351563 56.10765625 -39.05078125 55.1328125 C-32.42209446 45.41754229 -25.61110813 35.84852647 -18.69677734 26.33496094 C-15.77206605 22.31022154 -12.85414368 18.28058772 -9.9375 14.25 C-9.1333667 13.14229248 -9.1333667 13.14229248 -8.31298828 12.01220703 C-6.04529007 8.87925037 -3.82553698 5.7508467 -1.75390625 2.484375 C-1.17511719 1.66453125 -0.59632813 0.8446875 0 0 Z " fill="#CB0227" transform="translate(723,506)"/>
<path d="M0 0 C0 64.68 0 129.36 0 196 C-0.33 196 -0.66 196 -1 196 C-1 137.59 -1 79.18 -1 19 C-49.52470055 22.46605004 -95.87613972 28.65264363 -141.11010742 47.29492188 C-143.09228003 48.03442769 -144.90308975 48.68874201 -147 49 C-149 47 -149 47 -149.125 43.875 C-149.08375 42.92625 -149.0425 41.9775 -149 41 C-143.32147216 37.99372056 -137.55487125 35.59777454 -131.5390625 33.34375 C-128.75106634 32.28517309 -125.9942863 31.18258533 -123.234375 30.0546875 C-84.71323477 14.62309124 -42.18741167 9.66209052 -1 10 C-1 7.03 -1 4.06 -1 1 C-20.09701782 2.06733282 -39.02057729 3.55940422 -58 6 C-55.03 6.495 -55.03 6.495 -52 7 C-52 7.33 -52 7.66 -52 8 C-52.75506836 8.10546143 -53.51013672 8.21092285 -54.28808594 8.31958008 C-57.77635348 8.81063393 -61.26314545 9.31151515 -64.75 9.8125 C-65.93722656 9.97814453 -67.12445312 10.14378906 -68.34765625 10.31445312 C-74.11293513 11.14931591 -79.71360866 12.1175952 -85.34375 13.625 C-90.26446025 14.91826359 -94.68181382 15.37977555 -99.75 15.1875 C-100.45898438 15.17396484 -101.16796875 15.16042969 -101.8984375 15.14648438 C-103.59930981 15.11200723 -105.29977605 15.0582564 -107 15 C-103.98236143 12.98824095 -102.06881387 12.39353657 -98.58203125 11.59765625 C-97.49083984 11.34693359 -96.39964844 11.09621094 -95.27539062 10.83789062 C-94.13263672 10.58201172 -92.98988281 10.32613281 -91.8125 10.0625 C-90.72001953 9.81048828 -89.62753906 9.55847656 -88.50195312 9.29882812 C-74.52652646 6.12000798 -60.53184906 3.61179725 -46.3125 1.8125 C-45.05373047 1.63525391 -43.79496094 1.45800781 -42.49804688 1.27539062 C-28.11625968 -0.53897025 -14.8676162 0 0 0 Z " fill="#36724A" transform="translate(609,196)"/>
<path d="M0 0 C0.66 0 1.32 0 2 0 C-4.3341744 25.67908541 -23.90187606 49.93306467 -40.50390625 70.109375 C-42.05155763 71.93283993 -42.05155763 71.93283993 -43 74 C-43.66 74 -44.32 74 -45 74 C-45.2475 74.55171875 -45.495 75.1034375 -45.75 75.671875 C-47.24234474 78.45136707 -49.03672523 80.7814707 -51 83.25 C-51.70125 84.14203125 -52.4025 85.0340625 -53.125 85.953125 C-53.74375 86.62859375 -54.3625 87.3040625 -55 88 C-55.66 88 -56.32 88 -57 88 C-57.24621094 88.57492187 -57.49242187 89.14984375 -57.74609375 89.7421875 C-59.19793053 92.35639827 -60.90287549 94.06336208 -63.0625 96.125 C-65.91571933 98.77905 -65.91571933 98.77905 -68 102 C-68.66 102 -69.32 102 -70 102 C-70.33 102.99 -70.66 103.98 -71 105 C-72.6015625 106.61328125 -72.6015625 106.61328125 -74.625 108.3125 C-75.70587891 109.23095703 -75.70587891 109.23095703 -76.80859375 110.16796875 C-77.53175781 110.77253906 -78.25492188 111.37710938 -79 112 C-82.26160312 114.7546873 -85.47946572 117.47946572 -88.5 120.5 C-91.5011713 123.5011713 -94.57122988 126.48672014 -98 129 C-98.66 129 -99.32 129 -100 129 C-100 129.66 -100 130.32 -100 131 C-101.65 131.66 -103.3 132.32 -105 133 C-105 133.66 -105 134.32 -105 135 C-108.7661348 138.27623109 -112.94502764 141.09095583 -117 144 C-117.72896484 144.5273877 -118.45792969 145.05477539 -119.20898438 145.59814453 C-131.42987985 154.41668961 -143.95723549 162.45659981 -157 170 C-157.7007666 170.41088867 -158.4015332 170.82177734 -159.12353516 171.24511719 C-169.13437554 177.11279024 -179.43152278 182.15815313 -189.95458984 187.03808594 C-193.24542881 188.58569939 -196.47877992 190.24130209 -199.69921875 191.9296875 C-208.45352141 196.00214748 -217.88941175 198.83135252 -227 202 C-227.72010254 202.25185059 -228.44020508 202.50370117 -229.18212891 202.76318359 C-248.08832175 209.34578492 -267.27893831 214.54067366 -287 218 C-288.12615723 218.20512207 -289.25231445 218.41024414 -290.41259766 218.62158203 C-324.74795685 224.77829837 -360.18518203 226.75747714 -394.9375 223.5625 C-396.48758046 223.42586677 -398.0377107 223.28979698 -399.58789062 223.15429688 C-401.08858575 223.02132996 -402.58923852 222.88788387 -404.08984375 222.75390625 C-404.76707993 222.6934462 -405.4443161 222.63298615 -406.14207458 222.57069397 C-410.77658879 222.14410739 -415.38500375 221.59619876 -420 221 C-420 220.67 -420 220.34 -420 220 C-411.48967049 219.67682293 -403.20158034 220.38510826 -394.74121094 221.21386719 C-384.83559939 222.16095016 -374.94215574 222.59141826 -365 223 C-365 210.13 -365 197.26 -365 184 C-364.67 184 -364.34 184 -364 184 C-363.83129235 188.4288628 -363.67085885 192.857928 -363.51782227 197.28735352 C-363.4647137 198.79166567 -363.40941226 200.29590217 -363.35180664 201.80004883 C-363.26901757 203.97200205 -363.19432662 206.14411227 -363.12109375 208.31640625 C-363.0739624 209.62037354 -363.02683105 210.92434082 -362.97827148 212.26782227 C-362.99995061 215.99151659 -363.38454281 219.33834054 -364 223 C-362.99324219 222.93941406 -361.98648438 222.87882813 -360.94921875 222.81640625 C-356.29981788 222.53837085 -351.64998762 222.26802637 -347 222 C-346.17209961 221.95198242 -345.34419922 221.90396484 -344.49121094 221.85449219 C-335.65364926 221.34682452 -326.856153 220.85481716 -318 221 C-318 220.34 -318 219.68 -318 219 C-316.783125 219.04125 -315.56625 219.0825 -314.3125 219.125 C-307.3817715 219.125 -299.82795082 218.5584822 -293.37109375 215.9296875 C-290.92499781 214.97059222 -289.404674 214.83955596 -286.8125 215 C-285.554375 215 -284.29625 215 -283 215 C-282.34 214.34 -281.68 213.68 -281 213 C-279.19995117 212.42163086 -279.19995117 212.42163086 -277.04296875 211.96484375 C-276.25986328 211.79533203 -275.47675781 211.62582031 -274.66992188 211.45117188 C-273.85072266 211.28166016 -273.03152344 211.11214844 -272.1875 210.9375 C-271.37990234 210.76412109 -270.57230469 210.59074219 -269.74023438 210.41210938 C-266.52069094 209.7239023 -263.29983181 209.05749105 -260.06640625 208.4375 C-257.92751581 208.05125216 -257.92751581 208.05125216 -255.75 207.0625 C-253.3468255 206.13400076 -251.19786074 205.57921233 -248.6875 205.0625 C-244.25125732 204.11815131 -240.19570598 202.70137802 -236 201 C-235.10152344 200.64292969 -234.20304688 200.28585937 -233.27734375 199.91796875 C-230.84904472 198.9514306 -228.42355444 197.97836112 -226 197 C-226 196.34 -226 195.68 -226 195 C-219.38239489 192.72795558 -212.82026757 190.5739079 -206 189 C-206 188.34 -206 187.68 -206 187 C-204.80375 186.814375 -203.6075 186.62875 -202.375 186.4375 C-192.40178909 184.22645796 -183.25826743 178.17493302 -174.3984375 173.27734375 C-171.33039468 171.64338609 -168.21342239 170.32317392 -165 169 C-163.9275 168.443125 -162.855 167.88625 -161.75 167.3125 C-159 166 -159 166 -156 166 C-154.5301228 164.55872658 -154.5301228 164.55872658 -153.1875 162.6875 C-150.43864757 159.30898433 -148.00639142 157.79878798 -144 156 C-142.22775899 154.81062937 -140.51733888 153.55973557 -138.80859375 152.28125 C-137 151 -137 151 -134.65625 149.625 C-130.54957471 147.112681 -126.83841193 144.10070601 -123.03515625 141.15625 C-120.11884561 139.08443086 -117.19833892 137.58120126 -114 136 C-112.31288577 134.3540349 -110.6454378 132.68762851 -109 131 C-107.33333333 130 -105.66666667 129 -104 128 C-103.113125 127.113125 -102.22625 126.22625 -101.3125 125.3125 C-100.549375 124.549375 -99.78625 123.78625 -99 123 C-98.34 123 -97.68 123 -97 123 C-97 122.34 -97 121.68 -97 121 C-95.69417053 119.96434215 -94.35622245 118.96873032 -93 118 C-92.2575 117.2265625 -92.2575 117.2265625 -91.5 116.4375 C-90 115 -90 115 -88.125 114.1875 C-85.61867985 112.78690933 -84.25387237 110.94741038 -82.48828125 108.72265625 C-78.69262648 104.32926057 -74.30459664 100.41010627 -69 98 C-69 97.01 -69 96.02 -69 95 C-67.38363648 93.2321024 -65.74753024 91.63102823 -64 90 C-62.57776263 88.60984317 -61.16135624 87.21370259 -59.75 85.8125 C-59.06421875 85.13832031 -58.3784375 84.46414063 -57.671875 83.76953125 C-55.92550889 82.09201005 -55.92550889 82.09201005 -55 80 C-54.34 80 -53.68 80 -53 80 C-52.938125 79.443125 -52.87625 78.88625 -52.8125 78.3125 C-51.65823021 75.02727058 -49.50611114 73.392197 -47 71 C-43.63798822 67.25580893 -43.63798822 67.25580893 -41 63 C-40.34 63 -39.68 63 -39 63 C-38.90976562 62.43539062 -38.81953125 61.87078125 -38.7265625 61.2890625 C-37.80582624 58.38824827 -36.33555495 56.69890104 -34.375 54.375 C-27.56530935 46.06960943 -21.94903483 37.53550301 -17 28 C-16.34 28 -15.68 28 -15 28 C-14.34 26.02 -13.68 24.04 -13 22 C-12.34 22 -11.68 22 -11 22 C-10.690625 20.824375 -10.690625 20.824375 -10.375 19.625 C-8.82709596 15.54416208 -6.75221134 12.1163543 -4.46484375 8.4140625 C-2.8008299 5.67176767 -1.37208466 2.89662317 0 0 Z " fill="#959795" transform="translate(974,796)"/>
<path d="M0 0 C0.495 1.485 0.495 1.485 1 3 C0.34 3.99 -0.32 4.98 -1 6 C-1.33 6.825 -1.66 7.65 -2 8.5 C-3 11 -3 11 -5 14 C-5.33 14.99 -5.66 15.98 -6 17 C-7 20 -7 20 -9 23 C-9.144375 23.804375 -9.28875 24.60875 -9.4375 25.4375 C-10 28 -10 28 -11.5 29.8125 C-13.13701211 32.19980933 -13.25618451 33.30588336 -13.5 36.125 C-13.665 37.40375 -13.83 38.6825 -14 40 C-14.99 40.66 -15.98 41.32 -17 42 C-17 43.32 -17 44.64 -17 46 C-17.7734375 47.0209375 -17.7734375 47.0209375 -18.5625 48.0625 C-19.036875 48.701875 -19.51125 49.34125 -20 50 C-19.67 50.99 -19.34 51.98 -19 53 C-19.8581745 57.77914419 -21.06179516 62.48443834 -23.625 66.625 C-25.39811894 69.68765998 -25.40887941 72.3142992 -25.69140625 75.796875 C-26.12754614 78.91058257 -27.48394452 81.27110013 -29 84 C-29.350625 85.0725 -29.70125 86.145 -30.0625 87.25 C-31 90 -31 90 -33 92 C-32.62875 92.53625 -32.2575 93.0725 -31.875 93.625 C-30.63501317 96.99067855 -31.60155122 98.78356782 -33 102 C-33.99 102.99 -33.99 102.99 -35 104 C-35.25288404 107.20319784 -34.91026797 109.92784561 -34 113 C-35.485 113.99 -35.485 113.99 -37 115 C-37.16666667 117.5 -37.16666667 117.5 -37 120 C-37.495 120.99 -37.495 120.99 -38 122 C-37.34 122.33 -36.68 122.66 -36 123 C-36.59927826 126.35595828 -37.84622436 128.37801226 -40 131 C-39.01 130.67 -38.02 130.34 -37 130 C-37.52036123 133.85067311 -38.31327701 135.31327701 -41 138 C-41 139.32 -41 140.64 -41 142 C-39.02 140.02 -39.02 140.02 -37 138 C-38.2125738 141.72433382 -39.50859979 145.37802806 -41 149 C-40.34 149.33 -39.68 149.66 -39 150 C-38.74724827 154.54953119 -38.74724827 154.54953119 -39.96875 156.7265625 C-41.3886474 159.85679087 -41.43221099 162.70478018 -41.625 166.125 C-41.69976562 167.36507812 -41.77453125 168.60515625 -41.8515625 169.8828125 C-41.93272989 171.58732769 -42 173.29355335 -42 175 C-41.01 174.01 -41.01 174.01 -40 173 C-39.63558555 186.46308946 -39.63558555 186.46308946 -42 193 C-42.34135927 194.33130115 -42.67925956 195.66358148 -43 197 C-43.66 197 -44.32 197 -45 197 C-45.07758193 190.03392887 -45.12922297 183.06797322 -45.16479492 176.1015625 C-45.17966102 173.74344727 -45.19995979 171.38535852 -45.22631836 169.02734375 C-45.40330913 152.75807446 -44.4761741 137.08232416 -42 121 C-41.89041962 120.26281738 -41.78083923 119.52563477 -41.66793823 118.76611328 C-36.34893824 83.02534815 -26.49298704 47.73397743 -11 15 C-10.6606543 14.27586914 -10.32130859 13.55173828 -9.97167969 12.80566406 C-3.92796683 0 -3.92796683 0 0 0 Z " fill="#92A497" transform="translate(252,429)"/>
<path d="M0 0 C-2.29070942 4.96749346 -5.52907877 6.6505017 -10.3125 8.8125 C-11.77871207 9.51407459 -13.243537 10.21855475 -14.70703125 10.92578125 C-15.43744629 11.27592285 -16.16786133 11.62606445 -16.92041016 11.98681641 C-35.38219686 20.98146478 -52.9026222 33.3060678 -69 46 C-70.83497884 47.44574091 -72.66997106 48.89146374 -74.50537109 50.33666992 C-75.70883603 51.28664975 -76.90988633 52.2397007 -78.10791016 53.1965332 C-81.62977145 55.99409496 -85.22495708 58.55363533 -89 61 C-87.79618552 58.50638429 -86.54571278 56.31856917 -85 54 C-86.43952597 55.10152406 -87.87654071 56.2063304 -89.3125 57.3125 C-90.11300781 57.92738281 -90.91351563 58.54226563 -91.73828125 59.17578125 C-93.62701374 60.69916307 -95.33077636 62.24434407 -97 64 C-97.66 63.67 -98.32 63.34 -99 63 C-93.84931737 57.44029257 -88.32707925 52.8298625 -82.21484375 48.359375 C-78.88965476 45.91901759 -75.63077887 43.40636567 -72.375 40.875 C-50.54133122 24 -50.54133122 24 -46 24 C-46 23.34 -46 22.68 -46 22 C-45.030625 21.45472656 -44.06125 20.90945313 -43.0625 20.34765625 C-42.4226416 19.98768555 -41.7827832 19.62771484 -41.12353516 19.25683594 C-39.69109127 18.45118918 -38.25847001 17.64585773 -36.82568359 16.84082031 C-33.12183495 14.75917179 -29.42070663 12.67304751 -25.7265625 10.57421875 C-21.82913783 8.36203021 -17.92037318 6.1712503 -14 4 C-12.47246094 3.15308594 -12.47246094 3.15308594 -10.9140625 2.2890625 C-10.03492188 1.82242188 -9.15578125 1.35578125 -8.25 0.875 C-7.51265625 0.48054687 -6.7753125 0.08609375 -6.015625 -0.3203125 C-3.60907143 -1.13182475 -2.35977361 -0.83973926 0 0 Z " fill="#426F52" transform="translate(436,237)"/>
<path d="M0 0 C0 2.97 0 5.94 0 9 C-1.00562988 9.04487549 -2.01125977 9.08975098 -3.04736328 9.13598633 C-7.74052661 9.34922542 -12.43288846 9.57730266 -17.125 9.8125 C-18.38836182 9.87577988 -18.38836182 9.87577988 -19.67724609 9.94033813 C-30.74167732 10.50887406 -41.67083578 11.30189926 -52.61376953 13.12231445 C-56.70529249 13.79000211 -59.9334554 14.22160311 -64 13 C-64.33 12.01 -64.66 11.02 -65 10 C-58.07 8.515 -58.07 8.515 -51 7 C-55.455 6.01 -55.455 6.01 -60 5 C-60 4.67 -60 4.34 -60 4 C-17.77270285 -0.77553612 -17.77270285 -0.77553612 0 0 Z " fill="#0C6130" transform="translate(608,197)"/>
<path d="M0 0 C0.66 0 1.32 0 2 0 C-4.3341744 25.67908541 -23.90187606 49.93306467 -40.50390625 70.109375 C-42.05155763 71.93283993 -42.05155763 71.93283993 -43 74 C-43.66 74 -44.32 74 -45 74 C-45.37125 74.82757812 -45.37125 74.82757812 -45.75 75.671875 C-47.24234474 78.45136707 -49.03672523 80.7814707 -51 83.25 C-52.051875 84.58804688 -52.051875 84.58804688 -53.125 85.953125 C-53.74375 86.62859375 -54.3625 87.3040625 -55 88 C-55.66 88 -56.32 88 -57 88 C-57.24621094 88.57492187 -57.49242187 89.14984375 -57.74609375 89.7421875 C-59.19793053 92.35639827 -60.90287549 94.06336208 -63.0625 96.125 C-65.91571933 98.77905 -65.91571933 98.77905 -68 102 C-68.66 102 -69.32 102 -70 102 C-70.33 102.99 -70.66 103.98 -71 105 C-72.84765625 106.82421875 -72.84765625 106.82421875 -75.0625 108.6875 C-76.16271484 109.62142578 -76.16271484 109.62142578 -77.28515625 110.57421875 C-77.85105469 111.04472656 -78.41695312 111.51523437 -79 112 C-79 107.53909782 -78.71675467 105.81361341 -75.6875 102.375 C-73.45019121 100.3978434 -71.73131467 99.11275783 -69 98 C-69 97.01 -69 96.02 -69 95 C-67.38363648 93.2321024 -65.74753024 91.63102823 -64 90 C-62.57776263 88.60984317 -61.16135624 87.21370259 -59.75 85.8125 C-59.06421875 85.13832031 -58.3784375 84.46414063 -57.671875 83.76953125 C-55.92550889 82.09201005 -55.92550889 82.09201005 -55 80 C-54.34 80 -53.68 80 -53 80 C-52.938125 79.443125 -52.87625 78.88625 -52.8125 78.3125 C-51.65823021 75.02727058 -49.50611114 73.392197 -47 71 C-43.63798822 67.25580893 -43.63798822 67.25580893 -41 63 C-40.34 63 -39.68 63 -39 63 C-38.86464844 62.15308594 -38.86464844 62.15308594 -38.7265625 61.2890625 C-37.80582624 58.38824827 -36.33555495 56.69890104 -34.375 54.375 C-27.56530935 46.06960943 -21.94903483 37.53550301 -17 28 C-16.34 28 -15.68 28 -15 28 C-14.34 26.02 -13.68 24.04 -13 22 C-12.34 22 -11.68 22 -11 22 C-10.79375 21.21625 -10.5875 20.4325 -10.375 19.625 C-8.82709596 15.54416208 -6.75221134 12.1163543 -4.46484375 8.4140625 C-2.8008299 5.67176767 -1.37208466 2.89662317 0 0 Z " fill="#BDBDBC" transform="translate(974,796)"/>
<path d="M0 0 C0.33 0 0.66 0 1 0 C1.26114632 6.67901502 0.29576689 12.72016948 -1.0625 19.25 C-1.28220459 20.3239502 -1.50190918 21.39790039 -1.72827148 22.50439453 C-3.50401988 31.00231337 -5.48245378 39.44679002 -7.5625 47.875 C-7.84295166 49.02000977 -8.12340332 50.16501953 -8.41235352 51.34472656 C-9.96782101 57.50883621 -11.79531248 63.43984201 -14.04516602 69.38476562 C-14.97675569 71.93633519 -15.76861105 74.49283388 -16.5234375 77.1015625 C-17.95217682 81.98004385 -19.71418636 86.66689304 -21.625 91.375 C-21.96982422 92.22932617 -22.31464844 93.08365234 -22.66992188 93.96386719 C-28.78285542 108.96085764 -35.61434423 123.59092771 -43 138 C-43.33 138 -43.66 138 -44 138 C-44.08226668 134.95613276 -43.97608217 132.92824652 -43 130 C-42.71769531 129.08476563 -42.43539062 128.16953125 -42.14453125 127.2265625 C-40.91579282 123.76261048 -39.37863354 120.63727534 -37.6875 117.375 C-32.72077356 107.62196791 -28.79813529 97.61234108 -25.1796875 87.28515625 C-24.21067067 84.586669 -23.17411057 81.95372347 -22.0625 79.3125 C-16.13916785 64.69524487 -11.53199647 48.87259275 -8.48828125 33.3984375 C-8 31 -8 31 -7.03515625 27.76171875 C-5.85412487 23.46989527 -5.12196677 19.20540048 -4.4375 14.8125 C-4.18768161 13.23544134 -3.93642865 11.65860911 -3.68359375 10.08203125 C-3.57587646 9.39343018 -3.46815918 8.7048291 -3.35717773 7.99536133 C-2.99422773 5.96775339 -2.52204602 3.99202505 -2 2 C-1.34 2 -0.68 2 0 2 C0 1.34 0 0.68 0 0 Z " fill="#D8D9D9" transform="translate(1018,666)"/>
<path d="M0 0 C0 64.68 0 129.36 0 196 C-0.33 196 -0.66 196 -1 196 C-1 131.65 -1 67.3 -1 1 C-20.15732715 2.23595659 -39.00174162 3.55698211 -58 6 C-56.02 6.33 -54.04 6.66 -52 7 C-52 7.33 -52 7.66 -52 8 C-53.13260254 8.15819214 -53.13260254 8.15819214 -54.28808594 8.31958008 C-57.77635348 8.81063393 -61.26314545 9.31151515 -64.75 9.8125 C-65.93722656 9.97814453 -67.12445312 10.14378906 -68.34765625 10.31445312 C-74.11293513 11.14931591 -79.71360866 12.1175952 -85.34375 13.625 C-90.26446025 14.91826359 -94.68181382 15.37977555 -99.75 15.1875 C-100.45898438 15.17396484 -101.16796875 15.16042969 -101.8984375 15.14648438 C-103.59930981 15.11200723 -105.29977605 15.0582564 -107 15 C-103.98236143 12.98824095 -102.06881387 12.39353657 -98.58203125 11.59765625 C-97.49083984 11.34693359 -96.39964844 11.09621094 -95.27539062 10.83789062 C-94.13263672 10.58201172 -92.98988281 10.32613281 -91.8125 10.0625 C-90.1737793 9.68448242 -90.1737793 9.68448242 -88.50195312 9.29882812 C-74.52652646 6.12000798 -60.53184906 3.61179725 -46.3125 1.8125 C-45.05373047 1.63525391 -43.79496094 1.45800781 -42.49804688 1.27539062 C-28.11625968 -0.53897025 -14.8676162 0 0 0 Z " fill="#548966" transform="translate(609,196)"/>
<path d="M0 0 C1.32 0.33 2.64 0.66 4 1 C-0.26942853 7.29531423 -5.18895716 12.12454545 -11 17 C-11.91072266 17.79857422 -11.91072266 17.79857422 -12.83984375 18.61328125 C-16.74172535 22 -16.74172535 22 -19 22 C-19 22.66 -19 23.32 -19 24 C-20.65 24.66 -22.3 25.32 -24 26 C-24 26.66 -24 27.32 -24 28 C-27.7661348 31.27623109 -31.94502764 34.09095583 -36 37 C-37.09344727 37.79108154 -37.09344727 37.79108154 -38.20898438 38.59814453 C-49.80643778 46.96681653 -61.66397833 54.68435295 -74.04248047 61.84912109 C-75.70001974 62.82363345 -77.32490638 63.85335935 -78.94140625 64.89453125 C-79.96041016 65.44173828 -79.96041016 65.44173828 -81 66 C-81.66 65.67 -82.32 65.34 -83 65 C-78.375 60.125 -78.375 60.125 -75 59 C-73.55230996 57.46314147 -73.55230996 57.46314147 -72.1875 55.625 C-69.43891701 52.29420484 -66.97044661 50.7826495 -63 49 C-61.22775899 47.81062937 -59.51733888 46.55973557 -57.80859375 45.28125 C-56 44 -56 44 -53.65625 42.625 C-49.54957471 40.112681 -45.83841193 37.10070601 -42.03515625 34.15625 C-39.11884561 32.08443086 -36.19833892 30.58120126 -33 29 C-31.31288577 27.3540349 -29.6454378 25.68762851 -28 24 C-26.33333333 23 -24.66666667 22 -23 21 C-22.113125 20.113125 -21.22625 19.22625 -20.3125 18.3125 C-19.549375 17.549375 -18.78625 16.78625 -18 16 C-17.34 16 -16.68 16 -16 16 C-16 15.34 -16 14.68 -16 14 C-14.69417053 12.96434215 -13.35622245 11.96873032 -12 11 C-11.505 10.484375 -11.01 9.96875 -10.5 9.4375 C-9 8 -9 8 -7.125 7.1875 C-3.94925638 5.41281974 -2.23460925 2.85533405 0 0 Z " fill="#ADAEAD" transform="translate(893,903)"/>
<path d="M0 0 C0.85089958 2.80261332 1.10386886 3.71609177 0.0625 6.5625 C-0.94313237 9.81601648 -1.03547841 11.58402443 -0.890625 14.90234375 C-0.82855864 21.54564133 -2.20282393 27.58412799 -3.8125 34 C-4.20405273 35.67642578 -4.20405273 35.67642578 -4.60351562 37.38671875 C-6.73160833 46.09876246 -6.73160833 46.09876246 -10 49 C-18.25955087 72.01922166 -17.46012745 100.55622512 -17.6875 124.625 C-17.72080062 127.10808936 -17.75530111 129.59116293 -17.79101562 132.07421875 C-17.87442308 138.04936926 -17.94335065 144.02453882 -18 150 C-21.38140761 151.12713587 -24.39621705 151.39832134 -27.94921875 151.71875 C-28.98463554 151.81295227 -28.98463554 151.81295227 -30.04096985 151.90905762 C-31.50933604 152.0418449 -32.97786335 152.1728606 -34.4465332 152.30224609 C-36.63469245 152.49534 -38.82223799 152.69442374 -41.00976562 152.89453125 C-49.45962375 153.65701933 -57.90417978 154.27345007 -66.3762207 154.73022461 C-71.97381444 155.14694233 -77.47278267 156.02516544 -83 157 C-83 156.01 -83 155.02 -83 154 C-81.87464844 153.87882813 -80.74929687 153.75765625 -79.58984375 153.6328125 C-78.03901696 153.46395945 -76.48823943 153.29465354 -74.9375 153.125 C-73.69794556 152.98964844 -73.69794556 152.98964844 -72.43334961 152.8515625 C-67.62770539 152.31837343 -62.84686439 151.70259897 -58.0625 151 C-45.21534043 149.2328143 -31.96998977 148 -19 148 C-19.01110306 147.3702829 -19.02220612 146.7405658 -19.03364563 146.09176636 C-19.9419662 92.00681114 -19.9419662 92.00681114 -16.625 68.8125 C-16.51394928 68.03026062 -16.40289856 67.24802124 -16.28848267 66.44207764 C-15.31684379 59.77664735 -14.20338924 53.3873843 -12 47 C-11.46096708 44.3749097 -10.95877811 41.7633645 -10.5 39.125 C-9.52143281 33.69031282 -8.44396314 28.33155621 -7 23 C-6.34 23 -5.68 23 -5 23 C-4.97421875 22.34515625 -4.9484375 21.6903125 -4.921875 21.015625 C-4.45527362 13.50758456 -2.63613417 7.02560408 0 0 Z " fill="#196537" transform="translate(291,485)"/>
<path d="M0 0 C0.33 0 0.66 0 1 0 C1 67.32 1 134.64 1 204 C-22.94085607 204 -22.94085607 204 -31.125 203.0625 C-38.14739542 202.33637133 -45.13389742 201.7972162 -52.1875 201.5 C-58.92443791 201.20602959 -65.41108503 200.5250747 -72 199 C-72 198.67 -72 198.34 -72 198 C-66.72 198.33 -61.44 198.66 -56 199 C-55.67 198.34 -55.34 197.68 -55 197 C-54.401875 197.185625 -53.80375 197.37125 -53.1875 197.5625 C-50.83591238 198.22093687 -50.83591238 198.22093687 -48 197 C-45.3125 197.9375 -45.3125 197.9375 -43 199 C-42.67 198.34 -42.34 197.68 -42 197 C-40.845 197.515625 -39.69 198.03125 -38.5 198.5625 C-33.86214339 200.32112288 -30.85126638 199.77004228 -26 199 C-23.66666667 199.33333333 -21.33333333 199.66666667 -19 200 C-16.22713915 200.0940405 -13.46107968 200.05141019 -10.6875 200 C-3.26762402 199.86618799 -3.26762402 199.86618799 -1 201 C-0.67 134.67 -0.34 68.34 0 0 Z " fill="#315C41" transform="translate(608,815)"/>
<path d="M0 0 C1.5625 1 1.5625 1 3 3 C2.80711374 5.02530578 2.60516307 7.05332205 2.26171875 9.05859375 C1.9639934 11.26709377 2.21828972 12.91543924 3 15 C2.01 15.66 1.02 16.32 0 17 C-0.16666667 19.5 -0.16666667 19.5 0 22 C-0.33 22.66 -0.66 23.32 -1 24 C-0.34 24.33 0.32 24.66 1 25 C0.40072174 28.35595828 -0.84622436 30.37801226 -3 33 C-1.515 32.505 -1.515 32.505 0 32 C-0.52036123 35.85067311 -1.31327701 37.31327701 -4 40 C-4 41.32 -4 42.64 -4 44 C-2.68 42.68 -1.36 41.36 0 40 C-1.2125738 43.72433382 -2.50859979 47.37802806 -4 51 C-3.34 51.33 -2.68 51.66 -2 52 C-1.74724827 56.54953119 -1.74724827 56.54953119 -2.96875 58.7265625 C-4.3886474 61.85679087 -4.43221099 64.70478018 -4.625 68.125 C-4.69976562 69.36507812 -4.77453125 70.60515625 -4.8515625 71.8828125 C-4.93272989 73.58732769 -5 75.29355335 -5 77 C-4.01 76.01 -4.01 76.01 -3 75 C-2.63558555 88.46308946 -2.63558555 88.46308946 -5 95 C-5.34135927 96.33130115 -5.67925956 97.66358148 -6 99 C-6.66 99 -7.32 99 -8 99 C-8.07758193 92.03392887 -8.12922297 85.06797322 -8.16479492 78.1015625 C-8.17966102 75.74344727 -8.19995979 73.38535852 -8.22631836 71.02734375 C-8.40332858 54.7562869 -7.43138594 39.08767182 -5 23 C-4.71993689 21.07501652 -4.44086812 19.14988809 -4.1628418 17.22460938 C-3.92238238 15.56621415 -3.68068545 13.90799768 -3.4375 12.25 C-3.32384598 11.47354126 -3.21019196 10.69708252 -3.09309387 9.89709473 C-2.52173202 6.2845582 -1.92778572 3.14402821 0 0 Z " fill="#98A79C" transform="translate(215,527)"/>
<path d="M0 0 C0 0.66 0 1.32 0 2 C-0.67015137 2.03963867 -1.34030273 2.07927734 -2.03076172 2.12011719 C-49.50128584 5.01456383 -95.86186803 12.0588919 -140.11010742 30.29492188 C-142.05208933 31.0194334 -143.98149833 31.53542199 -146 32 C-146.33 31.34 -146.66 30.68 -147 30 C-137.8177504 25.47872634 -128.86734024 21.81270649 -119 19 C-117.04929579 18.39252829 -115.10343286 17.77091765 -113.1574707 17.1484375 C-100.273023 13.03779569 -87.26604673 9.65609641 -74 7 C-72.72253906 6.7421875 -71.44507813 6.484375 -70.12890625 6.21875 C-60.80112572 4.37792144 -51.45054932 3.03547685 -42 2 C-41.20464844 1.90831543 -40.40929687 1.81663086 -39.58984375 1.72216797 C-26.34868987 0.21028197 -13.32231406 -0.24296013 0 0 Z " fill="#236D3E" transform="translate(608,213)"/>
<path d="M0 0 C7.59 0.33 15.18 0.66 23 1 C22.01 1.99 21.02 2.98 20 4 C18.0625 3.625 18.0625 3.625 16 3 C15.4225 3.144375 14.845 3.28875 14.25 3.4375 C11.98765302 4.00308674 10.1963658 4.03771172 7.875 4 C4.2049729 3.71117455 4.2049729 3.71117455 2 5 C1.67 68.36 1.34 131.72 1 197 C4.96 197 8.92 197 13 197 C13 197.33 13 197.66 13 198 C8.71 198 4.42 198 0 198 C0 132.66 0 67.32 0 0 Z " fill="#D8DAD8" transform="translate(609,195)"/>
<path d="M0 0 C0.66 0 1.32 0 2 0 C-3.34667732 21.67571888 -18.33050989 40.01811796 -31 58 C-31.495 56.515 -31.495 56.515 -32 55 C-32.99 55.495 -32.99 55.495 -34 56 C-32.39051342 52.54288853 -30.38068584 49.47136563 -28.25 46.3125 C-27.54230469 45.25804687 -26.83460938 44.20359375 -26.10546875 43.1171875 C-24.79883394 41.18268921 -23.48945648 39.25003672 -22.17578125 37.3203125 C-21.64339844 36.53398438 -21.11101563 35.74765625 -20.5625 34.9375 C-20.08941406 34.24527344 -19.61632812 33.55304687 -19.12890625 32.83984375 C-17.83812899 30.8920778 -17.83812899 30.8920778 -17 28 C-16.34 28 -15.68 28 -15 28 C-14.34 26.02 -13.68 24.04 -13 22 C-12.34 22 -11.68 22 -11 22 C-10.79375 21.21625 -10.5875 20.4325 -10.375 19.625 C-8.82709596 15.54416208 -6.75221134 12.1163543 -4.46484375 8.4140625 C-2.8008299 5.67176767 -1.37208466 2.89662317 0 0 Z " fill="#C9C9C8" transform="translate(974,796)"/>
<path d="M0 0 C0.66 0.33 1.32 0.66 2 1 C0.75283203 2.19496094 0.75283203 2.19496094 -0.51953125 3.4140625 C-1.61758808 4.48396403 -2.71522203 5.5542997 -3.8125 6.625 C-4.35970703 7.14707031 -4.90691406 7.66914063 -5.47070312 8.20703125 C-8.89297315 11.56707818 -10.93343288 14.6205598 -13 19 C-14.76171875 21.08984375 -14.76171875 21.08984375 -16.6875 22.9375 C-17.38746094 23.61039062 -18.08742188 24.28328125 -18.80859375 24.9765625 C-27.48952765 32.99211287 -27.48952765 32.99211287 -31.171875 35.44921875 C-33.3554773 37.30154805 -33.37086311 38.28587224 -34 41 C-35.62890625 42.8515625 -35.62890625 42.8515625 -37.5625 44.625 C-38.74334995 45.71318768 -39.89810336 46.83193202 -41 48 C-41 48.66 -41 49.32 -41 50 C-42.21354995 50.92489001 -43.47260707 51.79049878 -44.75 52.625 C-48.63535157 55.40609376 -50.15327159 57.84012508 -51.9921875 62.1640625 C-53.66133845 65.20476384 -56.00286332 66.36519818 -59 68 C-57.3546207 64.48141966 -55.32457996 61.3028526 -53.1875 58.0625 C-52.52105469 57.04285156 -51.85460937 56.02320313 -51.16796875 54.97265625 C-48.99341224 51.99096706 -46.63600044 49.57421918 -44 47 C-42.57764902 45.31368118 -41.18059499 43.60562693 -39.8125 41.875 C-39.13832031 41.02679688 -38.46414063 40.17859375 -37.76953125 39.3046875 C-36.44849405 37.58413133 -35.20325876 35.80488813 -34 34 C-33.34 34 -32.68 34 -32 34 C-31.72542969 33.40960938 -31.45085937 32.81921875 -31.16796875 32.2109375 C-28.21149345 26.61439897 -23.53547988 22.50410485 -18.71484375 18.52734375 C-16.97591854 16.9785516 -15.53980331 15.36008588 -14.0625 13.5625 C-11.27896714 10.18784054 -8.17017478 7.39612388 -4.83203125 4.578125 C-3.13809049 3.11895215 -1.55835516 1.60177682 0 0 Z " fill="#4B735A" transform="translate(335,301)"/>
<path d="M0 0 C6.98901953 1.07523377 11.6270782 4.16104257 17.36328125 8.22265625 C19.93425594 10.12699896 19.93425594 10.12699896 23 11 C23 11.66 23 12.32 23 13 C23.5662207 13.26876953 24.13244141 13.53753906 24.71582031 13.81445312 C28.95119851 16.01272124 32.81049609 18.81741314 36.75 21.5 C37.63816406 22.09425781 38.52632812 22.68851562 39.44140625 23.30078125 C40.28058594 23.87183594 41.11976563 24.44289063 41.984375 25.03125 C42.75491211 25.55267578 43.52544922 26.07410156 44.31933594 26.61132812 C44.87395508 27.06958984 45.42857422 27.52785156 46 28 C46 28.66 46 29.32 46 30 C46.99 30.33 47.98 30.66 49 31 C49.495 33.475 49.495 33.475 50 36 C38.45283019 28.45283019 38.45283019 28.45283019 34 24 C31.91746733 22.69528073 29.80206742 21.45743436 27.6796875 20.21875 C27.12539063 19.8165625 26.57109375 19.414375 26 19 C26 18.34 26 17.68 26 17 C25.29875 16.9175 24.5975 16.835 23.875 16.75 C20.32501013 15.82391569 17.96734446 14.12874711 15 12 C12.06240079 9.98323351 12.06240079 9.98323351 9.08203125 8.37890625 C8.00308594 7.77949219 6.92414062 7.18007813 5.8125 6.5625 C4.72582031 5.96566406 3.63914062 5.36882812 2.51953125 4.75390625 C1.68808594 4.17511719 0.85664062 3.59632813 0 3 C0 2.01 0 1.02 0 0 Z " fill="#F1EFEF" transform="translate(818,253)"/>
<path d="M0 0 C1.11328125 1.65625 1.11328125 1.65625 2 4 C1.41796875 6.53125 1.41796875 6.53125 0.1875 9.5 C-0.286875 10.64855469 -0.76125 11.79710937 -1.25 12.98046875 C-1.83050868 14.32153874 -2.41406157 15.66129346 -3 17 C-3.33 17.76006348 -3.66 18.52012695 -4 19.30322266 C-8.97977522 30.71597036 -14.32071824 41.91998436 -20 53 C-20.33 53 -20.66 53 -21 53 C-21.08226668 49.95613276 -20.97608217 47.92824652 -20 45 C-19.71769531 44.08476563 -19.43539062 43.16953125 -19.14453125 42.2265625 C-17.91579282 38.76261048 -16.37863354 35.63727534 -14.6875 32.375 C-11.45418978 26.04093353 -8.65368065 19.599513 -6 13 C-5.08708663 10.76929361 -4.1704917 8.54008992 -3.25 6.3125 C-2.84265625 5.31863281 -2.4353125 4.32476563 -2.015625 3.30078125 C-1 1 -1 1 0 0 Z " fill="#D3D3D3" transform="translate(995,751)"/>
<path d="M0 0 C0.99 0.33 1.98 0.66 3 1 C3 1.66 3 2.32 3 3 C2.01 3.33 1.02 3.66 0 4 C-0.53625 4.88816406 -1.0725 5.77632812 -1.625 6.69140625 C-4.40509013 11.1050626 -8.60900305 13.30821957 -13 15.9375 C-14.26734985 16.71420044 -14.26734985 16.71420044 -15.56030273 17.5065918 C-18.03306394 19.016558 -20.51606822 20.50851024 -23 22 C-24.28324712 22.78793166 -25.56587894 23.57686706 -26.84765625 24.3671875 C-32.77711929 27.95512504 -32.77711929 27.95512504 -35 29 C-35.66 28.67 -36.32 28.34 -37 28 C-32.375 23.125 -32.375 23.125 -29 22 C-27.55230996 20.46314147 -27.55230996 20.46314147 -26.1875 18.625 C-23.43891701 15.29420484 -20.97044661 13.7826495 -17 12 C-15.18079945 10.7791143 -13.42428295 9.49026876 -11.66015625 8.19140625 C-10 7 -10 7 -7.375 5.4375 C-4.85834465 4.00274713 -4.85834465 4.00274713 -2.375 1.75 C-1.59125 1.1725 -0.8075 0.595 0 0 Z " fill="#A5A6A5" transform="translate(847,940)"/>
<path d="M0 0 C0.99 0.33 1.98 0.66 3 1 C1.66975329 4.07988155 0.42984474 5.71064372 -2.3125 7.625 C-6.71246685 10.77817551 -10.98810701 14.06745732 -15.25512695 17.39697266 C-18.74528622 20.09879039 -22.30536402 22.59238436 -26 25 C-24.79618552 22.50638429 -23.54571278 20.31856917 -22 18 C-23.43952597 19.10152406 -24.87654071 20.2063304 -26.3125 21.3125 C-27.11300781 21.92738281 -27.91351563 22.54226563 -28.73828125 23.17578125 C-30.62701374 24.69916307 -32.33077636 26.24434407 -34 28 C-34.66 27.67 -35.32 27.34 -36 27 C-28.40985828 18.80711173 -20.01051938 11.98542379 -10 7 C-7.37300694 5.169182 -4.82385236 3.25857966 -2.26953125 1.328125 C-1.52058594 0.88984375 -0.77164063 0.4515625 0 0 Z " fill="#1B5430" transform="translate(373,273)"/>
<path d="M0 0 C1.27746094 -0.00257813 2.55492187 -0.00515625 3.87109375 -0.0078125 C7.2017337 0.11202005 10.29614456 0.48889369 13.5625 1.125 C13.5625 1.455 13.5625 1.785 13.5625 2.125 C12.42989746 2.28319214 12.42989746 2.28319214 11.27441406 2.44458008 C7.78614652 2.93563393 4.29935455 3.43651515 0.8125 3.9375 C-0.96833984 4.1859668 -0.96833984 4.1859668 -2.78515625 4.43945312 C-8.55043513 5.27431591 -14.15110866 6.2425952 -19.78125 7.75 C-24.70196025 9.04326359 -29.11931382 9.50477555 -34.1875 9.3125 C-34.89648438 9.29896484 -35.60546875 9.28542969 -36.3359375 9.27148438 C-38.03680981 9.23700723 -39.73727605 9.1832564 -41.4375 9.125 C-38.32596559 7.05064373 -36.24555191 6.46569908 -32.6328125 5.65234375 C-31.49199219 5.39259766 -30.35117187 5.13285156 -29.17578125 4.86523438 C-27.38720703 4.46788086 -27.38720703 4.46788086 -25.5625 4.0625 C-24.37785156 3.79373047 -23.19320312 3.52496094 -21.97265625 3.24804688 C-7.53634058 -0.01517893 -7.53634058 -0.01517893 0 0 Z " fill="#205E37" transform="translate(543.4375,201.875)"/>
<path d="M0 0 C0.33 0 0.66 0 1 0 C1.88100534 6.00748522 2.12372885 11.80863436 2.0625 17.875 C2.05798828 18.72835937 2.05347656 19.58171875 2.04882812 20.4609375 C2.04016144 22.02589347 2.0294279 23.59084049 2.01586914 25.15576172 C2.00484327 26.43713796 2 27.71857632 2 29 C2.66 28.34 3.32 27.68 4 27 C4.36441445 40.46308946 4.36441445 40.46308946 2 47 C1.65864073 48.33130115 1.32074044 49.66358148 1 51 C0.34 51 -0.32 51 -1 51 C-1.02479809 44.86190075 -1.04290645 38.72383095 -1.05493164 32.58569336 C-1.0599471 30.49942517 -1.06676105 28.41316047 -1.07543945 26.3269043 C-1.08762736 23.32079199 -1.09325631 20.31472634 -1.09765625 17.30859375 C-1.10281754 16.38227646 -1.10797882 15.45595917 -1.11329651 14.50157166 C-1.11372084 9.55563335 -0.84322739 4.87554661 0 0 Z " fill="#A3AFA6" transform="translate(208,575)"/>
<path d="M0 0 C-8.06531099 5.43797483 -15.31274339 8.23964489 -24.7265625 10.2734375 C-27.86397308 10.83082788 -27.86397308 10.83082788 -30 12 C-30 11.34 -30 10.68 -30 10 C-32.71012808 10.93254964 -35.41803435 11.87084994 -38.125 12.8125 C-38.88554687 13.07353516 -39.64609375 13.33457031 -40.4296875 13.60351562 C-43.90350026 14.81635543 -47.09609778 16.05027854 -50.3671875 17.76171875 C-53 19 -53 19 -56 18 C-43.02436244 11.90333869 -29.98313432 6.85823358 -16.3125 2.5625 C-15.16515381 2.19600342 -14.01780762 1.82950684 -12.83569336 1.4519043 C-11.75167236 1.11843994 -10.66765137 0.78497559 -9.55078125 0.44140625 C-8.57794189 0.13920166 -7.60510254 -0.16300293 -6.6027832 -0.47436523 C-3.95230978 -1.00963109 -2.51678811 -0.89840154 0 0 Z " fill="#5E856C" transform="translate(502,212)"/>
<path d="M0 0 C-0.33 1.32 -0.66 2.64 -1 4 C-1.495 3.505 -1.495 3.505 -2 3 C-2.71285156 3.144375 -3.42570313 3.28875 -4.16015625 3.4375 C-7.34264906 4.06786997 -10.19342429 4.05891624 -13.4375 4 C-20.20038408 3.95322116 -26.93112348 4.13985738 -33.6875 4.4375 C-35.12210571 4.49647461 -35.12210571 4.49647461 -36.58569336 4.55664062 C-37.48940674 4.59853516 -38.39312012 4.64042969 -39.32421875 4.68359375 C-40.12947998 4.72025146 -40.93474121 4.75690918 -41.7644043 4.79467773 C-43.94275483 4.99474247 -45.89443573 5.42127927 -48 6 C-49.74821262 6.36288656 -51.49831326 6.71677235 -53.25 7.0625 C-54.14203125 7.23910156 -55.0340625 7.41570312 -55.953125 7.59765625 C-56.96632813 7.79681641 -56.96632813 7.79681641 -58 8 C-58.33 7.01 -58.66 6.02 -59 5 C-52.93330877 3.52297877 -46.96282081 2.53139616 -40.75 1.9375 C-39.50295288 1.8139917 -39.50295288 1.8139917 -38.23071289 1.68798828 C-35.82101457 1.45254325 -33.41061001 1.22588057 -31 1 C-29.84886719 0.88527344 -28.69773437 0.77054688 -27.51171875 0.65234375 C-18.34438041 -0.17469694 -9.19504312 -0.09287922 0 0 Z " fill="#156D39" transform="translate(608,230)"/>
<path d="M0 0 C0.495 1.98 0.495 1.98 1 4 C-2.38140761 5.12713587 -5.39621705 5.39832134 -8.94921875 5.71875 C-9.63949661 5.78155151 -10.32977448 5.84435303 -11.04096985 5.90905762 C-12.50933604 6.0418449 -13.97786335 6.1728606 -15.4465332 6.30224609 C-17.63469245 6.49534 -19.82223799 6.69442374 -22.00976562 6.89453125 C-30.45962375 7.65701933 -38.90417978 8.27345007 -47.3762207 8.73022461 C-52.97381444 9.14694233 -58.47278267 10.02516544 -64 11 C-64 10.01 -64 9.02 -64 8 C-62.31197266 7.81824219 -62.31197266 7.81824219 -60.58984375 7.6328125 C-59.03901696 7.46395945 -57.48823943 7.29465354 -55.9375 7.125 C-54.69794556 6.98964844 -54.69794556 6.98964844 -53.43334961 6.8515625 C-48.62770539 6.31837343 -43.84686439 5.70259897 -39.0625 5 C-26.21534043 3.2328143 -12.96998977 2 0 2 C0 1.34 0 0.68 0 0 Z " fill="#446C50" transform="translate(272,631)"/>
<path d="M0 0 C0.33 0 0.66 0 1 0 C1.31242697 7.00005291 0.13016137 13.35192308 -1.3125 20.1875 C-1.5396167 21.292146 -1.7667334 22.39679199 -2.00073242 23.53491211 C-3.55661418 31.04883092 -5.17719917 38.54578196 -7 46 C-7.33 46 -7.66 46 -8 46 C-8.8378738 39.36146139 -9.03474351 34.3607785 -7.0546875 27.9296875 C-5.82317131 23.61292281 -5.12778737 19.24275703 -4.4375 14.8125 C-4.18768161 13.23544134 -3.93642865 11.65860911 -3.68359375 10.08203125 C-3.57587646 9.39343018 -3.46815918 8.7048291 -3.35717773 7.99536133 C-2.99422773 5.96775339 -2.52204602 3.99202505 -2 2 C-1.34 2 -0.68 2 0 2 C0 1.34 0 0.68 0 0 Z " fill="#DFE1E1" transform="translate(1018,666)"/>
<path d="M0 0 C0 0.66 0 1.32 0 2 C-6.67069295 2.57500096 -13.34187781 3.14401406 -20.01342773 3.70898438 C-22.28014526 3.90163516 -24.54674931 4.09562632 -26.81323242 4.29101562 C-30.08222573 4.57259009 -33.35160488 4.8492466 -36.62109375 5.125 C-37.62458359 5.21249512 -38.62807343 5.29999023 -39.66197205 5.39013672 C-55.88542748 6.74304835 -55.88542748 6.74304835 -60 4 C-17.77270285 -0.77553612 -17.77270285 -0.77553612 0 0 Z " fill="#226039" transform="translate(608,197)"/>
<path d="M0 0 C0.33 0 0.66 0 1 0 C0.88468049 2.81318915 0.75797242 5.62513326 0.625 8.4375 C0.5940625 9.22060547 0.563125 10.00371094 0.53125 10.81054688 C0.49257813 11.59365234 0.45390625 12.37675781 0.4140625 13.18359375 C0.3826416 13.89056396 0.3512207 14.59753418 0.31884766 15.32592773 C0.03508818 17.7057268 -0.41550185 19.91290973 -0.95800781 22.2434082 C-1.99736504 26.78778333 -2.63207054 31.28516291 -3.0859375 35.921875 C-3.16951508 36.77021912 -3.25309265 37.61856323 -3.33920288 38.49261475 C-4.38364053 50.05340984 -4.46408022 61.65036593 -4.625 73.25 C-4.66330407 75.56772099 -4.70236231 77.88542965 -4.7421875 80.203125 C-4.83678782 85.80197147 -4.92219968 91.40089614 -5 97 C-5.33 97 -5.66 97 -6 97 C-7.28541886 26.99742994 -7.28541886 26.99742994 0 0 Z " fill="#2D6942" transform="translate(278,534)"/>
<path d="M0 0 C0.763125 0.185625 1.52625 0.37125 2.3125 0.5625 C5.08967375 1.22819173 5.08967375 1.22819173 8 0 C10.6875 0.9375 10.6875 0.9375 13 2 C13.33 1.34 13.66 0.68 14 0 C15.155 0.45375 16.31 0.9075 17.5 1.375 C21.61257567 2.92455976 25.72127621 4.00672483 30 5 C30 5.33 30 5.66 30 6 C28.64595503 6.02763357 27.29173445 6.04667422 25.9375 6.0625 C25.18339844 6.07410156 24.42929687 6.08570313 23.65234375 6.09765625 C21 6 21 6 17.76953125 5.5234375 C13.42181677 4.91971342 9.13159181 4.73428406 4.75 4.5625 C-2.30289449 4.24647463 -9.10244662 3.59651235 -16 2 C-16 1.67 -16 1.34 -16 1 C-10.72 1.33 -5.44 1.66 0 2 C0 1.34 0 0.68 0 0 Z " fill="#4E5851" transform="translate(552,1012)"/>
<path d="M0 0 C-0.33 0.99 -0.66 1.98 -1 3 C-2.65 3.33 -4.3 3.66 -6 4 C-6 4.66 -6 5.32 -6 6 C-14.78818772 9.52307525 -22.43457564 11.80728999 -32 12 C-29.04183098 9.04183098 -25.80814871 8.22184475 -21.8125 7.125 C-17.07105346 5.72588463 -12.56307902 3.89133657 -8 2 C-8 1.34 -8 0.68 -8 0 C-4.71023192 -1.09658936 -3.28696233 -0.79953138 0 0 Z " fill="#8F9190" transform="translate(756,991)"/>
<path d="M0 0 C-2.4204121 2.4204121 -4.05820034 2.73562708 -7.34765625 3.62109375 C-8.96897461 4.06485352 -8.96897461 4.06485352 -10.62304688 4.51757812 C-12.32557617 4.97293945 -12.32557617 4.97293945 -14.0625 5.4375 C-24.21198585 8.17948699 -24.21198585 8.17948699 -34.19311523 11.46899414 C-36 12 -36 12 -39 12 C-39 11.34 -39 10.68 -39 10 C-38.09121094 9.74476563 -38.09121094 9.74476563 -37.1640625 9.484375 C-32.69354451 8.19136364 -28.359138 6.79313945 -24.0625 5 C-18.82703775 2.84130229 -13.48595092 1.37586948 -8 0 C-6.92105469 -0.30164063 -6.92105469 -0.30164063 -5.8203125 -0.609375 C-3.60174818 -1.08546176 -2.13729593 -0.68698798 0 0 Z " fill="#116A36" transform="translate(523,242)"/>
<path d="M0 0 C1.32 0.33 2.64 0.66 4 1 C-0.25984984 7.28119035 -5.18671647 12.14267865 -11 17 C-11.66 16.67 -12.32 16.34 -13 16 C-12.67 15.67 -12.34 15.34 -12 15 C-12.66 14.34 -13.32 13.68 -14 13 C-13.34 12.34 -12.68 11.68 -12 11 C-11.54625 10.505 -11.0925 10.01 -10.625 9.5 C-9 8 -9 8 -7.125 7.1875 C-3.94925638 5.41281974 -2.23460925 2.85533405 0 0 Z " fill="#B4B5B4" transform="translate(893,903)"/>
<path d="M0 0 C0 0.66 0 1.32 0 2 C-0.59425781 2.19110352 -1.18851562 2.38220703 -1.80078125 2.57910156 C-4.53602208 3.46284384 -7.26798124 4.356349 -10 5.25 C-10.93457031 5.55035156 -11.86914062 5.85070312 -12.83203125 6.16015625 C-17.22901106 7.60531745 -21.35771141 9.0980279 -25.4375 11.296875 C-29.10046302 13.04802837 -29.47083999 13.20418042 -33 12 C-25.80979237 4.80979237 -10.12575962 -0.48395175 0 0 Z " fill="#1E693B" transform="translate(494,232)"/>
<path d="M0 0 C0.495 0.99 0.495 0.99 1 2 C-0.07121094 2.26554688 -1.14242187 2.53109375 -2.24609375 2.8046875 C-3.64333805 3.16103168 -5.04046764 3.51782582 -6.4375 3.875 C-7.49807617 4.13603516 -7.49807617 4.13603516 -8.58007812 4.40234375 C-10.40368957 4.87351608 -12.20443229 5.43123057 -14 6 C-14.33 6.66 -14.66 7.32 -15 8 C-18.76300374 9.25433458 -22.27210909 9.10695422 -26.1875 9.0625 C-26.93708984 9.05798828 -27.68667969 9.05347656 -28.45898438 9.04882812 C-30.30602383 9.03706354 -32.15302213 9.01912865 -34 9 C-30.88846559 6.92564373 -28.80805191 6.34069908 -25.1953125 5.52734375 C-24.05449219 5.26759766 -22.91367187 5.00785156 -21.73828125 4.74023438 C-19.94970703 4.34288086 -19.94970703 4.34288086 -18.125 3.9375 C-16.94035156 3.66873047 -15.75570312 3.39996094 -14.53515625 3.12304688 C-9.69941628 2.02996247 -4.86511762 0.95498797 0 0 Z " fill="#628870" transform="translate(536,202)"/>
<path d="M0 0 C0.66 0.33 1.32 0.66 2 1 C1.236875 2.051875 0.47375 3.10375 -0.3125 4.1875 C-1.86966726 6.34659746 -3.22142397 8.40594394 -4.5 10.75 C-6.29350258 13.44025387 -8.15169808 14.53735847 -11 16 C-9.79618552 13.50638429 -8.54571278 11.31856917 -7 9 C-8.43952597 10.10152406 -9.87654071 11.2063304 -11.3125 12.3125 C-12.11300781 12.92738281 -12.91351563 13.54226563 -13.73828125 14.17578125 C-15.62701374 15.69916307 -17.33077636 17.24434407 -19 19 C-19.66 18.67 -20.32 18.34 -21 18 C-15.61155429 12.18364831 -9.82115327 7.44021571 -3.44140625 2.78515625 C-1.16616901 1.2173122 -1.16616901 1.2173122 0 0 Z " fill="#577C64" transform="translate(358,282)"/>
<path d="M0 0 C0.33 0.66 0.66 1.32 1 2 C-0.69042731 4.47247553 -2.40036734 6.92655778 -4.125 9.375 C-4.599375 10.07367187 -5.07375 10.77234375 -5.5625 11.4921875 C-8.58133133 15.73486937 -10.64198483 18.00557613 -16 19 C-16.99 19 -17.98 19 -19 19 C-11.75505618 11.59325843 -11.75505618 11.59325843 -8.375 8.9375 C-5.15323304 6.30921642 -2.62452748 3.21076214 0 0 Z " fill="#CC2842" transform="translate(785,714)"/>
<path d="M0 0 C0.66 0 1.32 0 2 0 C1.34949315 3.42436625 0.55727329 6.76681128 -0.375 10.125 C-0.63796875 11.07890625 -0.9009375 12.0328125 -1.171875 13.015625 C-1.72395833 15.00520833 -2.27604167 16.99479167 -2.828125 18.984375 C-3.09109375 19.93828125 -3.3540625 20.8921875 -3.625 21.875 C-3.86476562 22.73867188 -4.10453125 23.60234375 -4.3515625 24.4921875 C-4.9953587 26.98204991 -5.52013175 29.4739011 -6 32 C-8 29 -8 29 -7.828125 26.73046875 C-7.63734375 25.89128906 -7.4465625 25.05210937 -7.25 24.1875 C-7.04761719 23.29160156 -6.84523437 22.39570313 -6.63671875 21.47265625 C-5.89538114 18.59371941 -4.95694248 15.81453669 -4 13 C-3.20151758 9.84311331 -2.43571011 6.67996019 -1.68359375 3.51171875 C-1 1 -1 1 0 0 Z " fill="#195530" transform="translate(223,486)"/>
<path d="M0 0 C0.33 0.66 0.66 1.32 1 2 C-2.74043507 7.18834542 -6.93775493 10.71814371 -13 13 C-13.99 12.67 -14.98 12.34 -16 12 C-15.34 11.566875 -14.68 11.13375 -14 10.6875 C-13.01 9.8521875 -13.01 9.8521875 -12 9 C-12 8.01 -12 7.02 -12 6 C-10.948125 5.566875 -9.89625 5.13375 -8.8125 4.6875 C-5.70539018 3.36129459 -2.85481805 1.8167024 0 0 Z " fill="#9B9B9B" transform="translate(814,962)"/>
<path d="M0 0 C4.17781634 3.87671246 7.22712043 8.03587533 10.3125 12.8125 C10.76689453 13.50537109 11.22128906 14.19824219 11.68945312 14.91210938 C12.79831476 16.6045824 13.89991438 18.30180958 15 20 C14.67 20.66 14.34 21.32 14 22 C13.00419922 20.78763672 13.00419922 20.78763672 11.98828125 19.55078125 C11.09648876 18.47124297 10.20455406 17.39182215 9.3125 16.3125 C8.65991211 15.51682617 8.65991211 15.51682617 7.99414062 14.70507812 C5.15612944 11.2784424 2.19212461 8.10009939 -1 5 C-0.34 5 0.32 5 1 5 C0.67 3.35 0.34 1.7 0 0 Z " fill="#CC2E48" transform="translate(773,474)"/>
<path d="M0 0 C7.59 0.33 15.18 0.66 23 1 C22.01 1.99 21.02 2.98 20 4 C18.0625 3.625 18.0625 3.625 16 3 C15.4225 3.144375 14.845 3.28875 14.25 3.4375 C11.98281904 4.00429524 10.31922537 3.97378182 8 3.875 C5.02093963 3.81942052 4.15229078 3.90862553 1.5 5.5 C1.005 5.995 0.51 6.49 0 7 C0 4.69 0 2.38 0 0 Z " fill="#D1D2D1" transform="translate(609,195)"/>
<path d="M0 0 C0.33 0 0.66 0 1 0 C1.054348 2.0622048 1.09294961 4.12482816 1.125 6.1875 C1.14820313 7.33605469 1.17140625 8.48460937 1.1953125 9.66796875 C1.00484152 12.91740372 0.39360127 15.08660521 -1 18 C-3.68125591 15.31874409 -3.29880654 13.85875084 -3.3125 10.125 C-3.32925781 9.07570313 -3.34601563 8.02640625 -3.36328125 6.9453125 C-2.9637194 3.70585402 -2.22959796 2.33684444 0 0 Z " fill="#97A69B" transform="translate(211,602)"/>
<path d="M0 0 C0.99 0.66 1.98 1.32 3 2 C1.81940306 5.36016052 0.8423986 7.78924553 -2 10 C-4.6875 11.1875 -4.6875 11.1875 -7 12 C-6.32592592 7.78703697 -4.22536987 4.57407888 -2 1 C-1.34 0.67 -0.68 0.34 0 0 Z " fill="#8EA294" transform="translate(257,416)"/>
<path d="M0 0 C-1.65475777 3.60153162 -3.08925078 5.2974477 -6.6875 6.8125 C-7.780625 7.204375 -8.87375 7.59625 -10 8 C-10 7.34 -10 6.68 -10 6 C-10.99 5.67 -11.98 5.34 -13 5 C-12.34 5 -11.68 5 -11 5 C-10.67 4.01 -10.34 3.02 -10 2 C-4.03924775 -1.70891251 -4.03924775 -1.70891251 0 0 Z " fill="#3C6C4D" transform="translate(436,237)"/>
<path d="M0 0 C0.66 0.33 1.32 0.66 2 1 C0.77023437 2.21236328 0.77023437 2.21236328 -0.484375 3.44921875 C-1.57305137 4.52850998 -2.6615855 5.60794469 -3.75 6.6875 C-4.28882813 7.21794922 -4.82765625 7.74839844 -5.3828125 8.29492188 C-7.81513079 10.71240895 -10.06278386 13.0798252 -12.1875 15.78125 C-14.43382487 18.53106148 -16.77246854 19.60629323 -20 21 C-20 19 -20 19 -18.125 16.9375 C-14.63697438 13.57902961 -10.99203169 10.38690595 -7.3828125 7.16015625 C-4.83216512 4.84784805 -2.39336142 2.47314013 0 0 Z " fill="#77917F" transform="translate(335,301)"/>
<path d="M0 0 C-2.71477722 5.88201731 -6.29968017 10.56080905 -11 15 C-11.99 14.67 -12.98 14.34 -14 14 C-13.175 13.236875 -12.35 12.47375 -11.5 11.6875 C-8.65944803 9.24565858 -8.65944803 9.24565858 -9 6 C-7.5390625 4.39453125 -7.5390625 4.39453125 -5.625 2.8125 C-4.99851562 2.28269531 -4.37203125 1.75289063 -3.7265625 1.20703125 C-2 0 -2 0 0 0 Z " fill="#1C5431" transform="translate(351,291)"/>
<path d="M0 0 C1.72863281 0.29197266 1.72863281 0.29197266 3.4921875 0.58984375 C4.79542969 0.82380859 4.79542969 0.82380859 6.125 1.0625 C6.125 1.7225 6.125 2.3825 6.125 3.0625 C4.08340905 3.0897616 2.04171037 3.10901345 0 3.125 C-1.13695312 3.13660156 -2.27390625 3.14820313 -3.4453125 3.16015625 C-6.6879156 3.067827 -9.69432612 2.67639906 -12.875 2.0625 C-12.875 1.4025 -12.875 0.7425 -12.875 0.0625 C-8.27112021 -0.93803923 -4.63049487 -0.80324911 0 0 Z " fill="#D8D8D8" transform="translate(647.875,196.9375)"/>
<path d="M0 0 C0.66 0.66 1.32 1.32 2 2 C-4.86954798 5.30417422 -11.63011293 8.033631 -19 10 C-18.67 9.01 -18.34 8.02 -18 7 C-17.01 7.33 -16.02 7.66 -15 8 C-15 7.34 -15 6.68 -15 6 C-13.06305322 5.18618205 -11.12542289 4.37399084 -9.1875 3.5625 C-8.10855469 3.11003906 -7.02960938 2.65757812 -5.91796875 2.19140625 C-3.9704874 1.39624987 -1.99561057 0.66520352 0 0 Z " fill="#0C6030" transform="translate(480,226)"/>
<path d="M0 0 C0.66 0 1.32 0 2 0 C2 0.66 2 1.32 2 2 C2.55171875 2.23460937 3.1034375 2.46921875 3.671875 2.7109375 C6.59325764 4.32848158 8.79574497 6.36450195 11.25 8.625 C12.14203125 9.44226563 13.0340625 10.25953125 13.953125 11.1015625 C14.96632813 12.04128906 14.96632813 12.04128906 16 13 C15.67 13.66 15.34 14.32 15 15 C14.34 15 13.68 15 13 15 C13 14.34 13 13.68 13 13 C12.34 13 11.68 13 11 13 C11 12.34 11 11.68 11 11 C10.34 11 9.68 11 9 11 C9 10.34 9 9.68 9 9 C8.34 9 7.68 9 7 9 C7 8.34 7 7.68 7 7 C6.01 7 5.02 7 4 7 C4 6.34 4 5.68 4 5 C3.34 5 2.68 5 2 5 C1.34 3.35 0.68 1.7 0 0 Z " fill="#F4F1F2" transform="translate(879,295)"/>
<path d="M0 0 C0 2 0 2 -1.875 3.9375 C-2.57625 4.618125 -3.2775 5.29875 -4 6 C-4.99 7.485 -4.99 7.485 -6 9 C-8.625 9.1875 -8.625 9.1875 -11 9 C-10.61095461 6.53955077 -10.28572918 5.27840279 -8.4765625 3.515625 C-7.86554687 3.09796875 -7.25453125 2.6803125 -6.625 2.25 C-6.01914062 1.82203125 -5.41328125 1.3940625 -4.7890625 0.953125 C-3 0 -3 0 0 0 Z " fill="#A0A1A1" transform="translate(840,947)"/>
<path d="M0 0 C0.721875 0.144375 1.44375 0.28875 2.1875 0.4375 C3.5796875 0.7159375 3.5796875 0.7159375 5 1 C6.66666667 1.33333333 8.33333333 1.66666667 10 2 C10 1.34 10 0.68 10 0 C10.66 0 11.32 0 12 0 C12 0.99 12 1.98 12 3 C12.639375 3.103125 13.27875 3.20625 13.9375 3.3125 C14.618125 3.539375 15.29875 3.76625 16 4 C16.33 4.99 16.66 5.98 17 7 C17.99 7.33 18.98 7.66 20 8 C15.15888235 7.41161801 11.03928805 5.92346884 6.625 3.9375 C5.98433594 3.65583984 5.34367187 3.37417969 4.68359375 3.08398438 C3.11970341 2.39540579 1.55946059 1.69855289 0 1 C0 0.67 0 0.34 0 0 Z " fill="#6A756D" transform="translate(448,986)"/>
<path d="M0 0 C-1.56612193 3.84411747 -4.02094121 6.15950209 -7 9 C-7.86625 9.86625 -8.7325 10.7325 -9.625 11.625 C-11.41666667 13.41666667 -13.20833333 15.20833333 -15 17 C-15.66 16.67 -16.32 16.34 -17 16 C-2.77075099 0 -2.77075099 0 0 0 Z " fill="#1A512E" transform="translate(339,301)"/>
<path d="M0 0 C0 0.33 0 0.66 0 1 C-6.30760257 2.64681249 -12.51527007 4.26309887 -19 5 C-13.68328197 -1.38006164 -7.58262923 -1.33028583 0 0 Z " fill="#1E5B34" transform="translate(515,211)"/>
<path d="M0 0 C-0.33 0.66 -0.66 1.32 -1 2 C-1.66 2 -2.32 2 -3 2 C-3 2.66 -3 3.32 -3 4 C-8.41538462 5.23076923 -8.41538462 5.23076923 -11.375 4.0625 C-11.91125 3.711875 -12.4475 3.36125 -13 3 C-8.72352613 0.14901742 -5.0682068 -0.14480591 0 0 Z M-15 3 C-14.34 3.66 -13.68 4.32 -13 5 C-13.99 5.33 -14.98 5.66 -16 6 C-16.33 5.34 -16.66 4.68 -17 4 C-16.34 3.67 -15.68 3.34 -15 3 Z " fill="#8D8D8E" transform="translate(778,983)"/>
<path d="M0 0 C0.33 0.66 0.66 1.32 1 2 C-0.93108878 3.50894379 -2.86906006 5.00711534 -4.8125 6.5 C-5.35970703 6.92925781 -5.90691406 7.35851562 -6.47070312 7.80078125 C-10.66015625 11 -10.66015625 11 -14 11 C-10.78203724 5.30668127 -10.78203724 5.30668127 -6.8125 3.75 C-5.884375 3.5025 -4.95625 3.255 -4 3 C-3.67 2.34 -3.34 1.68 -3 1 C-2.01 0.67 -1.02 0.34 0 0 Z " fill="#B1B2B0" transform="translate(868,929)"/>
<path d="M0 0 C0 3.64132765 -0.82923328 4.18604314 -3 7 C-3.6496875 8.485 -3.6496875 8.485 -4.3125 10 C-6.32467519 13.57720034 -8.48606367 14.96972568 -12 17 C-10.31853173 13.38309168 -8.20107633 10.13434498 -6 6.8125 C-5.29875 5.74644531 -4.5975 4.68039062 -3.875 3.58203125 C-2 1 -2 1 0 0 Z " fill="#6B8875" transform="translate(288,352)"/>
<path d="M0 0 C-0.125 1.8125 -0.125 1.8125 -1 4 C-4.0625 5.75 -4.0625 5.75 -7 7 C-6.67 5.68 -6.34 4.36 -6 3 C-6.78375 3.515625 -7.5675 4.03125 -8.375 4.5625 C-9.24125 5.036875 -10.1075 5.51125 -11 6 C-11.66 5.67 -12.32 5.34 -13 5 C-3.39805825 -1.69902913 -3.39805825 -1.69902913 0 0 Z " fill="#406E51" transform="translate(395,260)"/>
<path d="M0 0 C1.08667969 0.19464844 2.17335938 0.38929688 3.29296875 0.58984375 C4.54013672 0.82380859 4.54013672 0.82380859 5.8125 1.0625 C5.8125 1.7225 5.8125 2.3825 5.8125 3.0625 C-4.74558656 3.24701025 -4.74558656 3.24701025 -9.1875 2.0625 C-9.1875 1.4025 -9.1875 0.7425 -9.1875 0.0625 C-5.61369658 -1.12876781 -3.67866698 -0.6724445 0 0 Z " fill="#D9D9DA" transform="translate(666.1875,198.9375)"/>
<path d="M0 0 C-2.55604391 2.98205122 -5.35053322 4.58490064 -9 6 C-11.19140625 5.07421875 -11.19140625 5.07421875 -13 4 C-11.59248779 3.13083113 -10.1735479 2.28014851 -8.75 1.4375 C-7.96109375 0.96183594 -7.1721875 0.48617187 -6.359375 -0.00390625 C-3.69155375 -1.13022151 -2.65498232 -1.0169313 0 0 Z " fill="#919193" transform="translate(803,971)"/>
<path d="M0 0 C0.33 0.66 0.66 1.32 1 2 C-0.19427286 4.73650671 -1.44471772 7.35238083 -2.8125 10 C-3.18181641 10.73734375 -3.55113281 11.4746875 -3.93164062 12.234375 C-6.71898191 17.71898191 -6.71898191 17.71898191 -9 20 C-9.33 17.36 -9.66 14.72 -10 12 C-9.01 12.33 -8.02 12.66 -7 13 C-3.535 6.565 -3.535 6.565 0 0 Z " fill="#21693C" transform="translate(315,430)"/>
<path d="M0 0 C3.91593446 0.78318689 7.36406635 2.39179858 11 4 C11 4.66 11 5.32 11 6 C12.65 6.33 14.3 6.66 16 7 C16 7.66 16 8.32 16 9 C14.51793505 8.745504 13.03931385 8.47088238 11.5625 8.1875 C10.32693359 7.96126953 10.32693359 7.96126953 9.06640625 7.73046875 C8.38449219 7.48941406 7.70257813 7.24835938 7 7 C6.67 6.01 6.34 5.02 6 4 C4.34795544 3.29788106 2.68076231 2.63028587 1 2 C0.67 1.34 0.34 0.68 0 0 Z " fill="#4D7659" transform="translate(267,422)"/>
<path d="M0 0 C0.66 0.33 1.32 0.66 2 1 C0.23628182 2.03307771 -1.53625033 3.05112049 -3.3125 4.0625 C-4.79169922 4.91521484 -4.79169922 4.91521484 -6.30078125 5.78515625 C-9 7 -9 7 -12 6 C-11.34 5.67 -10.68 5.34 -10 5 C-10.66 4.34 -11.32 3.68 -12 3 C-8.3356845 0.557123 -6.31446191 0.92155524 -2 1 C-1.34 0.67 -0.68 0.34 0 0 Z " fill="#A5A6A5" transform="translate(796,975)"/>
<path d="M0 0 C0.66 0.33 1.32 0.66 2 1 C1.88597936 3.27141109 1.75841495 5.54214552 1.625 7.8125 C1.55539062 9.07707031 1.48578125 10.34164062 1.4140625 11.64453125 C1 15 1 15 -1 18 C-2.4049404 14.10939581 -1.69513239 10.76907638 -1.0625 6.75 C-0.86785156 5.48671875 -0.67320312 4.2234375 -0.47265625 2.921875 C-0.31667969 1.95765625 -0.16070313 0.9934375 0 0 Z " fill="#DFE1E1" transform="translate(1021,639)"/>
<path d="M0 0 C0.99 0 1.98 0 3 0 C3 1.65 3 3.3 3 5 C3.99 5 4.98 5 6 5 C6.66 5.33 7.32 5.66 8 6 C6.8125 7.5625 6.8125 7.5625 5 9 C2.3125 8.6875 2.3125 8.6875 0 8 C0 5.36 0 2.72 0 0 Z " fill="#899A8D" transform="translate(207,631)"/>
<path d="M0 0 C1.9375 1.0625 1.9375 1.0625 4 3 C4.75 6.6875 4.75 6.6875 5 10 C3.125 9.6875 3.125 9.6875 1 9 C-1 6 -1 6 -0.625 3.9375 C-0.41875 3.298125 -0.2125 2.65875 0 2 C0 1.34 0 0.68 0 0 Z " fill="#CD203E" transform="translate(769,469)"/>
<path d="M0 0 C-0.33 0.99 -0.66 1.98 -1 3 C-3.3125 3.625 -3.3125 3.625 -6 4 C-6.99 3.34 -7.98 2.68 -9 2 C-9 2.66 -9 3.32 -9 4 C-10.32 3.67 -11.64 3.34 -13 3 C-4.738041 -1.77676538 -4.738041 -1.77676538 0 0 Z " fill="#4E785D" transform="translate(448,232)"/>
<path d="M0 0 C2.64 0.66 5.28 1.32 8 2 C8.33 3.32 8.66 4.64 9 6 C4.545 5.01 4.545 5.01 0 4 C0 2.68 0 1.36 0 0 Z " fill="#334036" transform="translate(496,999)"/>
<path d="M0 0 C-2.05762909 0.70194375 -4.12136031 1.38601697 -6.1875 2.0625 C-7.91033203 2.63677734 -7.91033203 2.63677734 -9.66796875 3.22265625 C-12.97454508 3.99406151 -14.79082314 3.96093996 -18 3 C-15.03837914 1.37522189 -12.30733073 0.48304114 -9 -0.1875 C-8.154375 -0.36667969 -7.30875 -0.54585938 -6.4375 -0.73046875 C-3.96978589 -1.00334098 -2.34150494 -0.76424119 0 0 Z " fill="#A61E26" transform="translate(578,396)"/>
<path d="M0 0 C-2.42182607 3.6327391 -3.50445117 3.68131947 -7.625 4.6875 C-8.62789063 4.93886719 -9.63078125 5.19023437 -10.6640625 5.44921875 C-11.43492187 5.63097656 -12.20578125 5.81273437 -13 6 C-12 3 -12 3 -9.78515625 1.796875 C-8.43744141 1.27867187 -8.43744141 1.27867187 -7.0625 0.75 C-6.16660156 0.39421875 -5.27070313 0.0384375 -4.34765625 -0.328125 C-2 -1 -2 -1 0 0 Z " fill="#235B38" transform="translate(470,223)"/>
<path d="M0 0 C0.33 0.66 0.66 1.32 1 2 C-1.31 5.3 -3.62 8.6 -6 12 C-6.99 11.34 -7.98 10.68 -9 10 C-6.03 6.7 -3.06 3.4 0 0 Z " fill="#CC4456" transform="translate(785,714)"/>
<path d="M0 0 C0 3 0 3 -2.40625 5.69921875 C-3.4299968 6.70302243 -4.4616054 7.69885649 -5.5 8.6875 C-6.02464844 9.19861328 -6.54929687 9.70972656 -7.08984375 10.23632812 C-8.38660904 11.49772708 -9.69246117 12.74977212 -11 14 C-11.66 13.67 -12.32 13.34 -13 13 C-8.96476648 8.18876004 -4.95532767 3.86757281 0 0 Z " fill="#245829" transform="translate(549,477)"/>
<path d="M0 0 C0.66 0.33 1.32 0.66 2 1 C-1.17320782 4.53586014 -3.16743695 6.58578031 -8 7 C-8.33 6.01 -8.66 5.02 -9 4 C-7.54618103 3.30300448 -6.08677047 2.61766134 -4.625 1.9375 C-3.40683594 1.36322266 -3.40683594 1.36322266 -2.1640625 0.77734375 C-1.44992187 0.52082031 -0.73578125 0.26429688 0 0 Z " fill="#205935" transform="translate(455,227)"/>
<path d="M0 0 C0.66 0.66 1.32 1.32 2 2 C1.34 2.66 0.68 3.32 0 4 C0.33 4.66 0.66 5.32 1 6 C-5.625 9.125 -5.625 9.125 -9 8 C-8.195625 7.7525 -7.39125 7.505 -6.5625 7.25 C-5.2940625 6.63125 -5.2940625 6.63125 -4 6 C-3.33820153 4.01954441 -3.33820153 4.01954441 -3 2 C-2.01 1.34 -1.02 0.68 0 0 Z " fill="#9E9F9D" transform="translate(759,987)"/>
<path d="M0 0 C2 1 2 1 3 3 C0.16569547 6.2542015 -1.68607774 7.5206753 -6 8 C-5.34 7.401875 -4.68 6.80375 -4 6.1875 C-1.6626154 4.12498166 -1.6626154 4.12498166 -2 1 C-1.34 0.67 -0.68 0.34 0 0 Z " fill="#A3A3A2" transform="translate(804,967)"/>
<path d="M0 0 C0.721875 0.103125 1.44375 0.20625 2.1875 0.3125 C2.1875 0.9725 2.1875 1.6325 2.1875 2.3125 C0.5375 2.6425 -1.1125 2.9725 -2.8125 3.3125 C-3.1425 4.3025 -3.4725 5.2925 -3.8125 6.3125 C-5.1325 5.9825 -6.4525 5.6525 -7.8125 5.3125 C-3.50480769 0.38942308 -3.50480769 0.38942308 0 0 Z " fill="#A5A6A6" transform="translate(867.8125,926.6875)"/>
<path d="M0 0 C0 0.66 0 1.32 0 2 C-3.70953805 3.23651268 -7.14643958 3.06656822 -11 3 C-12.32 3 -13.64 3 -15 3 C-10.38649226 -0.07567183 -5.44961357 -0.16513981 0 0 Z " fill="#136C38" transform="translate(548,236)"/>
<path d="M0 0 C1.32 0.33 2.64 0.66 4 1 C4 1.66 4 2.32 4 3 C1.03 4.32 -1.94 5.64 -5 7 C-4.67 5.35 -4.34 3.7 -4 2 C-2.68 2 -1.36 2 0 2 C0 1.34 0 0.68 0 0 Z " fill="#1B5832" transform="translate(439,234)"/>
<path d="M0 0 C7.42857143 -0.14285714 7.42857143 -0.14285714 11 1 C11 1.99 11 2.98 11 4 C7.37 3.34 3.74 2.68 0 2 C0 1.34 0 0.68 0 0 Z " fill="#E0DFE0" transform="translate(703,207)"/>
<path d="M0 0 C-0.66 0 -1.32 0 -2 0 C-2 0.66 -2 1.32 -2 2 C-4.97 2.66 -7.94 3.32 -11 4 C-10.67 3.01 -10.34 2.02 -10 1 C-6.34742296 -0.62336757 -3.80637601 -1.46399077 0 0 Z " fill="#1D5B34" transform="translate(532,206)"/>
<path d="M0 0 C3.48749314 2.78999451 6.50157221 5.25235831 9 9 C8.67 9.66 8.34 10.32 8 11 C1.29540481 5.9059081 1.29540481 5.9059081 0.0625 2.125 C0.041875 1.42375 0.02125 0.7225 0 0 Z " fill="#F3EFF1" transform="translate(869,286)"/>
<path d="M0 0 C-1.40751221 0.86916887 -2.8264521 1.71985149 -4.25 2.5625 C-5.03890625 3.03816406 -5.8278125 3.51382813 -6.640625 4.00390625 C-9.30844625 5.13022151 -10.34501768 5.0169313 -13 4 C-9.29722041 0.29722041 -5.05922513 -1.66040649 0 0 Z " fill="#116634" transform="translate(474,240)"/>
<path d="M0 0 C1.32 0.33 2.64 0.66 4 1 C4.33 2.65 4.66 4.3 5 6 C1.26512223 5.5020163 -0.81237635 5.12508244 -4 3 C-2.68 2.67 -1.36 2.34 0 2 C0 1.34 0 0.68 0 0 Z " fill="#59645C" transform="translate(477,993)"/>
<path d="M0 0 C0.66 0 1.32 0 2 0 C1.27991594 4.60853797 -0.31295939 8.67237409 -2 13 C-2.66 12.01 -3.32 11.02 -4 10 C-3.3203125 7.51953125 -3.3203125 7.51953125 -2.125 4.8125 C-1.73570312 3.91144531 -1.34640625 3.01039063 -0.9453125 2.08203125 C-0.63335937 1.39496094 -0.32140625 0.70789063 0 0 Z " fill="#16532E" transform="translate(232,460)"/>
<path d="M0 0 C1.125 3.75 1.125 3.75 0 6 C-1.64363134 6.72159424 -3.31050386 7.39351421 -5 8 C-4.64950425 4.75791433 -4.43778819 3.38472296 -1.9375 1.1875 C-1.298125 0.795625 -0.65875 0.40375 0 0 Z " fill="#B6B6B6" transform="translate(906,892)"/>
<path d="M0 0 C0.66 0.33 1.32 0.66 2 1 C2.99 0.67 3.98 0.34 5 0 C3.62845496 2.95409701 2.01136276 5.44008376 0 8 C-0.66 7.67 -1.32 7.34 -2 7 C-1.67 6.34 -1.34 5.68 -1 5 C-1.66 4.67 -2.32 4.34 -3 4 C-2.01 2.68 -1.02 1.36 0 0 Z " fill="#C1C2C1" transform="translate(919,876)"/>
<path d="M0 0 C0.33 0.99 0.66 1.98 1 3 C0.3503125 3.5878125 0.3503125 3.5878125 -0.3125 4.1875 C-2.14502809 5.99585254 -2.14502809 5.99585254 -3.375 8.625 C-5 11 -5 11 -7.6875 11.8125 C-8.450625 11.874375 -9.21375 11.93625 -10 12 C-9.278125 11.319375 -8.55625 10.63875 -7.8125 9.9375 C-4.76544307 6.90785482 -2.42792046 3.53782696 0 0 Z " fill="#CC2742" transform="translate(689,554)"/>
<path d="M0 0 C0.66 0.33 1.32 0.66 2 1 C0.02 3.97 0.02 3.97 -2 7 C-3.65 6.67 -5.3 6.34 -7 6 C-4.74259377 3.66475218 -2.7194239 1.81294927 0 0 Z " fill="#A6A7A6" transform="translate(857,933)"/>
<path d="M0 0 C0.33 0.66 0.66 1.32 1 2 C0.07544441 3.508013 -0.8650747 5.00624917 -1.8125 6.5 C-2.33457031 7.3353125 -2.85664062 8.170625 -3.39453125 9.03125 C-3.92433594 9.6809375 -4.45414063 10.330625 -5 11 C-5.99 11 -6.98 11 -8 11 C-5.36 7.37 -2.72 3.74 0 0 Z " fill="#CB2A45" transform="translate(717,515)"/>
<path d="M0 0 C0.33 0.66 0.66 1.32 1 2 C0.67 2.66 0.34 3.32 0 4 C0.66 4.33 1.32 4.66 2 5 C0.68 6.98 -0.64 8.96 -2 11 C-3.13643966 7.59068103 -2.86747764 6.99664544 -1.5625 3.8125 C-1.13130859 2.73935547 -1.13130859 2.73935547 -0.69140625 1.64453125 C-0.46324219 1.10183594 -0.23507813 0.55914062 0 0 Z " fill="#9FAEA3" transform="translate(222,501)"/>
<path d="M0 0 C-1.6188996 1.03048037 -3.24532489 2.04914678 -4.875 3.0625 C-5.77992188 3.63097656 -6.68484375 4.19945312 -7.6171875 4.78515625 C-8.40351562 5.18605469 -9.18984375 5.58695313 -10 6 C-10.66 5.67 -11.32 5.34 -12 5 C-7.72451559 0.2358888 -7.72451559 0.2358888 -4.3125 -0.875 C-2 -1 -2 -1 0 0 Z " fill="#B2B4B1" transform="translate(822,963)"/>
<path d="M0 0 C2.31 0 4.62 0 7 0 C7 0.66 7 1.32 7 2 C5.37373596 3.38232443 3.7074998 4.71937515 2 6 C1.34 5.67 0.68 5.34 0 5 C0.33 4.67 0.66 4.34 1 4 C0.34 3.34 -0.32 2.68 -1 2 C-0.67 1.34 -0.34 0.68 0 0 Z " fill="#B7B9B6" transform="translate(880,914)"/>
<path d="M0 0 C0.99 0.99 1.98 1.98 3 3 C2.34 4.65 1.68 6.3 1 8 C0.34 8 -0.32 8 -1 8 C-1.125 2.25 -1.125 2.25 0 0 Z " fill="#A0AEA3" transform="translate(215,527)"/>
<path d="M0 0 C2.94721162 2.74395564 5.19168608 5.38337216 7 9 C6.67 9.66 6.34 10.32 6 11 C4.98805294 9.92781799 3.99081943 8.84173622 3 7.75 C2.443125 7.14671875 1.88625 6.5434375 1.3125 5.921875 C0 4 0 4 0 0 Z " fill="#D06D7B" transform="translate(781,485)"/>
<path d="M0 0 C0.763125 0.20625 1.52625 0.4125 2.3125 0.625 C1.9825 1.615 1.6525 2.605 1.3125 3.625 C-0.9975 2.965 -3.3075 2.305 -5.6875 1.625 C-2.6875 -0.375 -2.6875 -0.375 0 0 Z " fill="#8A8A8C" transform="translate(753.6875,990.375)"/>
<path d="M0 0 C2.31 0.33 4.62 0.66 7 1 C7 1.99 7 2.98 7 4 C4.36 3.34 1.72 2.68 -1 2 C-0.67 1.34 -0.34 0.68 0 0 Z " fill="#E1E0E0" transform="translate(740,217)"/>
<path d="M0 0 C5.28 0 10.56 0 16 0 C14.515 1.485 14.515 1.485 13 3 C12.34 2.67 11.68 2.34 11 2 C9.12943209 1.7724985 7.25314042 1.59037189 5.375 1.4375 C4.37210938 1.35371094 3.36921875 1.26992187 2.3359375 1.18359375 C1.56507813 1.12300781 0.79421875 1.06242188 0 1 C0 0.67 0 0.34 0 0 Z " fill="#D8D9DA" transform="translate(616,196)"/>
<path d="M0 0 C0.33 0.99 0.66 1.98 1 3 C0.01 3.99 -0.98 4.98 -2 6 C-2.99 5.67 -3.98 5.34 -5 5 C-4 2 -4 2 -1.9375 0.8125 C-1.298125 0.544375 -0.65875 0.27625 0 0 Z " fill="#ACADAC" transform="translate(888,909)"/>
<path d="M0 0 C0.33 1.32 0.66 2.64 1 4 C1.66 4 2.32 4 3 4 C2.67 5.65 2.34 7.3 2 9 C1.01 9.33 0.02 9.66 -1 10 C-0.67 6.7 -0.34 3.4 0 0 Z " fill="#92A397" transform="translate(213,531)"/>
<path d="M0 0 C0.99 0.66 1.98 1.32 3 2 C2.34 3.32 1.68 4.64 1 6 C1 5.34 1 4.68 1 4 C-0.32 4 -1.64 4 -3 4 C-2.67 3.01 -2.34 2.02 -2 1 C-1.34 0.67 -0.68 0.34 0 0 Z " fill="#819787" transform="translate(257,416)"/>
<path d="M0 0 C1.98 0.66 3.96 1.32 6 2 C6 2.66 6 3.32 6 4 C2.7 3.67 -0.6 3.34 -4 3 C-2.68 2.67 -1.36 2.34 0 2 C0 1.34 0 0.68 0 0 Z " fill="#464F48" transform="translate(552,1012)"/>
<path d="M0 0 C3.3 0.33 6.6 0.66 10 1 C10 1.66 10 2.32 10 3 C4.58461538 4.23076923 4.58461538 4.23076923 1.625 3.0625 C1.08875 2.711875 0.5525 2.36125 0 2 C0 1.34 0 0.68 0 0 Z " fill="#D8D9D9" transform="translate(684,203)"/>
<path d="M0 0 C0.33 0.66 0.66 1.32 1 2 C0.07421875 3.9453125 0.07421875 3.9453125 -1.3125 6.125 C-1.76238281 6.84945312 -2.21226562 7.57390625 -2.67578125 8.3203125 C-3.11277344 8.87460937 -3.54976562 9.42890625 -4 10 C-4.66 10 -5.32 10 -6 10 C-4.6302836 6.00499382 -2.74277578 3.19990508 0 0 Z " fill="#CE394F" transform="translate(627,640)"/>
<path d="M0 0 C0.33 1.32 0.66 2.64 1 4 C-1.475 5.485 -1.475 5.485 -4 7 C-3.6875 4.625 -3.6875 4.625 -3 2 C-2.01 1.34 -1.02 0.68 0 0 Z " fill="#456F53" transform="translate(293,347)"/>
<path d="M0 0 C0 0.66 0 1.32 0 2 C-2.70879335 3.35439668 -5.00933268 3.06501451 -8 3 C-8 2.34 -8 1.68 -8 1 C-5.10765685 0.17361624 -3.11257569 0 0 0 Z " fill="#126B37" transform="translate(532,239)"/>
<path d="M0 0 C-1.6875 1.5625 -1.6875 1.5625 -4 3 C-6.75 2.6875 -6.75 2.6875 -9 2 C-4 -1.33333333 -4 -1.33333333 0 0 Z " fill="#275E3B" transform="translate(498,214)"/>
<path d="M0 0 C0 0.66 0 1.32 0 2 C-3.96 1.67 -7.92 1.34 -12 1 C-12 0.67 -12 0.34 -12 0 C-7.74433453 -1.16063604 -4.3164922 -0.76173392 0 0 Z " fill="#475049" transform="translate(548,1012)"/>
<path d="M0 0 C0.33 0.66 0.66 1.32 1 2 C-0.32 3.65 -1.64 5.3 -3 7 C-3.99 6.67 -4.98 6.34 -6 6 C-4.02 4.02 -2.04 2.04 0 0 Z " fill="#E3C6C9" transform="translate(763,745)"/>
</svg>
