<?xml version="1.0" standalone="no"?>
<!DOCTYPE svg PUBLIC "-//W3C//DTD SVG 20010904//EN"
 "http://www.w3.org/TR/2001/REC-SVG-20010904/DTD/svg10.dtd">
<svg version="1.0" xmlns="http://www.w3.org/2000/svg"
 width="1200.000000pt" height="1200.000000pt" viewBox="0 0 1200.000000 1200.000000"
 preserveAspectRatio="xMidYMid meet">

<g transform="translate(0.000000,1200.000000) scale(0.100000,-0.100000)"
fill="#000000" stroke="none">
<path d="M5855 10023 c-436 -35 -772 -105 -1144 -240 -1198 -431 -2150 -1426
-2521 -2634 -226 -737 -249 -1472 -69 -2209 245 -999 849 -1862 1703 -2434
495 -332 1057 -554 1631 -645 261 -41 335 -46 650 -46 324 0 462 11 715 56
141 25 369 80 470 114 88 29 71 27 -110 -14 -74 -17 -166 -36 -205 -41 -38 -6
-83 -13 -100 -16 -129 -24 -737 -43 -765 -25 -13 9 -15 132 -18 991 l-2 980
55 0 c162 0 431 49 610 110 394 136 755 399 992 721 108 148 113 161 27 78
-107 -103 -174 -157 -274 -222 -277 -179 -576 -267 -904 -267 -169 0 -242 9
-398 46 l-108 26 0 1609 0 1609 28 11 c15 6 81 23 147 37 109 24 140 26 335
26 236 0 314 -12 510 -75 250 -80 532 -261 702 -448 47 -53 49 -54 27 -16 -42
74 -161 226 -247 317 -366 384 -849 607 -1395 644 l-107 7 -2 876 c-1 482 -1
922 0 979 l1 102 -97 -2 c-53 -1 -115 -3 -137 -5z m-3222 -2238 c55 -53 69
-79 46 -87 -5 -2 -12 -12 -13 -23 -2 -11 -9 -19 -16 -17 -8 2 -11 -4 -7 -17 3
-12 -3 -31 -14 -45 -10 -13 -19 -29 -19 -35 0 -6 -14 -41 -32 -78 -18 -38 -31
-71 -30 -75 1 -4 -7 -22 -18 -40 -11 -18 -20 -40 -20 -49 0 -9 -6 -29 -14 -45
-21 -42 -40 -88 -41 -99 0 -5 -3 -14 -6 -20 -3 -5 -11 -30 -18 -55 -8 -25 -17
-58 -22 -74 -5 -15 -6 -33 -2 -39 3 -5 1 -7 -4 -4 -7 4 -14 -8 -19 -31 -4 -20
-9 -44 -11 -52 -2 -8 -6 -25 -8 -38 -2 -13 -9 -29 -15 -37 -7 -8 -9 -15 -6
-15 4 0 2 -9 -4 -19 -7 -14 -7 -22 0 -26 6 -4 8 -11 4 -16 -3 -5 -8 -7 -12 -5
-4 2 -8 -6 -8 -17 -3 -35 -10 -71 -18 -89 -5 -10 -6 -24 -3 -32 3 -7 0 -19 -6
-25 -6 -6 -8 -11 -5 -11 3 0 1 -24 -6 -53 -7 -30 -11 -62 -9 -73 1 -10 -2 -41
-7 -68 -6 -27 -13 -83 -16 -125 -3 -42 -7 -92 -10 -111 -3 -19 -7 -85 -9 -147
-2 -62 -6 -117 -10 -123 -3 -5 -1 -10 5 -10 6 0 8 -5 3 -12 -8 -14 -11 -118
-3 -118 3 0 5 -18 6 -39 1 -45 -12 -54 -103 -76 -44 -10 -53 -10 -57 2 -3 8
-9 96 -12 196 -22 613 119 1262 397 1835 71 147 97 192 108 192 3 0 32 -25 64
-55z"/>
<path d="M7031 6649 c-118 -165 -219 -299 -224 -299 -6 0 -162 50 -348 110
-185 61 -340 110 -344 110 -11 0 8 -27 223 -325 107 -148 195 -274 195 -280 0
-5 -95 -143 -212 -305 -127 -177 -207 -296 -199 -298 7 -1 161 47 343 108 181
60 334 110 340 110 6 0 108 -135 226 -299 l214 -299 3 368 c2 278 5 370 15
378 6 5 167 60 355 121 189 62 342 114 340 116 -2 2 -476 159 -695 230 -10 3
-13 92 -15 378 l-3 374 -214 -298z"/>
<path d="M7440 2040 c-18 -12 -2 -12 25 0 13 6 15 9 5 9 -8 0 -22 -4 -30 -9z"/>
<path d="M7398 2023 c7 -3 16 -2 19 1 4 3 -2 6 -13 5 -11 0 -14 -3 -6 -6z"/>
</g>
</svg>
